<?xml version="1.0" encoding="UTF-8" standalone="no"?>
<!-- Created with Inkscape (http://www.inkscape.org/) -->

<svg
   xmlns:dc="http://purl.org/dc/elements/1.1/"
   xmlns:cc="http://creativecommons.org/ns#"
   xmlns:rdf="http://www.w3.org/1999/02/22-rdf-syntax-ns#"
   xmlns:svg="http://www.w3.org/2000/svg"
   xmlns="http://www.w3.org/2000/svg"
   xmlns:sodipodi="http://sodipodi.sourceforge.net/DTD/sodipodi-0.dtd"
   xmlns:inkscape="http://www.inkscape.org/namespaces/inkscape"
   width="32.544292mm"
   height="26.739954mm"
   viewBox="0 0 115.31442 94.747871"
   id="svg2"
   version="1.1"
   inkscape:version="0.91 r13725"
   sodipodi:docname="logo_bfb_grau.svg">
  <defs
     id="defs4" />
  <sodipodi:namedview
     id="base"
     pagecolor="#ffffff"
     bordercolor="#666666"
     borderopacity="1.0"
     inkscape:pageopacity="0.0"
     inkscape:pageshadow="2"
     inkscape:zoom="1"
     inkscape:cx="-97.661268"
     inkscape:cy="4.6344322"
     inkscape:document-units="px"
     inkscape:current-layer="layer1"
     showgrid="false"
     fit-margin-top="0"
     fit-margin-left="0"
     fit-margin-right="0"
     fit-margin-bottom="0"
     inkscape:window-width="1244"
     inkscape:window-height="755"
     inkscape:window-x="36"
     inkscape:window-y="1"
     inkscape:window-maximized="1" />
  <metadata
     id="metadata7">
    <rdf:RDF>
      <cc:Work
         rdf:about="">
        <dc:format>image/svg+xml</dc:format>
        <dc:type
           rdf:resource="http://purl.org/dc/dcmitype/StillImage" />
        <dc:title></dc:title>
      </cc:Work>
    </rdf:RDF>
  </metadata>
  <g
     inkscape:label="Ebene 1"
     inkscape:groupmode="layer"
     id="layer1"
     transform="translate(-93.832481,-450.42789)">
    <path
       style="font-style:normal;font-variant:normal;font-weight:normal;font-stretch:normal;font-size:medium;line-height:125%;font-family:'Noto Sans';-inkscape-font-specification:'Noto Sans';letter-spacing:0px;word-spacing:0px;fill:#6f7b8a;fill-opacity:1;stroke:none;stroke-width:1px;stroke-linecap:butt;stroke-linejoin:miter;stroke-opacity:1"
       d="m 101.18515,450.42789 0.84257,7.50677 -7.626938,-2.11914 -0.568309,3.60919 7.313097,0.57396 -4.704812,6.1892 3.568192,1.83357 3.09742,-6.8395 3.41127,6.8395 3.45085,-1.83357 -4.76418,-6.1892 7.37105,-0.57396 -0.54851,-3.60919 -7.72448,2.11914 0.80439,-7.50677 -3.92161,0 z m 70.8803,10.36104 0,5.20526 c 0,0.16638 0.0201,0.49217 0.0608,0.97546 0.0407,0.47537 0.0731,0.79155 0.0975,0.95001 l -0.15833,0 c -0.96769,-1.28351 -2.35066,-1.92547 -4.1478,-1.92547 -1.74835,0 -3.10661,0.59905 -4.0743,1.7954 -0.95957,1.19635 -1.43915,2.85913 -1.43915,4.99038 0,2.14709 0.47958,3.8079 1.43915,4.98048 0.95956,1.17258 2.31004,1.75865 4.05026,1.75865 1.84593,0 3.23667,-0.66173 4.17184,-1.98484 l 0.0976,0 0.32939,1.74733 1.76855,0 0,-18.49266 -2.19549,0 z m 23.04197,0.55983 c -0.36592,0 -0.6753,0.10699 -0.92739,0.32091 -0.24395,0.21391 -0.36615,0.55805 -0.36615,1.03342 0,0.46745 0.1222,0.81157 0.36615,1.03341 0.25209,0.22185 0.56147,0.33364 0.92739,0.33364 0.34154,0 0.63713,-0.11179 0.88922,-0.33364 0.26022,-0.22184 0.3916,-0.56596 0.3916,-1.03341 0,-0.47537 -0.13138,-0.81951 -0.3916,-1.03342 -0.25209,-0.21392 -0.54768,-0.32091 -0.88922,-0.32091 z m -59.67246,0.1654 c -0.32526,0 -0.60074,0.0954 -0.82843,0.28557 -0.2277,0.18223 -0.34211,0.48345 -0.34211,0.90336 0,0.41991 0.11442,0.72931 0.34211,0.92739 0.22769,0.19806 0.50316,0.29687 0.82843,0.29687 0.31715,0 0.59403,-0.0988 0.82985,-0.29687 0.23582,-0.19808 0.35342,-0.50748 0.35342,-0.92739 0,-0.41991 -0.1176,-0.72113 -0.35342,-0.90336 -0.23582,-0.19015 -0.5127,-0.28557 -0.82985,-0.28557 z m 4.67229,0 c -0.30901,0 -0.57812,0.0954 -0.80581,0.28557 -0.22769,0.18223 -0.3407,0.48345 -0.3407,0.90336 0,0.41991 0.11301,0.72931 0.3407,0.92739 0.22769,0.19806 0.4968,0.29687 0.80581,0.29687 0.31714,0 0.59261,-0.0988 0.82843,-0.29687 0.23583,-0.19808 0.35485,-0.50748 0.35485,-0.92739 0,-0.41991 -0.11902,-0.72113 -0.35485,-0.90336 -0.23582,-0.19015 -0.51129,-0.28557 -0.82843,-0.28557 z m -23.78557,0.39301 0,17.37442 6.26836,0 c 1.95165,0 3.47236,-0.43616 4.56203,-1.30767 1.08967,-0.87152 1.63565,-2.08318 1.63565,-3.63605 0,-1.14881 -0.3249,-2.07223 -0.97545,-2.76945 -0.64242,-0.6972 -1.65104,-1.16132 -3.02533,-1.39108 l 0,-0.11875 c 1.10594,-0.19807 1.94751,-0.62945 2.52488,-1.29496 0.57736,-0.67344 0.8666,-1.52459 0.8666,-2.55455 0,-1.48157 -0.53362,-2.56648 -1.5989,-3.25577 -1.05715,-0.6972 -2.78056,-1.04614 -5.17133,-1.04614 l -5.08651,0 z m 2.24496,1.86609 2.9504,0 c 1.50441,0 2.60273,0.20919 3.29393,0.6291 0.69934,0.41991 1.04897,1.10479 1.04897,2.05553 0,1.02205 -0.31714,1.75124 -0.95142,2.18699 -0.63428,0.43576 -1.65067,0.65313 -3.04936,0.65313 l -3.29252,0 0,-5.52475 z m 35.55608,2.22093 c -0.90264,0 -1.72867,0.17927 -2.47681,0.53579 -0.74813,0.34861 -1.3298,0.84406 -1.74451,1.48581 l -0.12158,0 -0.32939,-1.7841 -1.76854,0 0,13.0499 2.19548,0 0,-6.76174 c 0,-1.67173 0.30936,-2.87661 0.92739,-3.61343 0.62616,-0.74474 1.6256,-1.11683 2.99988,-1.11683 1.03274,0 1.78921,0.2617 2.26899,0.78461 0.48791,0.51498 0.7323,1.30206 0.7323,2.36371 l 0,8.34368 2.17145,0 0,-8.49777 c 0,-1.64002 -0.39907,-2.84829 -1.19599,-3.62474 -0.79693,-0.77643 -2.01604,-1.16489 -3.65867,-1.16489 z m 30.83571,0 c -0.90264,0 -1.72725,0.17927 -2.47539,0.53579 -0.74812,0.34861 -1.32978,0.84406 -1.74451,1.48581 l -0.123,0 -0.32938,-1.7841 -1.76855,0 0,13.0499 2.19548,0 0,-6.76174 c 0,-1.67173 0.30937,-2.87661 0.92739,-3.61343 0.62615,-0.74474 1.62561,-1.11683 2.99988,-1.11683 1.03275,0 1.78922,0.2617 2.269,0.78461 0.48791,0.51498 0.7323,1.30206 0.7323,2.36371 l 0,8.34368 2.17145,0 0,-8.49777 c 0,-1.64002 -0.39908,-2.84829 -1.196,-3.62474 -0.79693,-0.77643 -2.01604,-1.16489 -3.65867,-1.16489 z m 19.63777,0 c -1.56132,0 -2.78819,0.30941 -3.6827,0.92739 -0.89451,0.61798 -1.3416,1.46236 -1.3416,2.53195 0,0.60212 0.1176,1.11254 0.35342,1.53245 0.24396,0.41991 0.62149,0.80018 1.13379,1.14086 0.51231,0.33275 1.39873,0.73758 2.65918,1.21296 1.23604,0.45952 2.09457,0.86773 2.57436,1.22426 0.48791,0.35653 0.73088,0.79128 0.73088,1.30627 0,0.58629 -0.25073,1.05379 -0.75492,1.40239 -0.50418,0.34861 -1.31009,0.52307 -2.41602,0.52307 -1.36616,0 -2.78479,-0.34751 -4.25666,-1.04472 l 0,1.94808 c 1.04088,0.54667 2.44398,0.81995 4.2086,0.81995 1.69142,0 3.00482,-0.33256 3.93999,-0.99808 0.93516,-0.67344 1.40239,-1.62002 1.40239,-2.84013 0,-0.61006 -0.12677,-1.13346 -0.37886,-1.56921 -0.25209,-0.43576 -0.64657,-0.8276 -1.18328,-1.17621 -0.52856,-0.3486 -1.35002,-0.72547 -2.46409,-1.12954 -1.48813,-0.5546 -2.43494,-0.98596 -2.84154,-1.29496 -0.40659,-0.31691 -0.60931,-0.71355 -0.6093,-1.18892 0,-0.49122 0.2352,-0.87487 0.70685,-1.15217 0.47165,-0.28522 1.16314,-0.42835 2.0739,-0.42835 1.08968,0 2.31337,0.27806 3.67139,0.83267 l 0.74361,-1.69927 c -1.3255,-0.58629 -2.74873,-0.88074 -4.26939,-0.88074 z m -72.4792,0.2375 0,8.54585 c 0,1.65586 0.40683,2.85934 1.22003,3.61201 0.82132,0.75267 2.03724,1.12955 3.64735,1.12955 0.96769,0 1.81703,-0.16967 2.54891,-0.51035 0.73186,-0.34068 1.29798,-0.82456 1.69644,-1.45046 l 0.10886,0 0.31809,1.7233 1.8053,0 0,-13.0499 -2.20821,0 0,6.7985 c 0,1.65587 -0.31255,2.85597 -0.9387,3.60071 -0.62616,0.74475 -1.627,1.11824 -3.00129,1.11824 -1.01649,0 -1.76978,-0.25352 -2.25769,-0.76058 -0.47977,-0.51498 -0.71816,-1.30007 -0.71816,-2.35381 l 0,-8.40306 -2.22093,0 z m 61.86794,0 0,13.0499 2.19548,0 0,-13.0499 -2.19548,0 z m -25.76194,1.53387 c 1.33362,0 2.30976,0.38845 2.92778,1.16489 0.62616,0.76851 0.93871,2.06064 0.93871,3.87497 l 0,0.39159 c 0,1.61626 -0.30937,2.78022 -0.92739,3.49326 -0.60988,0.70514 -1.58143,1.05887 -2.91506,1.05887 -1.15473,0 -2.04116,-0.4164 -2.65918,-1.2483 -0.60989,-0.83189 -0.91466,-2.05655 -0.91466,-3.6728 0,-1.62419 0.30936,-2.87199 0.92739,-3.74349 0.61801,-0.87944 1.49207,-1.31899 2.62241,-1.31899 z m -49.65636,3.3632 3.42682,0 c 1.46374,0 2.56065,0.25013 3.29252,0.74927 0.73186,0.49122 1.09845,1.25514 1.09845,2.29303 0,1.09335 -0.34646,1.90977 -1.03766,2.44853 -0.69121,0.53875 -1.75244,0.80864 -3.18366,0.80864 l -3.59647,0 0,-6.29947 z m 35.76955,20.19053 c -0.36548,0 -0.67278,0.10584 -0.92457,0.3195 -0.24365,0.21365 -0.36614,0.55862 -0.36614,1.03341 0,0.46687 0.12249,0.81044 0.36614,1.032 0.25179,0.22158 0.55909,0.33223 0.92457,0.33223 0.34112,0 0.63886,-0.11065 0.89063,-0.33223 0.25991,-0.22156 0.38877,-0.56513 0.38877,-1.032 0,-0.47479 -0.12886,-0.81976 -0.38877,-1.03341 -0.25177,-0.21366 -0.54951,-0.3195 -0.89063,-0.3195 z m -37.9,0.557 0,17.35322 2.24072,0 0,-7.37106 7.23676,0 0,-1.90991 -7.23676,0 0,-6.14962 7.71317,0 0,-1.92263 -9.95389,0 z m 18.89557,4.08419 c -0.82031,0 -1.579,0.2199 -2.27748,0.66303 -0.69848,0.44315 -1.30351,1.09686 -1.81519,1.95939 l -0.0976,0 -0.24457,-2.38633 -1.80247,0 0,13.03294 2.19266,0 0,-6.95543 c 0,-0.81504 0.17063,-1.55482 0.51176,-2.21951 0.3411,-0.67262 0.81127,-1.19928 1.41229,-1.57911 0.60913,-0.37982 1.26692,-0.56972 1.97353,-0.56972 0.47106,0 0.95503,0.056 1.45046,0.16681 l 0.2686,-1.9707 c -0.45482,-0.095 -0.97914,-0.14137 -1.57204,-0.14137 z m 8.96572,0 c -1.81118,0 -3.24784,0.6209 -4.31181,1.86326 -1.06396,1.23445 -1.59606,2.89567 -1.59606,4.98472 0,2.07324 0.56785,3.70304 1.70492,4.89001 1.14519,1.17905 2.72132,1.76854 4.72743,1.76854 0.8853,0 1.65319,-0.0627 2.30293,-0.18944 0.64976,-0.1266 1.3447,-0.34451 2.08379,-0.65312 l 0,-1.87458 c -0.86092,0.35608 -1.61323,0.59721 -2.25485,0.72382 -0.64163,0.11869 -1.3196,0.17813 -2.03433,0.17813 -1.34011,0 -2.37492,-0.3846 -3.10591,-1.15217 -0.73096,-0.76758 -1.11721,-1.89052 -1.15781,-3.37028 l 9.1608,0 0,-1.29353 c 0,-1.80419 -0.49954,-3.23392 -1.49853,-4.28636 -0.99899,-1.06035 -2.33934,-1.589 -4.02057,-1.589 z m 20.51709,0 c -1.81118,0 -3.24926,0.6209 -4.31322,1.86326 -1.06397,1.23445 -1.59607,2.89567 -1.59607,4.98472 0,2.07324 0.56929,3.70304 1.70634,4.89001 1.14519,1.17905 2.7199,1.76854 4.72601,1.76854 0.88528,0 1.65317,-0.0627 2.30293,-0.18944 0.64974,-0.1266 1.34471,-0.34451 2.0838,-0.65312 l 0,-1.87458 c -0.86092,0.35608 -1.61323,0.59721 -2.25486,0.72382 -0.64163,0.11869 -1.31959,0.17813 -2.03432,0.17813 -1.34011,0 -2.37494,-0.3846 -3.10591,-1.15217 -0.73097,-0.76758 -1.1172,-1.89052 -1.15782,-3.37028 l 9.16222,0 0,-1.29353 c 0,-1.80419 -0.49954,-3.23392 -1.49853,-4.28636 -0.99899,-1.06035 -2.33934,-1.589 -4.02057,-1.589 z m -11.59804,0.23609 0,13.03294 2.19266,0 0,-13.03294 -2.19266,0 z m -8.94309,1.50842 c 1.02336,0 1.81603,0.31697 2.37644,0.95001 0.56042,0.63305 0.84895,1.5579 0.86519,2.77652 l -6.80982,0 c 0.1137,-1.17115 0.47377,-2.0858 1.0829,-2.74259 0.60914,-0.65679 1.43757,-0.98394 2.48529,-0.98394 z m 20.5171,0 c 1.02336,0 1.8146,0.31697 2.37501,0.95001 0.56041,0.63305 0.84896,1.5579 0.86519,2.77652 l -6.81123,0 c 0.11371,-1.17115 0.47659,-2.0858 1.08573,-2.74259 0.60914,-0.65679 1.43758,-0.98394 2.4853,-0.98394 z m -26.02207,23.20454 0,18.43612 2.1969,0 0,-18.43612 -2.1969,0 z m 15.36556,0 0,5.18971 c 0,0.16588 0.0215,0.48938 0.0622,0.97122 0.0407,0.47394 0.0731,0.79061 0.0975,0.94859 l -0.15975,0 c -0.96831,-1.27963 -2.35093,-1.91981 -4.14922,-1.91981 -1.74946,0 -3.1074,0.59559 -4.07571,1.78834 -0.96016,1.19275 -1.44198,2.85141 -1.44198,4.97624 0,2.14062 0.48182,3.79589 1.44198,4.96492 0.96017,1.16906 2.31034,1.75441 4.05167,1.75441 1.8471,0 3.2375,-0.66005 4.17326,-1.97919 l 0.099,0 0.32798,1.74169 1.76996,0 0,-18.43612 -2.1969,0 z m -20.68815,0.557 c -0.36616,0 -0.67514,0.10623 -0.92739,0.3195 -0.24411,0.21327 -0.36615,0.55666 -0.36615,1.03059 0,0.46605 0.12204,0.81084 0.36615,1.03201 0.25225,0.22117 0.56123,0.3308 0.92739,0.3308 0.34176,0 0.63839,-0.10963 0.89064,-0.3308 0.26038,-0.22117 0.39159,-0.56596 0.39159,-1.03201 0,-0.47393 -0.13121,-0.81732 -0.39159,-1.03059 -0.25225,-0.21327 -0.54888,-0.3195 -0.89064,-0.3195 z m -17.07472,0.557 0,17.32212 6.27261,0 c 1.95288,0 3.47589,-0.43455 4.56626,-1.30344 1.09036,-0.86889 1.63425,-2.07794 1.63425,-3.62614 0,-1.14535 -0.32451,-2.06444 -0.97546,-2.75956 -0.64284,-0.69511 -1.65159,-1.15778 -3.02674,-1.38684 l 0,-0.11875 c 1.10663,-0.19747 1.94855,-0.6272 2.52628,-1.29071 0.57774,-0.67142 0.86661,-1.52064 0.86661,-2.5475 0,-1.4771 -0.53294,-2.56006 -1.59891,-3.24728 -1.05781,-0.69511 -2.78327,-1.0419 -5.17557,-1.0419 l -5.08933,0 z m 2.24497,1.86044 2.95464,0 c 1.50535,0 2.60369,0.20904 3.29534,0.62768 0.69978,0.41865 1.04897,1.10199 1.04897,2.04988 0,1.01897 -0.31674,1.74547 -0.95142,2.17992 -0.6347,0.43444 -1.65262,0.65172 -3.05219,0.65172 l -3.29534,0 0,-5.5092 z m 63.84712,2.21527 c -0.90322,0 -1.7282,0.17751 -2.47681,0.53297 -0.74861,0.34755 -1.33094,0.84174 -1.74593,1.48156 l -0.12157,0 -0.3294,-1.77844 -1.76995,0 0,13.01032 2.19689,0 0,-6.74196 c 0,-1.66669 0.30898,-2.86751 0.92739,-3.60211 0.62656,-0.74251 1.62755,-1.114 3.00271,-1.114 1.0334,0 1.79032,0.26186 2.27041,0.78319 0.48822,0.51344 0.7323,1.29819 0.7323,2.35665 l 0,8.31823 2.17286,0 0,-8.47092 c 0,-1.63508 -0.39856,-2.84074 -1.19599,-3.61484 -0.79743,-0.7741 -2.01923,-1.16065 -3.66291,-1.16065 z m 13.78079,0 c -1.70064,0 -3.04306,0.60383 -4.02764,1.81237 -0.97644,1.20855 -1.4646,2.85898 -1.4646,4.95221 0,2.13272 0.48356,3.78798 1.45187,4.96492 0.97644,1.16906 2.33121,1.75441 4.0644,1.75441 1.86338,0 3.24743,-0.65181 4.15064,-1.95515 l 0.0975,0 -0.0735,1.5989 0,0.51035 c 0,1.14535 -0.33367,2.04114 -1.0009,2.68886 -0.65911,0.64771 -1.55817,0.97122 -2.69735,0.97122 -1.99358,0 -3.6418,-0.33856 -4.94372,-1.01787 l 0,1.96646 c 1.26124,0.55294 2.86926,0.82985 4.82214,0.82985 2.05053,0 3.55979,-0.4709 4.5281,-1.41088 0.97644,-0.93997 1.4646,-2.34161 1.4646,-4.20577 l 0,-13.22379 -1.74593,0 -0.29264,1.73037 -0.1343,0 c -0.98457,-1.31123 -2.38415,-1.96646 -4.1987,-1.96646 z m -63.92064,0.23609 0,13.01032 2.19689,0 0,-13.01032 -2.19689,0 z m 28.12141,0 0,8.5204 c 0,1.65088 0.40774,2.8503 1.22144,3.6007 0.82184,0.75041 2.03763,1.12672 3.64876,1.12672 0.96831,0 1.81799,-0.17069 2.55033,-0.51035 0.73233,-0.33965 1.29915,-0.82077 1.69785,-1.4448 l 0.10886,0 0.31809,1.71765 1.80671,0 0,-13.01032 -2.20962,0 0,6.7773 c 0,1.65088 -0.31356,2.84831 -0.94011,3.5908 -0.62656,0.74252 -1.62755,1.11401 -3.00271,1.11401 -1.01713,0 -1.76947,-0.25222 -2.25769,-0.75775 -0.48008,-0.51343 -0.72098,-1.29619 -0.72098,-2.34675 l 0,-8.37761 -2.22093,0 z m -10.15464,1.52963 c 1.33447,0 2.31077,0.38655 2.92919,1.16065 0.62655,0.76619 0.94012,2.05337 0.94012,3.86224 l 0,0.3916 c 0,1.6114 -0.31039,2.77246 -0.92881,3.48337 -0.61029,0.703 -1.58199,1.05462 -2.91647,1.05462 -1.15545,0 -2.04218,-0.41468 -2.66059,-1.24406 -0.61028,-0.8294 -0.91608,-2.05011 -0.91608,-3.6615 0,-1.61929 0.30897,-2.8633 0.92739,-3.73218 0.61841,-0.87679 1.4942,-1.31474 2.62525,-1.31474 z m 46.25923,0.024 c 1.37517,0 2.37157,0.39337 2.98999,1.18327 0.61841,0.78991 0.92739,2.05378 0.92739,3.79156 l 0,0.51034 c 0,1.564 -0.30898,2.70178 -0.92739,3.41269 -0.61028,0.703 -1.59117,1.05462 -2.94193,1.05462 -1.18801,0 -2.08247,-0.4229 -2.68462,-1.26809 -0.59401,-0.84519 -0.89063,-2.07273 -0.89063,-3.68412 0,-1.6035 0.30438,-2.83727 0.91466,-3.69825 0.61842,-0.86889 1.48962,-1.30202 2.61253,-1.30202 z m -77.93327,3.32786 3.43105,0 c 1.46467,0 2.56302,0.25021 3.29535,0.74785 0.73234,0.48974 1.09703,1.25119 1.09703,2.28596 0,1.09007 -0.34459,1.90292 -1.03624,2.44006 -0.69165,0.53713 -1.75436,0.80722 -3.18649,0.80722 l -3.6007,0 0,-6.28109 z"
       id="path4242"
       inkscape:connector-curvature="0" />
  </g>
</svg>
