<?xml version="1.0" encoding="UTF-8" standalone="no"?>
<!-- Created with Inkscape (http://www.inkscape.org/) -->

<svg
   xmlns:dc="http://purl.org/dc/elements/1.1/"
   xmlns:cc="http://creativecommons.org/ns#"
   xmlns:rdf="http://www.w3.org/1999/02/22-rdf-syntax-ns#"
   xmlns:svg="http://www.w3.org/2000/svg"
   xmlns="http://www.w3.org/2000/svg"
   xmlns:sodipodi="http://sodipodi.sourceforge.net/DTD/sodipodi-0.dtd"
   xmlns:inkscape="http://www.inkscape.org/namespaces/inkscape"
   version="1.1"
   id="svg10"
   xml:space="preserve"
   width="407.93335"
   height="52.26667"
   viewBox="0 0 407.93333 52.266668"
   sodipodi:docname="Digitalomat_Logo.svg"
   inkscape:version="0.92.1 r15371"><metadata
     id="metadata16"><rdf:RDF><cc:Work
         rdf:about=""><dc:format>image/svg+xml</dc:format><dc:type
           rdf:resource="http://purl.org/dc/dcmitype/StillImage" /><dc:title /></cc:Work></rdf:RDF></metadata><defs
     id="defs14"><clipPath
       clipPathUnits="userSpaceOnUse"
       id="clipPath26"><path
         d="M 0,800 H 800 V 0 H 0 Z"
         id="path24"
         inkscape:connector-curvature="0" /></clipPath></defs><sodipodi:namedview
     pagecolor="#ffffff"
     bordercolor="#666666"
     borderopacity="1"
     objecttolerance="10"
     gridtolerance="10"
     guidetolerance="10"
     inkscape:pageopacity="0"
     inkscape:pageshadow="2"
     inkscape:window-width="1920"
     inkscape:window-height="1017"
     id="namedview12"
     showgrid="false"
     inkscape:zoom="1.2562499"
     inkscape:cx="375.61647"
     inkscape:cy="46.298711"
     inkscape:window-x="-8"
     inkscape:window-y="-8"
     inkscape:window-maximized="1"
     inkscape:current-layer="g22" /><g
     id="g18"
     inkscape:groupmode="layer"
     inkscape:label="681734"
     transform="matrix(1.3333333,0,0,-1.3333333,-58.572349,500.73792)"><g
       id="g20"><g
         id="g22"
         clip-path="url(#clipPath26)"><g
           id="g134"
           transform="translate(278.73144,525.82456)"
           style="fill:#6f7b8a;fill-opacity:1"><g
             aria-label="digitaL f mat"
             transform="matrix(0.75000002,0,0,-0.75000002,-278.73144,274.17549)"
             style="font-style:normal;font-weight:normal;font-size:40px;line-height:1.25;font-family:sans-serif;letter-spacing:0px;word-spacing:0px;fill:#6f7b8a;fill-opacity:1;stroke:none"
             id="flowRoot162"><path
               d="m 65.655016,573.69413 -7.082667,-7.08267 0.08533,25.024 h 3.242667 l 3.754667,-3.75467 z m 0,22.54933 -3.754667,-3.75467 h -3.328 v 25.02401 l 7.082667,-7.08267 z m 23.210667,14.784 H 66.337682 l -7.168,7.168 h 29.696001 l 3.584,-3.584 z m 7.765334,-18.53867 h -3.413334 l -3.754667,3.75467 0.08533,14.18667 3.584,3.584 3.498667,-3.584 z m -3.584,-22.37866 -3.498667,3.584 -0.08533,14.18666 3.840001,3.75467 h 3.413333 l -0.08533,-17.94133 z m -4.181334,-4.18134 H 59.255016 l 7.082666,7.168 h 22.528001 l 3.584,-3.584 z"
               style="font-style:normal;font-variant:normal;font-weight:normal;font-stretch:normal;font-size:85.33333588px;font-family:'Liquid Crystal';-inkscape-font-specification:'Liquid Crystal';fill:#6f7b8a;fill-opacity:1"
               id="path191"
               inkscape:connector-curvature="0"
               sodipodi:nodetypes="cccccccccccccccccccccccccccccccccccccc" /><path
               d="m 108.98835,569.51279 -3.584,-3.584 -3.49867,3.584 v 18.368 l 3.49867,3.49867 3.584,-3.49867 z m 0,26.73067 -3.584,-3.49867 -3.49867,3.49867 0.0853,18.368 3.49866,3.584 3.49867,-3.584 z"
               style="font-style:normal;font-variant:normal;font-weight:normal;font-stretch:normal;font-size:85.33333588px;font-family:'Liquid Crystal';-inkscape-font-specification:'Liquid Crystal';fill:#6f7b8a;fill-opacity:1"
               id="path193"
               inkscape:connector-curvature="0"
               sodipodi:nodetypes="cccccccccccccc" /><path
               d="m 144.44702,565.92879 h -22.528 l -3.49867,3.584 3.584,3.584 h 22.44267 l 3.584,-3.584 z m -23.12533,7.76534 -3.584,-3.584 -3.49867,3.584 0.0853,17.94133 h 3.24267 l 3.75467,-3.75467 z m 0,22.54933 -3.75467,-3.75467 h -3.328 l 0.0853,17.94134 3.49867,3.584 3.49867,-3.584 z m 23.12533,14.784 h -22.44267 l -3.584,3.584 3.584,3.584 h 22.44267 l 3.584,-3.584 z m 7.76534,-21.86667 -7.16801,7.08267 0.0853,14.18667 3.49867,3.584 3.584,-3.584 z m -14.93334,-0.68266 -3.49867,3.584 3.584,3.584 h 6.99734 l 7.168,-7.168 z"
               style="font-style:normal;font-variant:normal;font-weight:normal;font-stretch:normal;font-size:85.33333588px;font-family:'Liquid Crystal';-inkscape-font-specification:'Liquid Crystal';fill:#6f7b8a;fill-opacity:1"
               id="path195"
               inkscape:connector-curvature="0"
               sodipodi:nodetypes="cccccccccccccccccccccccccccccccccccccccc" /><path
               d="m 164.48835,569.51279 -3.584,-3.584 -3.49867,3.584 v 18.368 l 3.49867,3.49867 3.584,-3.49867 z m 0,26.73067 -3.584,-3.49867 -3.49867,3.49867 0.0853,18.368 3.49866,3.584 3.49867,-3.584 z"
               style="font-style:normal;font-variant:normal;font-weight:normal;font-stretch:normal;font-size:85.33333588px;font-family:'Liquid Crystal';-inkscape-font-specification:'Liquid Crystal';fill:#6f7b8a;fill-opacity:1"
               id="path197"
               inkscape:connector-curvature="0"
               sodipodi:nodetypes="cccccccccccccc" /><path
               d="m 202.42169,565.92879 h -29.184 l -3.49867,3.584 3.49867,3.584 h 10.41066 l 4.18134,-4.18133 4.18133,4.18133 h 10.41067 l 3.584,-3.584 z m -11.09334,7.76534 -3.584,-3.584 -3.49866,3.584 -0.0853,14.18666 3.584,3.49867 3.584,-3.49867 z m 0,22.54933 -3.584,-3.49867 -3.584,3.49867 0.0853,18.368 3.584,3.584 3.584,-3.584 z"
               style="font-style:normal;font-variant:normal;font-weight:normal;font-stretch:normal;font-size:85.33333588px;font-family:'Liquid Crystal';-inkscape-font-specification:'Liquid Crystal';fill:#6f7b8a;fill-opacity:1"
               id="path199"
               inkscape:connector-curvature="0"
               sodipodi:nodetypes="cccccccccccccccccccccccc" /><path
               d="m 218.15502,596.24346 -3.75467,-3.75467 h -3.328 l 0.0853,22.12267 3.49867,3.584 3.49867,-3.584 z m 0.0853,-22.54933 -3.584,-3.584 -3.584,3.66933 0.0853,17.856 h 3.41334 l 3.66933,-3.75467 z m 23.21067,-7.76534 h -22.44267 l -3.584,3.584 3.584,3.584 h 22.44267 l 3.584,-3.584 z m 7.85066,7.85067 -3.66933,-3.66933 -3.49867,3.584 -0.0853,14.18666 3.84,3.75467 h 3.49867 z m -3.328,18.70933 -3.75466,3.75467 v 18.368 l 3.584,3.584 3.584,-3.584 -0.0853,-22.12267 z m -4.52266,-4.01066 h -22.61334 l -3.49866,3.584 3.584,3.584 h 22.528 l 3.584,-3.584 z"
               style="font-style:normal;font-variant:normal;font-weight:normal;font-stretch:normal;font-size:85.33333588px;font-family:'Liquid Crystal';-inkscape-font-specification:'Liquid Crystal';fill:#6f7b8a;fill-opacity:1"
               id="path201"
               inkscape:connector-curvature="0"
               sodipodi:nodetypes="cccccccccccccccccccccccccccccccccccccccccc" /><path
               d="m 261.65502,569.51279 -3.584,-3.584 -3.49867,3.584 0.0853,22.12267 h 3.24267 l 3.75467,-3.75467 z m 0,26.73067 -3.75467,-3.75467 h -3.328 l 0.0853,17.94134 3.49867,3.584 3.49867,-3.584 z m 23.12533,14.784 h -22.44267 l -3.584,3.584 3.584,3.584 h 22.44267 l 3.584,-3.584 z"
               style="font-style:normal;font-variant:normal;font-weight:normal;font-stretch:normal;font-size:85.33333588px;font-family:'Liquid Crystal';-inkscape-font-specification:'Liquid Crystal';fill:#6f7b8a;fill-opacity:1"
               id="path203"
               inkscape:connector-curvature="0"
               sodipodi:nodetypes="ccccccccccccccccccccc" /><path
               d="m 324.86568,579.02746 h -22.528 l -3.49867,3.584 3.584,3.584 h 22.44267 l 3.584,-3.584 z"
               style="font-style:normal;font-variant:normal;font-weight:normal;font-stretch:normal;font-size:85.33333588px;font-family:'Liquid Crystal';-inkscape-font-specification:'Liquid Crystal';fill:#6f7b8a;fill-opacity:1"
               id="path205"
               inkscape:connector-curvature="0"
               sodipodi:nodetypes="ccccccc" /><path
               d="m 377.96168,565.92879 -3.584,3.584 v 18.368 l 3.84,3.75467 h 3.328 v -22.12267 z m -4.43733,7.59467 h -0.85333 l -9.728,10.432 v 7.68 h 3.328 l 7.25333,-13.312 z m -11.52,10.432 -9.64267,-10.432 h -0.85333 v 4.8 l 7.25333,13.312 h 3.328 z m -11.34933,-14.44267 -3.584,-3.584 -3.49867,3.584 0.0853,22.12267 h 3.24267 l 3.75467,-3.75467 z m 30.89066,22.976 h -3.41333 l -3.75467,3.75467 0.0853,18.368 3.584,3.584 3.49866,-3.584 z m -30.89066,3.75467 -3.75467,-3.75467 h -3.328 l 0.0853,22.12267 3.49867,3.584 3.49867,-3.584 z"
               style="font-style:normal;font-variant:normal;font-weight:normal;font-stretch:normal;font-size:85.33333588px;font-family:'Liquid Crystal';-inkscape-font-specification:'Liquid Crystal';fill:#6f7b8a;fill-opacity:1"
               id="path207"
               inkscape:connector-curvature="0"
               sodipodi:nodetypes="cccccccccccccccccccccccccccccccccccccccccc" /><path
               d="m 393.8217,596.24346 -3.75466,-3.75467 h -3.328 l 0.0853,22.12267 3.49867,3.584 3.49866,-3.584 z m 0.0853,-22.54933 -3.584,-3.584 -3.584,3.66933 0.0853,17.856 h 3.41333 l 3.66934,-3.75467 z m 23.21066,-7.76534 H 394.675 l -3.584,3.584 3.584,3.584 h 22.44266 l 3.584,-3.584 z m 7.85067,7.85067 -3.66933,-3.66933 -3.49867,3.584 -0.0853,14.18666 3.84,3.75467 h 3.49866 z m -3.328,18.70933 -3.75467,3.75467 v 18.368 l 3.584,3.584 3.584,-3.584 -0.0853,-22.12267 z m -4.52267,-4.01066 h -22.61333 l -3.49867,3.584 3.584,3.584 h 22.528 l 3.584,-3.584 z"
               style="font-style:normal;font-variant:normal;font-weight:normal;font-stretch:normal;font-size:85.33333588px;font-family:'Liquid Crystal';-inkscape-font-specification:'Liquid Crystal';fill:#6f7b8a;fill-opacity:1"
               id="path209"
               inkscape:connector-curvature="0"
               sodipodi:nodetypes="cccccccccccccccccccccccccccccccccccccccccc" /><path
               d="m 462.9217,565.92879 h -29.184 l -3.49866,3.584 3.49866,3.584 h 10.41067 l 4.18133,-4.18133 4.18134,4.18133 h 10.41066 l 3.584,-3.584 z m -11.09333,7.76534 -3.584,-3.584 -3.49867,3.584 -0.0853,14.18666 3.584,3.49867 3.584,-3.49867 z m 0,22.54933 -3.584,-3.49867 -3.584,3.49867 0.0853,18.368 3.584,3.584 3.584,-3.584 z"
               style="font-style:normal;font-variant:normal;font-weight:normal;font-stretch:normal;font-size:85.33333588px;font-family:'Liquid Crystal';-inkscape-font-specification:'Liquid Crystal';fill:#6f7b8a;fill-opacity:1"
               id="path211"
               inkscape:connector-curvature="0"
               sodipodi:nodetypes="cccccccccccccccccccccccc" /><path
               sodipodi:nodetypes="ccccccc"
               inkscape:connector-curvature="0"
               id="path214"
               style="font-style:normal;font-variant:normal;font-weight:normal;font-stretch:normal;font-size:85.33333588px;font-family:'Liquid Crystal';-inkscape-font-specification:'Liquid Crystal';fill:#6f7b8a;fill-opacity:1"
               d="m 324.86568,611.02746 h -22.528 l -3.49867,3.584 3.584,3.584 h 22.44267 l 3.584,-3.584 z" /><path
               sodipodi:nodetypes="ccccccc"
               inkscape:connector-curvature="0"
               id="path216"
               style="font-style:normal;font-variant:normal;font-weight:normal;font-stretch:normal;font-size:85.33333588px;font-family:'Liquid Crystal';-inkscape-font-specification:'Liquid Crystal';fill:#6f7b8a;fill-opacity:1"
               d="m 333.22834,609.83279 v -22.528 l -3.58399,-3.49867 -3.584,3.58401 v 22.44266 l 3.584,3.584 z" /><path
               d="m 301.22834,609.83279 v -22.528 l -3.58399,-3.49867 -3.584,3.58401 v 22.44266 l 3.584,3.584 z"
               style="font-style:normal;font-variant:normal;font-weight:normal;font-stretch:normal;font-size:85.33333588px;font-family:'Liquid Crystal';-inkscape-font-specification:'Liquid Crystal';fill:#6f7b8a;fill-opacity:1"
               id="path218"
               inkscape:connector-curvature="0"
               sodipodi:nodetypes="ccccccc" /></g><path
             d="m -50.359053,-172.38404 c 0.345416,-0.35532 0.692013,-0.72028 1.039498,-1.09337 0.08658,-0.0935 0.173448,-0.18736 0.260764,-0.28148 l 0.130532,-0.14177 c 0.02145,-0.0214 0.02486,-0.022 0.03802,-0.034 0.04142,-0.0366 0.08317,-0.0734 0.125055,-0.11042 0.08037,-0.0728 0.155095,-0.14532 0.227757,-0.21991 l 0.107447,-0.1138 0.05313,-0.0585 0.02649,-0.0298 0.01316,-0.0149 0.0067,-0.008 c 0.0019,9.3e-4 0.0043,0.004 0.0062,0.008 0.157168,0.21355 0.331059,0.416 0.508209,0.61446 0.863682,1.04822 1.754007,2.09187 2.632783,3.11997 2.194863,2.68993 7.198137,8.17099 11.838812,11.45759 0.165011,-0.21208 -0.137485,-0.96418 0.497698,-0.63445 0.307233,0.17744 0.579244,0.32765 0.825059,0.44901 0.247591,0.11929 0.465437,0.2137 0.657827,0.28681 0.384632,0.14607 0.667299,0.20719 0.882331,0.21192 0.430067,0.01 0.590047,-0.20689 0.750767,-0.42221 0.160867,-0.21534 -1.659737,-1.25543 -0.944341,-1.0512 -0.417486,-0.30931 -0.884107,-0.69601 -1.332969,-1.06998 -0.447085,-0.37635 -0.877152,-0.73922 -1.187196,-1.04305 -0.626304,-0.60071 -0.828167,-0.89654 0.05742,-0.34379 0.695861,0.23412 2.699976,2.14796 3.500467,2.23098 0.789392,0.0916 -0.05847,-1.05533 0.728716,-0.9649 0.273046,0.20318 0.67514,0.51812 1.088632,0.81602 0.413195,0.29836 0.826243,0.59671 1.101656,0.79561 0.704001,0.1764 -0.07858,-1.05208 0.469137,-0.65634 1.798701,0.95337 3.942224,2.57019 6.243952,3.93068 0.06837,-0.11574 0.285181,-0.1437 0.345265,-0.24478 0.03004,-0.0504 0.02102,-0.11929 -0.06542,-0.22643 -0.08155,-0.10644 -0.236936,-0.2507 -0.502435,-0.45241 -0.445013,-0.27941 -0.890174,-0.55912 -1.335781,-0.83883 -0.438945,-0.29287 -0.878187,-0.58604 -1.317576,-0.87937 -0.442053,-0.28784 -0.873304,-0.597 -1.306329,-0.90275 -0.431399,-0.30901 -0.870641,-0.60426 -1.295971,-0.9248 -1.718341,-1.25217 -3.396281,-2.57804 -5.054684,-3.93617 -4.291796,-3.45989 -9.650403,-8.88449 -10.936204,-10.53528 l -1.030622,-1.25735 -0.509833,-0.63163 -0.440127,-0.55023 -0.518419,-0.65385 -0.518711,-0.65383 -0.512795,-0.66758 -0.512943,-0.66804 -0.511315,-0.68092 c -0.681949,-0.9103 -1.363901,-1.82045 -2.045551,-2.73031 -1.998937,2.34598 -3.9958,4.68973 -5.990297,7.03069 -1.079161,1.27746 -2.15684,2.55331 -3.233045,3.82737 -2.147073,2.55273 -2.278641,2.66564 -4.386203,5.22206 -1.683115,2.18008 0.06497,0.9587 1.710645,-0.34925 -0.54831,0.43554 -0.241521,0.69718 -0.790721,1.13391 0.306788,0.26166 1.710645,-0.34911 3.598735,-2.35545 -0.446348,0.52346 -0.892398,1.04616 -1.339187,1.5702 -0.344375,0.61047 0.306788,0.26166 0.511018,0.43599 0.446938,-0.52404 0.89284,-1.04689 0.995399,-0.95944 0.101964,0.0871 0.306644,0.26166 0.408756,0.34868 -0.445902,0.52285 -1.339332,1.5702 -1.785233,2.09305 0.445901,-0.52285 0.892394,-1.0463 0.994512,-0.95914 0.102254,0.0873 0.306787,0.26165 0.409347,0.34912 0.994801,-0.95974 2.129016,-2.70382 3.12486,-3.66371 l 0.306491,0.26136 c -0.791019,1.13467 -2.23217,2.61695 -3.12501,3.66371 0.549348,-0.43659 0.651465,-0.34957 0.856136,-0.17494 1.441151,-1.48228 2.473401,-3.31429 4.118782,-4.62165 l -1.338443,1.56916 c 1.403558,-0.61017 1.227594,-1.13332 2.669192,-2.61621"
             style="fill:#00aad0;fill-opacity:1;fill-rule:nonzero;stroke:none;stroke-width:0.14799251"
             id="path136"
             inkscape:connector-curvature="0"
             sodipodi:nodetypes="ccccccccccccccccccccccccccccccccccccccccccccccccccccccccccccccccccccc" /></g></g></g></g></svg>