<?xml version="1.0" encoding="UTF-8" standalone="no"?>
<svg xmlns="http://www.w3.org/2000/svg" fill-rule="evenodd" stroke-linejoin="round" stroke-miterlimit="1.414" clip-rule="evenodd" viewBox="0 0 900 165">
  <g fill="#072838" fill-rule="nonzero">
    <path d="M129.372 77.402c11.005.148 22.025 5.58 27.223 15.149 2.929 5.392 4.099 11.617 4.142 17.799V163s-.453 4.753-3.155 7.29a10.07 10.07 0 0 1-5.592 2.631c-.554.07-.695.061-1.253.079h-19.008c-2.051-.064-2.611-.279-3.681-.702-3.308-1.31-5.79-4.482-6.24-8.045-.07-.554-.061-.695-.079-1.253 0-15.977.143-31.955-.002-47.931a28.076 28.076 0 0 0-.085-1.554c-.579 1.619-.644 3.399-.649 5.146V163c-.061 1.93-.216 2.25-.489 3.09-1.165 3.583-4.496 6.356-8.258 6.831-.554.07-.695.061-1.253.079H91.985c-1.93-.061-2.25-.216-3.09-.489-3.583-1.165-6.356-4.496-6.831-8.258-.07-.554-.061-.695-.079-1.253 0-15.977.143-31.955-.002-47.932-.005-.365-.031-.889-.031-.889-.575 1.724-.686 3.591-.702 5.434L81.249 163s-.453 4.753-3.155 7.29a10.07 10.07 0 0 1-5.592 2.631c-.554.07-.695.061-1.253.079H52.097c-2.051-.064-2.611-.279-3.681-.702-3.308-1.31-5.79-4.482-6.24-8.045-.07-.554-.061-.695-.079-1.253 0-19.624.04-39.247-.001-58.871-.031-4.907-.33-9.805-.692-14.695 0 0-.055-2.442.588-4.191 1.262-3.429 4.505-6.024 8.17-6.473.538-.066.674-.058 1.215-.074h18.144c2.058.064 3.8.47 5.81 1.861.287.198.353.041.665-.111 10.658-5.078 24.166-3.961 33.254 3.361 5.535-4.29 12.479-6.329 19.447-6.406.338-.001.338-.001.675.001z"/>
    <path d="M200.602 77.401c15.347.13 30.324 7.463 37.639 22.389 5.626 11.48 6.603 24.839 4.561 37.445-1.947 12.022-8.016 23.872-18.269 30.561-20.025 13.064-50.911 7.249-62.162-15.568-5.664-11.486-6.651-24.843-4.681-37.425 1.922-12.276 8.172-24.306 18.506-30.923 7.178-4.597 15.951-6.503 24.406-6.479z"/>
    <path d="M269.759 45.021c2.002.198 2.322.388 3.173.74 3.225 1.336 5.628 4.445 6.087 7.934.076.577.067.724.086 1.305v23.667c6.378-1.852 25.377-2.346 36.142 12.137 8.252 11.102 10.211 25.666 9.528 39.091-.748 14.695-5.387 30.263-17.511 38.571-9.643 6.608-23.04 7.705-33.432 2.402 0 0-2.487 1.735-4.865 2.047-.576.075-.722.066-1.302.085h-18.288c-2.009-.066-2.341-.234-3.212-.53-3.714-1.259-6.503-4.866-6.766-8.803-.162-2.429.119-3.168.208-4.618.187-3.149.34-6.3.346-9.451V55c.066-2.01.235-2.343.531-3.214 1.191-3.51 4.456-6.212 8.164-6.7.577-.076.724-.067 1.305-.086h19.152l.654.021z"/>
    <path d="M340.929 46.585c10.949.199 20.941 10.014 20.214 21.249-.299 4.609-2.257 9.062-5.453 12.426 0 0 4.485 3.785 4.631 8.436V163c-.061 1.93-.216 2.25-.489 3.09-1.165 3.583-4.496 6.356-8.258 6.831-.554.07-.695.061-1.253.079h-19.152c-2.051-.064-2.611-.279-3.681-.702-3.308-1.31-5.79-4.482-6.24-8.045-.07-.554-.061-.695-.079-1.253V88.696c.106-3.372 1.733-6.466 4.544-8.377-5.575-5.725-7.161-15.116-3.517-22.444 3.338-6.712 10.603-11.151 18.221-11.29h.512z"/>
    <path d="M389.279 45.021c2.002.198 2.322.388 3.173.74 3.225 1.336 5.628 4.445 6.087 7.934.076.577.067.724.086 1.305v108c-.066 2.01-.235 2.343-.531 3.214-1.191 3.51-4.456 6.212-8.164 6.7-.577.076-.724.067-1.305.086h-19.152c-2.01-.066-2.343-.235-3.214-.531-3.51-1.191-6.212-4.456-6.7-8.164-.076-.577-.067-.724-.086-1.305V55c.066-2.01.235-2.343.531-3.214 1.191-3.51 4.456-6.212 8.164-6.7.577-.076.724-.067 1.305-.086h19.152l.654.021z"/>
    <path d="M439.822 104.335c5.033.276 9.439 4.449 9.628 9.628.005.121.005.243.007.365v15.12c-.094 5.168-4.343 9.8-9.635 9.993-.121.005-.243.005-.365.007h-34.128c-5.168-.094-9.8-4.344-9.993-9.635-.005-.121-.005-.243-.007-.365v-15.12c.094-5.168 4.344-9.8 9.635-9.993.121-.005.243-.005.365-.007h34.128l.365.007zM599.086 104.335c5.033.276 9.439 4.449 9.628 9.628.005.121.005.243.007.365v15.12c-.094 5.154-4.344 9.8-9.635 9.993-.121.005-.243.005-.365.007h-34.128c-5.154-.094-9.8-4.344-9.993-9.635-.005-.121-.005-.243-.007-.365v-15.12c.094-5.154 4.343-9.8 9.635-9.993.121-.005.243-.005.365-.007h34.128l.365.007z"/>
    <path d="M692.844 77.402c11.171.15 22.321 5.815 27.418 15.513 2.79 5.31 3.904 11.398 3.947 17.435V163s-.453 4.753-3.155 7.29a10.07 10.07 0 0 1-5.592 2.631c-.554.07-.695.061-1.253.079h-19.008c-1.93-.061-2.25-.216-3.09-.489-3.583-1.165-6.356-4.496-6.831-8.258-.07-.554-.061-.695-.079-1.253 0-15.977.14-31.955-.002-47.931a28.076 28.076 0 0 0-.085-1.554c-.58 1.618-.644 3.399-.649 5.147V163c-.064 2.051-.279 2.611-.702 3.681-1.31 3.308-4.482 5.79-8.045 6.24-.554.07-.695.061-1.253.079h-19.008c-2.051-.064-2.611-.279-3.681-.702-3.308-1.31-5.79-4.482-6.24-8.045-.07-.554-.061-.695-.079-1.253 0-15.977.14-31.955-.002-47.931-.005-.365-.031-.891-.031-.891-.575 1.725-.686 3.592-.702 5.435L644.721 163s-.453 4.753-3.155 7.29a10.07 10.07 0 0 1-5.592 2.631c-.554.07-.695.061-1.253.079h-19.152c-2.051-.064-2.611-.279-3.681-.702-3.308-1.31-5.79-4.482-6.24-8.045-.07-.554-.061-.695-.079-1.253 0-19.623.04-39.247-.001-58.87-.031-4.908-.33-9.806-.692-14.696 0 0 .126-4.997 2.856-7.763a10.088 10.088 0 0 1 5.902-2.901c.538-.066.674-.058 1.215-.074h18.144c2.058.064 3.799.47 5.81 1.861.285.197.353.042.665-.111 10.667-5.082 24.165-3.963 33.254 3.361 5.451-4.226 12.479-6.329 19.447-6.406.338-.001.338-.001.675.001z"/>
    <path d="M762.358 77.401c12.568.088 26.282 4.024 33.338 15.563 3.704 6.058 5.066 13.327 5.12 20.47.04 16.187-1.203 32.56.653 48.402 0 0 .156 2.17-.279 3.777-1.044 3.855-4.575 6.892-8.566 7.328-.482.052-.604.046-1.087.059h-16.992c-2.333-.064-4.467-.733-6.405-2.325-14.414 7.601-35.613 3.266-43.927-11.714-7.709-13.89-4.559-33.456 8.009-43.183l.16-.17s-3.339-3.595-3.67-7.088l-1.008-14.976c-.068-1.697.033-1.986.194-2.746 1.409-6.642 9.898-9.542 17.788-11.471 5.447-1.333 11.079-1.939 16.672-1.926z"/>
    <path d="M835.236 57.559c1.899.209 2.202.386 3.011.718 3.256 1.337 5.684 4.486 6.125 8.011.068.549.06.688.077 1.24v11.168h4.832s4.552.41 7.071 2.929a10.084 10.084 0 0 1 2.856 5.866c.065.533.057.669.073 1.205v13.824c-.06 1.972-.257 2.511-.65 3.546-1.283 3.383-4.51 5.94-8.145 6.381-.533.065-.669.057-1.205.073h-4.832v27.56c.088-.027.175-.057.261-.092 3.46-1.441 10.975-.871 13.588 4.576.578 1.205.865 1.873.981 4.114l.288 13.68c-.017 1.841-.152 2.149-.383 2.959-1.861 6.506-10.368 8.248-18.448 8.918-9.754.809-20.185-.957-27.171-7.848-5.643-5.566-8.089-13.762-8.124-21.797v-32.07h-2.384s-4.552-.41-7.071-2.929a10.084 10.084 0 0 1-2.856-5.866c-.065-.533-.057-.669-.073-1.205V88.696c.06-1.972.257-2.511.65-3.546 1.283-3.383 4.51-5.94 8.145-6.381.533-.065.669-.057 1.205-.073h2.384v-5.408s.134-3.643 2.154-6.199c1.254-1.589 3.006-2.719 4.946-3.371l19.008-5.76c2.186-.589 1.163-.519 3.687-.399z"/>
  </g>
  <g fill="#fff" fill-rule="nonzero">
    <path d="M150.737 163v-52.416c0-16.128-9.36-23.184-21.744-23.184-9.504 0-15.696 4.464-20.16 11.952C104.657 90.568 97.889 87.4 89.969 87.4c-11.376 0-16.992 6.912-19.728 13.104h-.288c0-2.16-.288-10.224-.432-11.808H51.377c.288 3.888.72 9.648.72 15.984V163h19.152v-43.2c0-10.512 3.888-16.704 11.52-16.704 6.048 0 9.216 3.888 9.216 12.24V163h19.008v-44.352c0-9.36 3.168-15.552 11.376-15.552 6.192 0 9.36 3.888 9.36 12.24V163h19.008zM233.681 125.848c0-21.6-10.08-38.448-33.408-38.448-23.472 0-33.408 16.848-33.408 38.448 0 21.744 9.936 38.592 33.408 38.592 23.328 0 33.408-16.848 33.408-38.592zm-19.872 0c0 14.688-3.456 24.768-13.536 24.768-10.224 0-13.536-10.08-13.536-24.768 0-14.544 3.312-24.768 13.536-24.768 10.08 0 13.536 10.224 13.536 24.768zM314.897 124.984c0-21.456-9.216-37.584-26.064-37.584-9.216 0-14.688 3.6-19.728 11.808h-.288c.144-1.584.288-11.952.288-14.832V55h-19.152v94.608c0 4.464-.288 8.928-.576 13.392h18.288c.144-2.016.576-9.36.576-11.52h.288c4.32 8.064 10.368 12.672 19.584 12.672 17.424 0 26.784-15.12 26.784-39.168zm-19.584.576c0 15.408-3.744 24.48-13.104 24.48-8.784 0-13.104-9.072-13.104-24.48 0-15.408 4.32-24.48 13.104-24.48 9.36 0 13.104 9.072 13.104 24.48zM351.185 66.52c0-5.472-4.752-9.936-10.512-9.936-5.76 0-10.512 4.464-10.512 9.936 0 5.76 4.752 10.08 10.512 10.08 5.76 0 10.512-4.32 10.512-10.08zm-.864 96.48V88.696h-19.152V163h19.152zM369.473 55h19.152v108h-19.152zM405.329 114.328h34.128v15.12h-34.128zM564.593 114.328h34.128v15.12h-34.128zM714.209 163v-52.416c0-16.128-9.36-23.184-21.744-23.184-9.504 0-15.696 4.464-20.16 11.952-4.176-8.784-10.944-11.952-18.864-11.952-11.376 0-16.992 6.912-19.728 13.104h-.288c0-2.16-.288-10.224-.432-11.808h-18.144c.288 3.888.72 9.648.72 15.984V163h19.152v-43.2c0-10.512 3.888-16.704 11.52-16.704 6.048 0 9.216 3.888 9.216 12.24V163h19.008v-44.352c0-9.36 3.168-15.552 11.376-15.552 6.192 0 9.36 3.888 9.36 12.24V163h19.008zM791.537 163c-.432-3.6-.72-8.784-.72-13.968v-35.28c0-11.376-3.6-26.352-28.8-26.352-9.792 0-18.288 2.304-24.336 5.472l1.008 14.976c4.896-4.032 12.528-7.344 20.304-7.344 11.376 0 14.544 6.336 14.544 13.248v2.88h-6.912c-25.632 0-36.576 9.648-36.576 25.2 0 14.256 9.216 22.608 22.032 22.608 9.936 0 15.984-4.608 21.456-11.52h.144c0 1.728.72 8.352.864 10.08h16.992zm-18-30.384c0 8.64-4.032 18.864-15.264 18.864-6.768 0-10.656-3.744-10.656-10.944 0-8.64 7.2-13.824 20.16-13.824 1.584 0 4.896 0 5.76.144v5.76zM849.569 162.568l-.288-13.68c-1.728.864-4.032 1.44-6.768 1.44-5.04 0-8.064-2.88-8.064-10.224V102.52h14.832V88.696h-14.832V67.528l-19.008 5.76v15.408h-12.384v13.824h12.384v42.048c0 13.536 7.776 19.872 20.448 19.872 5.472 0 10.656-1.008 13.68-1.872z"/>
  </g>
  <circle cx="503.5" cy="143.5" r="88.5" fill="#072838"/>
  <circle cx="503" cy="144" r="78" fill="#23d7ff"/>
  <circle cx="504" cy="144" r="52.5" fill="#ffa835"/>
  <circle cx="504.663" cy="145.663" r="31.5" fill="#072838"/>
</svg>
