<?xml version="1.0" encoding="UTF-8" standalone="no"?>
<!-- Generator: Adobe Illustrator 16.0.4, SVG Export Plug-In . SVG Version: 6.00 Build 0)  -->

<svg
   xmlns:dc="http://purl.org/dc/elements/1.1/"
   xmlns:cc="http://creativecommons.org/ns#"
   xmlns:rdf="http://www.w3.org/1999/02/22-rdf-syntax-ns#"
   xmlns:svg="http://www.w3.org/2000/svg"
   xmlns="http://www.w3.org/2000/svg"
   xmlns:sodipodi="http://sodipodi.sourceforge.net/DTD/sodipodi-0.dtd"
   xmlns:inkscape="http://www.inkscape.org/namespaces/inkscape"
   version="1.1"
   id="Ebene_1"
   x="0px"
   y="0px"
   width="288.698px"
   height="70.038px"
   viewBox="0 0 288.698 70.038"
   enable-background="new 0 0 288.698 70.038"
   xml:space="preserve"
   inkscape:version="0.91 r13725"
   sodipodi:docname="logo_digitalomat-mobil.svg"><metadata
     id="metadata69"><rdf:RDF><cc:Work
         rdf:about=""><dc:format>image/svg+xml</dc:format><dc:type
           rdf:resource="http://purl.org/dc/dcmitype/StillImage" /></cc:Work></rdf:RDF></metadata><defs
     id="defs67" /><sodipodi:namedview
     pagecolor="#ffffff"
     bordercolor="#666666"
     borderopacity="1"
     objecttolerance="10"
     gridtolerance="10"
     guidetolerance="10"
     inkscape:pageopacity="0"
     inkscape:pageshadow="2"
     inkscape:window-width="1242"
     inkscape:window-height="755"
     id="namedview65"
     showgrid="false"
     inkscape:zoom="3.2517531"
     inkscape:cx="260.34748"
     inkscape:cy="43.522311"
     inkscape:window-x="38"
     inkscape:window-y="1"
     inkscape:window-maximized="1"
     inkscape:current-layer="Ebene_1" /><path
     style="color:#000000;font-style:normal;font-variant:normal;font-weight:normal;font-stretch:normal;font-size:medium;line-height:normal;font-family:sans-serif;text-indent:0;text-align:start;text-decoration:none;text-decoration-line:none;text-decoration-style:solid;text-decoration-color:#000000;letter-spacing:normal;word-spacing:normal;text-transform:none;direction:ltr;block-progression:tb;writing-mode:lr-tb;baseline-shift:baseline;text-anchor:start;white-space:normal;clip-rule:nonzero;display:inline;overflow:visible;visibility:visible;opacity:1;isolation:auto;mix-blend-mode:normal;color-interpolation:sRGB;color-interpolation-filters:linearRGB;solid-color:#000000;solid-opacity:1;fill:#ffffff;fill-opacity:1;fill-rule:nonzero;stroke:none;stroke-width:0.5;stroke-linecap:round;stroke-linejoin:round;stroke-miterlimit:4;stroke-dasharray:none;stroke-dashoffset:0;stroke-opacity:1;color-rendering:auto;image-rendering:auto;shape-rendering:auto;text-rendering:auto;enable-background:accumulate"
     d="m 73.308594,7.7285156 a 0.250025,0.250025 0 0 0 -0.25,0.25 l 0,3.1113284 a 0.250025,0.250025 0 0 0 0.25,0.25 l 1.259765,0 a 0.250025,0.250025 0 0 0 0.25,-0.25 l 0,-3.1113284 a 0.250025,0.250025 0 0 0 -0.25,-0.25 l -1.259765,0 z m 29.783206,0 a 0.250025,0.250025 0 0 0 -0.25,0.25 l 0,3.1113284 a 0.250025,0.250025 0 0 0 0.25,0.25 l 1.25781,0 a 0.250025,0.250025 0 0 0 0.25,-0.25 l 0,-3.1113284 a 0.250025,0.250025 0 0 0 -0.25,-0.25 l -1.25781,0 z m 38.52343,0 a 0.250025,0.250025 0 0 0 -0.24804,0.2519532 l -0.002,-0.00195 0,24.0039062 c 0,1.036912 0.31461,1.901375 0.94532,2.53125 0.62779,0.627145 1.46319,0.941406 2.45312,0.941406 0.4161,0 0.90333,-0.05065 1.46875,-0.15039 a 0.250025,0.250025 0 0 0 0.002,0 c 0.56454,-0.100223 1.03846,-0.212693 1.42578,-0.341797 a 0.250025,0.250025 0 0 0 0.16015,-0.306641 l -0.29687,-1.037109 a 0.250025,0.250025 0 0 0 -0.33203,-0.164063 c -0.30272,0.117156 -0.63514,0.20513 -1.00196,0.263672 -0.37476,0.06032 -0.69115,0.08984 -0.94336,0.08984 -0.66808,0 -1.1724,-0.188534 -1.56836,-0.5625 -0.39286,-0.371033 -0.58789,-0.856069 -0.58789,-1.521485 l 0,-23.7460932 a 0.250025,0.250025 0 0 0 -0.25,-0.25 l -1.22265,0 -0.002,0 z m 26.38282,0.4257813 c -0.77482,-0.027322 -1.24391,0.896923 -0.76758,1.5078125 0,0 0,0.00195 0,0.00195 l 1.32812,1.7402346 c -0.35515,0.315069 -0.70701,0.637626 -1.03125,1.001953 -1.11804,1.257888 -2.00073,2.704828 -2.64062,4.335938 -0.64105,1.634847 -0.96094,3.346427 -0.96094,5.128906 0,1.708532 0.3009,3.38162 0.9043,5.013672 0.60272,1.63319 1.45929,3.079815 2.5664,4.33789 0.47729,0.542378 1.01021,1.022118 1.56641,1.47461 l -1.62891,2.126953 c -0.1767,0.230478 -0.23489,0.500162 -0.18945,0.736328 0.0454,0.236166 0.18158,0.43446 0.36133,0.572265 0.17975,0.137808 0.40857,0.220561 0.64844,0.203126 0.23986,-0.01744 0.48541,-0.144523 0.66211,-0.375 l 1.66797,-2.175782 c 0.28556,0.172537 0.57195,0.342249 0.875,0.496094 1.54219,0.784144 3.25098,1.173828 5.11328,1.173828 1.76383,0 3.41632,-0.37203 4.94531,-1.117187 1.12629,-0.549189 2.11428,-1.272557 3.01953,-2.097657 l 2.84961,3.740235 c 0.17404,0.239983 0.42272,0.373977 0.66601,0.394531 0.24331,0.02055 0.47363,-0.05992 0.65626,-0.199219 0.18261,-0.1393 0.3227,-0.341957 0.36718,-0.582031 0.0445,-0.240074 -0.0196,-0.51286 -0.20508,-0.744141 l -3.02929,-3.978515 c 0.9342,-1.135583 1.71818,-2.39624 2.28125,-3.833985 0.64198,-1.634403 0.96289,-3.358284 0.96289,-5.166015 0,-1.660179 -0.30106,-3.302783 -0.9043,-4.921875 -0.48519,-1.305645 -1.16401,-2.478218 -1.96875,-3.5625 l 2.83008,-3.6933597 0,-0.00195 c 0.24325,-0.3090823 0.25359,-0.7079782 0.0957,-1.0097656 -0.15818,-0.3023659 -0.49312,-0.5245617 -0.88672,-0.5 -0.27432,0.016915 -0.52737,0.1544745 -0.6914,0.375 l -2.59961,3.3925783 c -0.95621,-0.971057 -2.02269,-1.823548 -3.27149,-2.4687501 -1.5431,-0.7968461 -3.25229,-1.1953126 -5.11523,-1.1953126 -1.78879,0 -3.45176,0.3737357 -4.98047,1.1191407 -0.5169,0.2520457 -0.99081,0.5528122 -1.45508,0.863281 L 168.7168,8.53125 C 168.54735,8.3029226 168.28222,8.1638328 167.99805,8.1542969 Z M 47.488281,8.4707031 a 0.250025,0.250025 0 0 0 -0.25,0.25 l 0,26.2988279 a 0.250025,0.250025 0 0 0 0.25,0.25 l 8.595703,0 c 1.929087,0 3.679241,-0.317308 5.244141,-0.960937 1.560832,-0.642279 2.896206,-1.553618 3.996094,-2.728516 1.098984,-1.174775 1.941924,-2.588532 2.533203,-4.234375 0.590598,-1.647541 0.886719,-3.489007 0.886719,-5.513672 0,-1.825995 -0.263798,-3.550611 -0.791016,-5.169922 C 67.424397,15.04057 66.63651,13.619719 65.589844,12.408203 64.538989,11.193672 63.215283,10.234004 61.628906,9.5292969 60.035466,8.8218916 58.184309,8.4707031 56.082031,8.4707031 l -8.59375,0 z m 162.101559,0 a 0.250025,0.250025 0 0 0 -0.25,0.25 l 0,26.2988279 a 0.250025,0.250025 0 0 0 0.25,0.25 l 1.29688,0 a 0.250025,0.250025 0 0 0 0.25,-0.25 l 0,-22.865234 10.57422,17.882812 a 0.250025,0.250025 0 0 0 0.21484,0.121094 l 0.89063,0 a 0.250025,0.250025 0 0 0 0.21484,-0.121094 l 10.57422,-17.882812 0,22.865234 a 0.250025,0.250025 0 0 0 0.25,0.25 l 1.29492,0 a 0.250025,0.250025 0 0 0 0.25,-0.25 l 0,-26.2988279 a 0.250025,0.250025 0 0 0 -0.25,-0.25 l -1.18555,0 A 0.250025,0.250025 0 0 0 233.75,8.59375 L 222.37109,27.826172 210.99023,8.59375 a 0.250025,0.250025 0 0 0 -0.21484,-0.1230469 l -1.18555,0 z m -98.49609,0.40625 a 0.250025,0.250025 0 0 0 -0.25,0.25 l 0,6.3808589 -2.49023,0 a 0.250025,0.250025 0 0 0 -0.25,0.25 l 0,1.111329 a 0.250025,0.250025 0 0 0 0.25,0.25 l 2.49023,0 0,14.902343 c 0,1.070603 0.38877,1.945597 1.15039,2.546875 0.74737,0.590031 1.64502,0.886719 2.65625,0.886719 0.53459,0 1.02692,-0.04966 1.48047,-0.152344 a 0.250025,0.250025 0 0 0 0.002,0 c 0.44228,-0.10048 0.83619,-0.223231 1.18555,-0.365234 0.33942,-0.137815 0.61259,-0.264238 0.82422,-0.382812 a 0.250025,0.250025 0 0 0 0.002,-0.002 c 0.19576,-0.110545 0.32279,-0.17995 0.35742,-0.197265 a 0.250025,0.250025 0 0 0 0.11524,-0.328125 l -0.47852,-1.03711 a 0.250025,0.250025 0 0 0 -0.4043,-0.07227 c 0.0332,-0.03323 -0.002,0.0016 -0.0469,0.0293 -0.0448,0.0277 -0.11237,0.0671 -0.19726,0.115234 -0.15926,0.091 -0.37208,0.192519 -0.63672,0.300781 -0.25822,0.105334 -0.56273,0.201114 -0.91016,0.285157 -0.33868,0.08157 -0.69421,0.123046 -1.07031,0.123046 -0.5947,0 -1.10227,-0.166551 -1.55469,-0.505859 -0.43601,-0.326503 -0.66918,-0.785142 -0.71484,-1.447266 l 0,-14.699218 4.30664,0 a 0.250025,0.250025 0 0 0 0.25,-0.25 l 0,-1.111329 a 0.250025,0.250025 0 0 0 -0.25,-0.25 l -4.30664,0 0,-6.3808589 a 0.250025,0.250025 0 0 0 -0.25,-0.25 l -1.25977,0 z m 150.61914,0 a 0.250025,0.250025 0 0 0 -0.25,0.25 l 0,6.3808589 -2.49219,0 a 0.250025,0.250025 0 0 0 -0.25,0.25 l 0,1.111329 a 0.250025,0.250025 0 0 0 0.25,0.25 l 2.49219,0 0,14.902343 c 0,1.070604 0.38877,1.945597 1.15039,2.546875 0.74737,0.590031 1.64502,0.886719 2.65625,0.886719 0.53458,0 1.02691,-0.04966 1.48047,-0.152344 0.44227,-0.10048 0.83815,-0.22323 1.1875,-0.365234 0.33942,-0.137815 0.61259,-0.264238 0.82422,-0.382812 a 0.250025,0.250025 0 0 0 0,-0.002 c 0.19576,-0.110544 0.3247,-0.179924 0.35937,-0.197265 a 0.250025,0.250025 0 0 0 0.11524,-0.328125 l -0.48047,-1.03711 a 0.250025,0.250025 0 0 0 -0.40234,-0.07227 c 0.0332,-0.03316 -0.004,0.0016 -0.0488,0.0293 -0.0448,0.02771 -0.11042,0.0671 -0.19531,0.115234 -0.15926,0.091 -0.37209,0.192518 -0.63672,0.300781 -0.25822,0.105335 -0.56273,0.201114 -0.91016,0.285157 -0.33867,0.08157 -0.69421,0.123046 -1.07031,0.123046 -0.59471,0 -1.10227,-0.16655 -1.55469,-0.505859 -0.43483,-0.325621 -0.66829,-0.784131 -0.71484,-1.443359 l 0,-14.703125 4.30664,0 a 0.250025,0.250025 0 0 0 0.25,-0.25 l 0,-1.111329 a 0.250025,0.250025 0 0 0 -0.25,-0.25 l -4.30664,0 0,-6.3808589 a 0.250025,0.250025 0 0 0 -0.25,-0.25 l -1.25977,0 z m -85.24023,1.1308589 c 1.521,0 2.9298,0.32286 4.24218,0.972657 1.18757,0.588679 2.19828,1.393664 3.0918,2.347656 l -5.73242,7.480469 -6.98438,-9.16211 c 0.32422,-0.216666 0.64919,-0.428894 0.99805,-0.611328 1.30859,-0.684308 2.76553,-1.027344 4.38477,-1.027344 z m -127.437504,0.148438 7.046875,0 c 1.7503,0 3.297212,0.291717 4.644531,0.869141 1.351878,0.579375 2.486312,1.385063 3.41211,2.417968 0.926143,1.035235 1.625792,2.261765 2.097656,3.689453 0.472318,1.429066 0.708984,2.99369 0.708984,4.699219 0,1.68106 -0.2307,3.24281 -0.691406,4.685547 -0.459902,1.440221 -1.147666,2.679319 -2.0625,3.726563 -0.914525,1.046029 -2.041102,1.863477 -3.392578,2.455078 -1.346716,0.588859 -2.917661,0.886719 -4.716797,0.886719 l -7.046875,0 0,-23.429688 z m 120.589844,2.648438 7.27148,9.541015 -6.88671,8.986328 c -0.44391,-0.369159 -0.87298,-0.755915 -1.25586,-1.197265 -0.95553,-1.099922 -1.69973,-2.363533 -2.23243,-3.794922 -0.53298,-1.429367 -0.80078,-2.916912 -0.80078,-4.46875 0,-1.476972 0.26194,-2.923415 0.78321,-4.341797 0.52058,-1.418499 1.2532,-2.681421 2.19726,-3.794922 0.28315,-0.333967 0.60149,-0.633186 0.92383,-0.929687 z m 15.37695,2.029296 c 0.53336,0.794632 1.01136,1.631476 1.36914,2.56836 0.54492,1.428905 0.81836,2.918304 0.81836,4.46875 0,1.452603 -0.25404,2.892424 -0.76367,4.324218 -0.42678,1.199685 -1.05616,2.249263 -1.79101,3.22461 l -5.38868,-7.072266 5.75586,-7.513672 z m -96.802731,0.376954 c -1.368306,0 -2.62648,0.287331 -3.761719,0.861328 -1.127294,0.56998 -2.101339,1.332153 -2.912109,2.283203 -0.810211,0.949466 -1.435268,2.039566 -1.876953,3.263672 -0.442913,1.225311 -0.664063,2.509419 -0.664063,3.845703 0,1.265591 0.234958,2.506097 0.703125,3.71875 0.466892,1.211397 1.118386,2.295573 1.953125,3.24414 0.837074,0.95032 1.838854,1.715326 3.001953,2.296875 1.170881,0.58544 2.446442,0.88086 3.816406,0.88086 0.740641,0 1.475129,-0.109633 2.201176,-0.326172 0.7227,-0.215544 1.41319,-0.514753 2.07226,-0.894531 0.65794,-0.380038 1.27268,-0.836014 1.8418,-1.367188 0.39227,-0.365611 0.69162,-0.802948 1.00586,-1.228516 l 0,3.824219 c 0,1.056365 -0.19031,1.968437 -0.56641,2.744141 -0.37884,0.782877 -0.89997,1.436074 -1.5625,1.96875 -0.66631,0.534828 -1.43111,0.93325 -2.30469,1.197266 -0.87621,0.264063 -1.820693,0.398437 -2.835933,0.398437 -1.49736,-10e-7 -2.891835,-0.30284 -4.193359,-0.904297 -1.286139,-0.595435 -2.304091,-1.552177 -3.072266,-2.896484 a 0.250025,0.250025 0 0 0 -0.339844,-0.0957 l -0.925781,0.519531 a 0.250025,0.250025 0 0 0 -0.09766,0.339844 c 0.379719,0.683493 0.830429,1.309074 1.349609,1.878906 0.523164,0.574203 1.129267,1.065462 1.816406,1.472656 0.690299,0.409065 1.486379,0.727813 2.382813,0.955078 0.901654,0.228589 1.927043,0.339844 3.080078,0.339844 1.182825,0 2.318187,-0.157155 3.404297,-0.472656 1.08953,-0.316956 2.05083,-0.80732 2.88086,-1.470703 a 0.250025,0.250025 0 0 0 0.002,0 c 0.82964,-0.665154 1.49625,-1.492732 1.99219,-2.472657 0.50324,-0.992001 0.75,-2.162361 0.75,-3.501953 l 0,-19.855469 a 0.250025,0.250025 0 0 0 -0.25,-0.25 l -1.18555,0 a 0.250025,0.250025 0 0 0 -0.25,0.25 l 0,3.671876 C 95.3174,18.98992 94.98833,18.545456 94.60352,18.142578 94.04733,17.561106 93.43855,17.053338 92.78125,16.623047 92.12074,16.191691 91.40959,15.848628 90.64844,15.595703 89.88102,15.340698 89.063613,15.210937 88.199219,15.210938 Z m 40.154301,0 c -2.16591,0 -4.49544,0.866659 -6.99219,2.564453 a 0.250025,0.250025 0 0 0 -0.0703,0.341797 l 0.59179,0.923828 a 0.250025,0.250025 0 0 0 0.35742,0.06836 c 1.04614,-0.753974 2.0891,-1.32981 3.12891,-1.728516 1.03817,-0.398659 2.00918,-0.595703 2.91211,-0.595703 1.80048,0 3.19276,0.548615 4.24414,1.646485 1.05001,1.097966 1.58008,2.560833 1.58008,4.439453 l 0,1.751953 c -0.82647,-0.295448 -1.70297,-0.547641 -2.69141,-0.703125 -1.11146,-0.174838 -2.21849,-0.261719 -3.31836,-0.261719 -1.18014,0 -2.27122,0.137462 -3.27148,0.416016 -0.99911,0.278011 -1.86519,0.672897 -2.5957,1.185547 -0.72981,0.512144 -1.30629,1.125615 -1.72071,1.83789 -0.41691,0.717392 -0.62695,1.511886 -0.62695,2.367188 0,0.871221 0.16698,1.685748 0.50391,2.435547 0.33416,0.745433 0.79887,1.398018 1.39062,1.951171 0.59125,0.553495 1.28607,0.990016 2.07813,1.308594 0.79685,0.32131 1.65898,0.480469 2.57617,0.480469 1.66201,0 3.2157,-0.320392 4.65625,-0.964844 1.23612,-0.553 2.24396,-1.35143 3.09375,-2.308593 l 0,1.097656 c 0,0.497032 0.16747,0.946126 0.49219,1.298828 0.32513,0.35526 0.75956,0.544922 1.24023,0.544922 l 0.16602,0 c 0.0964,0 0.19016,-0.01975 0.2832,-0.05078 a 0.250025,0.250025 0 0 0 0.16992,-0.238281 l 0,-1.183593 a 0.250025,0.250025 0 0 0 -0.25,-0.25 c -0.17124,0 -0.24534,-0.04059 -0.30469,-0.113282 -0.0594,-0.07269 -0.11133,-0.215475 -0.11133,-0.453125 l 0,-10.074219 c -1e-5,-2.367278 -0.66851,-4.272608 -2.01562,-5.658203 -1.34759,-1.385271 -3.19934,-2.076172 -5.49609,-2.076171 z m 119.76171,0 c -2.1659,0 -4.49735,0.866632 -6.99414,2.564453 a 0.250025,0.250025 0 0 0 -0.0684,0.341797 l 0.59375,0.925781 a 0.250025,0.250025 0 0 0 0.35547,0.06641 c 1.04612,-0.753974 2.09105,-1.32981 3.13086,-1.728516 1.03825,-0.398687 2.00724,-0.595703 2.91016,-0.595703 1.80049,0 3.19478,0.548696 4.24609,1.646485 1.05,1.097966 1.57813,2.560833 1.57813,4.439453 l 0,1.751953 c -0.82685,-0.295501 -1.70488,-0.547634 -2.69336,-0.703125 -1.11146,-0.174838 -2.21655,-0.261719 -3.31641,-0.261719 -1.18015,0 -2.27128,0.13748 -3.27148,0.416016 -0.99904,0.277993 -1.86505,0.672802 -2.59571,1.185547 -0.72994,0.51224 -1.30643,1.125854 -1.7207,1.83789 -0.41678,0.717153 -0.62695,1.511577 -0.62695,2.367188 0,0.871521 0.1671,1.686014 0.5039,2.435547 0.33416,0.745438 0.79888,1.398019 1.39063,1.951171 0.59124,0.553495 1.28607,0.990016 2.07812,1.308594 0.79674,0.321269 1.65704,0.480469 2.57422,0.480469 1.66201,0 3.2176,-0.320365 4.65821,-0.964844 1.23693,-0.553366 2.24406,-1.352592 3.09375,-2.310547 l 0,1.09961 c 0,0.496788 0.16584,0.946208 0.49023,1.298828 0,0 0.002,0 0.002,0 0,0 0,0.002 0,0.002 0.32493,0.353953 0.75853,0.542969 1.23829,0.542969 l 0.16796,0 c 0.0964,0 0.1892,-0.01943 0.28321,-0.05078 a 0.250025,0.250025 0 0 0 0.17187,-0.238281 l 0,-1.183593 a 0.250025,0.250025 0 0 0 -0.25,-0.25 c -0.17125,0 -0.24892,-0.04044 -0.30859,-0.113282 -0.0597,-0.07284 -0.10938,-0.215705 -0.10938,-0.453125 l 0,-10.074219 c 0,-2.367173 -0.66845,-4.27254 -2.01562,-5.658203 -1.34759,-1.385271 -3.19933,-2.076172 -5.4961,-2.076171 z M 73.308594,15.507812 a 0.250025,0.250025 0 0 0 -0.25,0.25 l 0,19.261719 a 0.250025,0.250025 0 0 0 0.25,0.25 l 1.259765,0 a 0.250025,0.250025 0 0 0 0.25,-0.25 l 0,-19.261719 a 0.250025,0.250025 0 0 0 -0.25,-0.25 l -1.259765,0 z m 29.783206,0 a 0.250025,0.250025 0 0 0 -0.25,0.25 l 0,19.261719 a 0.250025,0.250025 0 0 0 0.25,0.25 l 1.25781,0 a 0.250025,0.250025 0 0 0 0.25,-0.25 l 0,-19.261719 a 0.250025,0.250025 0 0 0 -0.25,-0.25 l -1.25781,0 z m -14.7793,1.390626 c 0.760288,0 1.507861,0.130424 2.24805,0.392578 0.74363,0.264137 1.44017,0.622543 2.08789,1.078125 0.64665,0.455054 1.22905,1.00694 1.74609,1.65625 0.50768,0.638481 0.89948,1.324446 1.18555,2.052734 l 0,6.548828 c -0.07,0.621068 -0.30393,1.241984 -0.7168,1.867188 -0.41751,0.630818 -0.94796,1.204907 -1.5957,1.720703 -0.64711,0.516038 -1.37328,0.934792 -2.17969,1.259765 -0.79941,0.322151 -1.611212,0.482422 -2.443359,0.482422 -1.100735,0 -2.123231,-0.232344 -3.076172,-0.697265 -0.960455,-0.468222 -1.793418,-1.08988 -2.5,-1.869141 -0.707898,-0.779137 -1.265091,-1.681354 -1.673828,-2.705078 -0.408738,-1.019973 -0.611328,-2.090074 -0.611328,-3.220703 0,-1.034015 0.167966,-2.064097 0.505859,-3.089844 0.336937,-1.022841 0.828838,-1.93926 1.476563,-2.755859 0.645952,-0.813422 1.434444,-1.469359 2.369141,-1.972657 0.923928,-0.4975 1.977128,-0.748047 3.177734,-0.748046 z m 89.75586,6.986328 5.31836,6.980468 c -0.75326,0.714745 -1.5811,1.345954 -2.5293,1.841797 -1.30858,0.684308 -2.76553,1.025391 -4.38476,1.025391 -1.57072,0 -3.00483,-0.323477 -4.31446,-0.972656 -0.21411,-0.106016 -0.41766,-0.227735 -0.62304,-0.347657 l 6.5332,-8.527343 z m -28.69922,0.21875 a 0.250025,0.250025 0 0 0 -0.22461,0.25 l 0,1.222656 a 0.250025,0.250025 0 0 0 0.25,0.25 l 10.55859,0 a 0.250025,0.250025 0 0 0 0.25,-0.25 l 0,-1.222656 a 0.250025,0.250025 0 0 0 -0.25,-0.25 l -10.55859,0 a 0.250025,0.250025 0 0 0 -0.0254,0 z m 43.56445,0 a 0.250025,0.250025 0 0 0 -0.22461,0.25 l 0,1.222656 a 0.250025,0.250025 0 0 0 0.25,0.25 l 10.55664,0 a 0.250025,0.250025 0 0 0 0.25,-0.25 l 0,-1.222656 a 0.250025,0.250025 0 0 0 -0.25,-0.25 l -10.55664,0 a 0.250025,0.250025 0 0 0 -0.0254,0 z m -64.72851,1.017578 c 2.08637,0 4.04883,0.358529 5.90039,1.048828 l 0,3.441406 c 0,0.580974 -0.20742,1.125836 -0.64649,1.658203 -0.44883,0.542434 -1.02853,1.023638 -1.74804,1.44336 -0.71976,0.419853 -1.53269,0.751135 -2.43946,0.992187 -0.90637,0.241697 -1.80415,0.363281 -2.69531,0.363281 -0.71302,0 -1.36511,-0.118617 -1.96484,-0.353515 -0.60208,-0.236112 -1.12397,-0.564629 -1.56836,-0.986328 -0.44622,-0.42273 -0.79579,-0.915602 -1.05469,-1.480469 -0.25632,-0.559259 -0.38476,-1.161445 -0.38476,-1.820313 0,-0.651586 0.15326,-1.22614 0.46289,-1.742187 0.31247,-0.5208 0.75228,-0.968371 1.33007,-1.345703 0.57949,-0.377963 1.27703,-0.675865 2.09571,-0.892578 0.81559,-0.215892 1.71861,-0.326172 2.71289,-0.326172 z m 119.76562,0 c 2.08572,0 4.04548,0.358953 5.89649,1.048828 l 0,3.441406 c 0,0.580974 -0.20743,1.125835 -0.64649,1.658203 -0.44883,0.542433 -1.02852,1.023637 -1.74804,1.44336 -0.71976,0.419853 -1.53074,0.751135 -2.4375,0.992187 -0.90637,0.241697 -1.80611,0.363281 -2.69727,0.363281 -0.71301,0 -1.36316,-0.118617 -1.96289,-0.353515 -0.60208,-0.236112 -1.12397,-0.564631 -1.56836,-0.986328 -0.44622,-0.422731 -0.79774,-0.915602 -1.05664,-1.480469 -0.25632,-0.559258 -0.38477,-1.161443 -0.38477,-1.820313 0,-0.651585 0.15522,-1.226139 0.46485,-1.742187 0.31249,-0.520805 0.75229,-0.968372 1.33008,-1.345703 0.5795,-0.377966 1.27506,-0.675865 2.09375,-0.892578 0.81552,-0.215873 1.72251,-0.326172 2.71679,-0.326172 z m -119.22461,16.1875 a 0.250025,0.250025 0 0 0 -0.25,0.25 l 0,1.988281 a 0.250025,0.250025 0 0 0 0.25,0.25 l 1.08204,0 a 0.250025,0.250025 0 0 0 0.25,-0.25 l 0,-1.988281 a 0.250025,0.250025 0 0 0 -0.25,-0.25 l -1.08204,0 z m 55.85938,0 a 0.250025,0.250025 0 0 0 -0.25,0.25 l 0,15.77539 a 0.250025,0.250025 0 0 0 0.25,0.25 l 1.08008,0 a 0.250025,0.250025 0 0 0 0.25,-0.25 l 0,-3.455078 2.36914,-2.179687 4.22265,5.78125 a 0.250025,0.250025 0 0 0 0.20313,0.103515 l 1.1875,0 a 0.250025,0.250025 0 0 0 0.20312,-0.398437 l -4.71289,-6.478516 4.53321,-4.408203 a 0.250025,0.250025 0 0 0 -0.17383,-0.429687 l -1.25391,0 A 0.250025,0.250025 0 0 0 192.3418,45.9375 L 185.93555,52 l 0,-10.441406 a 0.250025,0.250025 0 0 0 -0.25,-0.25 l -1.08008,0 z m 68.08984,0 a 0.250025,0.250025 0 0 0 -0.25,0.25 l 0,15.77539 a 0.250025,0.250025 0 0 0 0.25,0.25 l 1.08008,0 a 0.250025,0.250025 0 0 0 0.25,-0.25 l 0,-3.455078 2.36914,-2.179687 4.22266,5.78125 a 0.250025,0.250025 0 0 0 0.20312,0.103515 l 1.1875,0 a 0.250025,0.250025 0 0 0 0.20117,-0.398437 l -4.71093,-6.478516 4.5332,-4.408203 a 0.250025,0.250025 0 0 0 -0.17383,-0.429687 l -1.2539,0 a 0.250025,0.250025 0 0 0 -0.17188,0.06836 L 254.02539,52 l 0,-10.441406 a 0.250025,0.250025 0 0 0 -0.25,-0.25 l -1.08008,0 z m -147.84765,0.43164 a 0.250025,0.250025 0 0 0 -0.22852,0.347657 l 6.54492,15.34375 a 0.250025,0.250025 0 0 0 0.23047,0.152343 l 1.01563,0 a 0.250025,0.250025 0 0 0 0.23046,-0.152343 l 3.16016,-7.351563 3.14258,7.351563 a 0.250025,0.250025 0 0 0 0.23047,0.152343 l 1.01562,0 a 0.250025,0.250025 0 0 0 0.22852,-0.152343 l 6.56836,-15.34375 a 0.250025,0.250025 0 0 0 -0.22852,-0.347657 l -1.20898,0 a 0.250025,0.250025 0 0 0 -0.23047,0.154297 l -5.65039,13.503907 -2.94531,-6.839844 2.66015,-6.363282 a 0.250025,0.250025 0 0 0 -0.23047,-0.345703 l -1.08007,0 a 0.250025,0.250025 0 0 0 -0.23047,0.154297 l -2.06055,5.015625 -2.05859,-5.015625 a 0.250025,0.250025 0 0 0 -0.23047,-0.154297 l -1.08203,0 a 0.250025,0.250025 0 0 0 -0.23047,0.345703 l 2.66015,6.363282 -2.90234,6.835937 -5.66992,-13.501953 a 0.250025,0.250025 0 0 0 -0.23047,-0.152344 l -1.18945,0 z M 264.42773,42 a 0.250025,0.250025 0 0 0 -0.25,0.25 l 0,3.597656 -1.32812,0 a 0.250025,0.250025 0 0 0 -0.25,0.25 l 0,0.884766 a 0.250025,0.250025 0 0 0 0.25,0.25 l 1.32812,0 0,8.220703 c 0,0.361131 0.064,0.687311 0.19727,0.970703 0.12902,0.274501 0.30977,0.514924 0.53906,0.710938 0.22717,0.194969 0.49114,0.339741 0.78711,0.435546 0.29227,0.09515 0.60336,0.142579 0.92969,0.142579 0.31839,0 0.6174,-0.03033 0.89648,-0.0918 a 0.250025,0.250025 0 0 0 0.002,0 c 0.26682,-0.05956 0.50892,-0.127767 0.72851,-0.203125 0.22083,-0.07578 0.40689,-0.156045 0.5625,-0.246094 0.13578,-0.0778 0.22983,-0.130846 0.2793,-0.15625 a 0.250025,0.250025 0 0 0 0.12109,-0.310547 l -0.32226,-0.863281 a 0.250025,0.250025 0 0 0 -0.36328,-0.126953 c -0.0421,0.02507 -0.24788,0.128826 -0.57032,0.279297 -0.28444,0.132739 -0.63322,0.205078 -1.05078,0.205078 -0.31213,0 -0.57847,-0.08761 -0.82617,-0.267578 -0.22434,-0.161962 -0.33008,-0.377962 -0.33008,-0.738282 l 0,-7.960937 2.36524,0 a 0.250025,0.250025 0 0 0 0.25,-0.25 l 0,-0.884766 a 0.250025,0.250025 0 0 0 -0.25,-0.25 l -2.36524,0 0,-3.597656 a 0.250025,0.250025 0 0 0 -0.25,-0.25 l -1.08008,0 z m -127.55859,3.652344 c -0.58212,0 -1.13407,0.0699 -1.6543,0.21289 -0.52325,0.144401 -0.98983,0.36289 -1.39648,0.654297 -0.41244,0.29579 -0.73975,0.674482 -0.97266,1.126953 -0.23644,0.458408 -0.35351,0.990815 -0.35351,1.583985 0,0.474017 0.0798,0.880958 0.25586,1.216797 0.17153,0.329014 0.43086,0.605146 0.76367,0.826172 0.32884,0.219788 0.73476,0.401874 1.2207,0.550781 0.47569,0.146545 1.03167,0.291308 1.66797,0.435547 0.58828,0.143611 1.10226,0.279761 1.54492,0.408203 0.43307,0.125872 0.79174,0.270006 1.07422,0.423828 l 0,-0.002 c 0.27399,0.150273 0.46488,0.323183 0.58985,0.519531 0.12157,0.192048 0.1875,0.433622 0.1875,0.742187 0,0.666754 -0.24689,1.140402 -0.78711,1.511719 -0.54576,0.37464 -1.28146,0.572266 -2.22657,0.572266 -0.74936,0 -1.42871,-0.124612 -2.04492,-0.371094 -0.61686,-0.246745 -1.21804,-0.632789 -1.80469,-1.164062 a 0.250025,0.250025 0 0 0 -0.36914,0.03711 l -0.53906,0.734375 a 0.250025,0.250025 0 0 0 0.0254,0.326172 c 0.61537,0.600095 1.34062,1.053351 2.16406,1.353515 a 0.250025,0.250025 0 0 0 0,0.002 c 0.82013,0.297863 1.67834,0.445312 2.57032,0.445312 1.34851,0 2.45498,-0.309501 3.29296,-0.947266 0.8388,-0.638381 1.2754,-1.53587 1.2754,-2.609374 0,-0.522124 -0.1031,-0.973808 -0.32813,-1.339844 -0.21707,-0.353192 -0.52876,-0.654698 -0.92383,-0.902344 -0.39225,-0.24609 -0.86988,-0.447542 -1.43359,-0.611328 a 0.250025,0.250025 0 0 0 -0.002,0 c -0.55126,-0.159165 -1.17856,-0.32661 -1.88672,-0.5 l -0.002,0 c -0.51593,-0.128998 -0.9616,-0.246935 -1.33007,-0.353516 -0.35976,-0.103634 -0.64505,-0.22526 -0.85743,-0.353515 -0.2076,-0.125369 -0.34399,-0.265175 -0.42773,-0.421875 -0.0812,-0.152042 -0.13281,-0.377357 -0.13281,-0.681641 0,-0.370374 0.0714,-0.676286 0.20703,-0.929687 0.13984,-0.26059 0.32929,-0.469049 0.57031,-0.634766 0.24481,-0.167351 0.53523,-0.292641 0.87695,-0.373047 0.34673,-0.08158 0.72003,-0.123047 1.1211,-0.123047 0.65023,0 1.25633,0.102717 1.82617,0.308594 0.56377,0.203683 1.0109,0.502545 1.35547,0.90039 a 0.250025,0.250025 0 0 0 0.36328,0.01758 l 0.60547,-0.583985 a 0.250025,0.250025 0 0 0 0.0195,-0.33789 c -0.40501,-0.497511 -0.96684,-0.899132 -1.67188,-1.207032 -0.71381,-0.31138 -1.5266,-0.46289 -2.43359,-0.46289 z m 10.39453,0 c -0.58212,0 -1.13408,0.0699 -1.65429,0.21289 -0.52314,0.144367 -0.99154,0.362709 -1.39844,0.654297 -0.41194,0.295426 -0.73809,0.674069 -0.97071,1.125 -0.237,0.458778 -0.35351,0.992075 -0.35351,1.585938 0,0.474054 0.08,0.881032 0.25586,1.216797 0.17153,0.329014 0.43086,0.605146 0.76367,0.826172 0.32885,0.219786 0.73477,0.401874 1.2207,0.550781 0.47554,0.1465 1.02962,0.291289 1.66602,0.435547 0.58836,0.143634 1.10436,0.279803 1.54687,0.408203 0.43291,0.12583 0.79143,0.269839 1.07422,0.423828 0.27276,0.150073 0.46573,0.322547 0.58985,0.517578 0.12158,0.192048 0.1875,0.433623 0.1875,0.742187 0,0.666754 -0.2469,1.140402 -0.78711,1.511719 -0.54577,0.374641 -1.28146,0.572266 -2.22657,0.572266 -0.74935,0 -1.42872,-0.124614 -2.04492,-0.371094 -0.61699,-0.246795 -1.22016,-0.63293 -1.80664,-1.164062 a 0.250025,0.250025 0 0 0 -0.36914,0.03711 l -0.53906,0.734375 a 0.250025,0.250025 0 0 0 0.0273,0.326172 c 0.61554,0.600242 1.34071,1.053385 2.16407,1.353515 a 0.250025,0.250025 0 0 0 0,0.002 c 0.82003,0.297828 1.67639,0.445312 2.56835,0.445312 1.34853,0 2.45682,-0.309407 3.29493,-0.947266 0.8388,-0.638381 1.27539,-1.535872 1.27539,-2.609374 0,-0.522636 -0.1034,-0.974296 -0.32813,-1.339844 -0.21677,-0.352703 -0.5285,-0.654535 -0.92383,-0.902344 -0.39225,-0.24609 -0.86988,-0.447542 -1.43359,-0.611328 a 0.250025,0.250025 0 0 0 -0.002,0 c -0.55138,-0.159199 -1.1806,-0.32663 -1.88867,-0.5 l -0.002,0 c -0.51581,-0.12897 -0.95948,-0.246885 -1.32812,-0.353516 -0.35976,-0.103634 -0.64505,-0.225256 -0.85742,-0.353515 -0.2076,-0.125369 -0.344,-0.265175 -0.42774,-0.421875 -0.0817,-0.152896 -0.13281,-0.378117 -0.13281,-0.681641 0,-0.369795 0.0711,-0.675774 0.20703,-0.929687 0.13985,-0.260594 0.3293,-0.469049 0.57031,-0.634766 0.24481,-0.167351 0.53523,-0.292641 0.87695,-0.373047 0.34688,-0.08161 0.71807,-0.123047 1.11915,-0.123047 0.65022,0 1.2584,0.102761 1.82812,0.308594 0.56376,0.203684 1.01092,0.502549 1.35547,0.90039 a 0.250025,0.250025 0 0 0 0.36328,0.01563 l 0.60352,-0.582032 a 0.250025,0.250025 0 0 0 0.0215,-0.33789 c -0.4048,-0.497256 -0.96672,-0.899078 -1.67187,-1.207032 -0.71382,-0.31138 -1.52659,-0.46289 -2.4336,-0.46289 z m 11.45508,0 c -0.80957,0 -1.57233,0.157094 -2.27539,0.474609 -0.69781,0.315504 -1.30585,0.750348 -1.81836,1.300781 -0.5115,0.548565 -0.91351,1.18914 -1.20508,1.914063 a 0.250025,0.250025 0 0 0 -0.002,0 c -0.29221,0.728493 -0.43945,1.508399 -0.43945,2.330078 0,0.8358 0.14742,1.625234 0.43945,2.361328 0.29227,0.732681 0.69809,1.382381 1.2168,1.945313 0.51848,0.564455 1.13592,1.011227 1.84179,1.333984 0.71035,0.324795 1.48151,0.486328 2.30664,0.486328 0.54059,0 1.06635,-0.07218 1.57813,-0.214844 0.50992,-0.142136 0.98148,-0.340244 1.41211,-0.597656 0.42999,-0.257024 0.80963,-0.563557 1.13672,-0.919922 a 0.250025,0.250025 0 0 0 0,-0.002 c 0.32791,-0.359062 0.57833,-0.758432 0.74804,-1.191406 a 0.250025,0.250025 0 0 0 -0.16601,-0.332031 l -0.94922,-0.257813 a 0.250025,0.250025 0 0 0 -0.29492,0.136719 c -0.13247,0.291147 -0.31424,0.559143 -0.54883,0.80664 a 0.250025,0.250025 0 0 0 0,0.002 c -0.23474,0.249152 -0.5021,0.45971 -0.80664,0.634765 -0.30537,0.17637 -0.63659,0.31532 -0.99219,0.417969 -0.35234,0.101705 -0.71067,0.154297 -1.07617,0.154297 -0.55765,0 -1.07388,-0.109637 -1.56055,-0.326172 -0.49144,-0.217604 -0.92058,-0.514854 -1.29492,-0.896484 -0.37498,-0.382291 -0.6891,-0.83639 -0.9375,-1.367188 -0.20732,-0.443027 -0.30116,-0.938648 -0.36328,-1.449219 l 9.53906,0 A 0.250025,0.250025 0 0 0 164.43359,52.25 c 0.0601,-0.130972 0.0449,-0.188208 0.0449,-0.308594 l 0,-0.269531 c 0,-0.807229 -0.14311,-1.578199 -0.42774,-2.306641 -0.28473,-0.725879 -0.68453,-1.366564 -1.19531,-1.916015 -0.51223,-0.549329 -1.12414,-0.988132 -1.83008,-1.310547 -0.70978,-0.324916 -1.48225,-0.486328 -2.30664,-0.486328 z m 13.7207,0 c -0.52656,0 -1.0411,0.07176 -1.53906,0.214844 -0.4954,0.143151 -0.96503,0.347169 -1.4082,0.609374 -0.44351,0.262879 -0.84352,0.579309 -1.19727,0.949219 -0.16741,0.174661 -0.27978,0.389035 -0.42187,0.582031 l 0,-1.910156 a 0.250025,0.250025 0 0 0 -0.25,-0.25 l -1.01758,0 a 0.250025,0.250025 0 0 0 -0.25,0.25 l 0,11.236328 a 0.250025,0.250025 0 0 0 0.25,0.25 l 1.08203,0 a 0.250025,0.250025 0 0 0 0.25,-0.25 l 0,-6.908203 c 0.1359,-0.454765 0.33974,-0.880135 0.62305,-1.277343 0.28903,-0.405535 0.6248,-0.758022 1.00976,-1.060547 0.38369,-0.301365 0.79577,-0.533697 1.23828,-0.697266 0.44167,-0.163255 0.88383,-0.244141 1.32813,-0.244141 0.83081,0 1.37637,0.283824 1.74414,0.876954 0.36742,0.593259 0.57812,1.611646 0.57812,3.042968 l 0,6.267578 a 0.250025,0.250025 0 0 0 0.25,0.25 l 1.08008,0 a 0.250025,0.250025 0 0 0 0.25,-0.25 l 0,-6.460937 c 0,-1.625399 -0.25275,-2.894759 -0.79101,-3.810547 -0.54882,-0.932905 -1.52618,-1.410156 -2.8086,-1.410156 z m 27.57227,0 c -0.81035,0 -1.57212,0.161424 -2.27539,0.486328 -0.69769,0.322693 -1.30623,0.76496 -1.81836,1.322266 -0.51114,0.556207 -0.9137,1.203111 -1.20508,1.935546 -0.29183,0.735608 -0.43945,1.518165 -0.43945,2.339844 0,0.807225 0.14142,1.58026 0.42578,2.314453 0.28375,0.733429 0.68366,1.381535 1.19531,1.9375 0.51144,0.557434 1.11985,0.999568 1.81836,1.322266 0.70389,0.325188 1.47369,0.488281 2.29883,0.488281 0.81091,0 1.57375,-0.162421 2.27734,-0.488281 0.69852,-0.322699 1.30748,-0.765095 1.82032,-1.322266 0.51007,-0.555141 0.9106,-1.201706 1.20117,-1.933593 l 0,-0.002 c 0.29208,-0.734054 0.4414,-1.508906 0.4414,-2.316406 0,-0.821517 -0.14866,-1.603967 -0.4414,-2.339844 -0.29135,-0.732388 -0.69578,-1.379948 -1.21485,-1.935546 -0.51812,-0.555129 -1.12502,-0.999511 -1.8164,-1.322266 -0.69698,-0.32536 -1.45725,-0.486328 -2.26758,-0.486328 z m 13.39844,0 c -0.95371,0 -1.83674,0.268723 -2.625,0.798828 -0.5912,0.39819 -1.00902,1.029169 -1.42578,1.660156 l 0,-2.013672 a 0.250025,0.250025 0 0 0 -0.25,-0.25 l -1.01563,0 a 0.250025,0.250025 0 0 0 -0.25,0.25 l 0,11.236328 a 0.250025,0.250025 0 0 0 0.25,0.25 l 1.08008,0 a 0.250025,0.250025 0 0 0 0.25,-0.25 l 0,-6.910156 c 0.13814,-0.490005 0.32824,-0.932129 0.57812,-1.330078 a 0.250025,0.250025 0 0 0 0,-0.002 c 0.25467,-0.406719 0.54565,-0.753812 0.87305,-1.046875 0.3258,-0.291612 0.67752,-0.513175 1.06055,-0.667969 0.38031,-0.153696 0.78325,-0.230469 1.21484,-0.230469 0.84597,0 1.4098,0.28763 1.79883,0.890625 0.38846,0.601057 0.60937,1.614126 0.60937,3.029297 l 0,6.267578 a 0.250025,0.250025 0 0 0 0.25,0.25 l 1.08008,0 a 0.250025,0.250025 0 0 0 0.25,-0.25 l 0,-6.892578 c 0.13829,-0.489143 0.32312,-0.934034 0.5586,-1.332031 0.24007,-0.404535 0.52466,-0.750527 0.84961,-1.042969 0.32572,-0.291559 0.68219,-0.517669 1.07421,-0.679687 0.38758,-0.160473 0.7904,-0.240235 1.22071,-0.240235 0.84529,0 1.41539,0.291345 1.8125,0.902344 0.39622,0.610317 0.61914,1.616962 0.61914,3.017578 l 0,6.267578 a 0.250025,0.250025 0 0 0 0.25,0.25 l 1.08008,0 a 0.250025,0.250025 0 0 0 0.25,-0.25 l 0,-6.460937 c 0,-1.597709 -0.26558,-2.864119 -0.82618,-3.792969 -0.56989,-0.944798 -1.55459,-1.427734 -2.83789,-1.427734 -1.82926,0 -3.27791,1.041552 -4.35742,2.857422 -0.17466,-0.742477 -0.41427,-1.447386 -0.9375,-1.945313 -0.6397,-0.607961 -1.48511,-0.912109 -2.48437,-0.912109 z m 19.70703,0 c -0.90794,0 -1.76807,0.241302 -2.56055,0.716797 -0.59717,0.35866 -1.02445,0.877239 -1.44726,1.398437 l 0,-1.669922 a 0.250025,0.250025 0 0 0 -0.25,-0.25 l -0.99415,0 a 0.250025,0.250025 0 0 0 -0.25,0.25 l 0,15.837891 a 0.250025,0.250025 0 0 0 0.25,0.25 l 1.08008,0 a 0.250025,0.250025 0 0 0 0.25,-0.25 l 0,-6.417969 c 0.42027,0.536211 0.84506,1.069902 1.4375,1.470703 0.79719,0.539321 1.71309,0.810547 2.72266,0.810547 0.79673,0 1.53503,-0.161411 2.20508,-0.488281 0.66331,-0.323981 1.23724,-0.769167 1.71289,-1.328125 0.47397,-0.557149 0.83713,-1.204756 1.09179,-1.9375 0.25395,-0.732192 0.38282,-1.504294 0.38282,-2.308594 0,-0.764914 -0.1397,-1.51522 -0.41602,-2.248047 -0.27625,-0.731868 -0.6645,-1.382066 -1.16015,-1.945312 -0.49663,-0.564344 -1.09189,-1.021704 -1.78126,-1.367188 -0.69864,-0.348516 -1.4602,-0.523437 -2.27343,-0.523437 z m 11.92773,0 c -1.35882,0 -2.77712,0.512728 -4.24609,1.511718 a 0.250025,0.250025 0 0 0 -0.0781,0.330079 l 0.41016,0.732421 a 0.250025,0.250025 0 0 0 0.35937,0.08594 c 0.61946,-0.422529 1.22686,-0.744049 1.81836,-0.966797 0.58877,-0.221996 1.13726,-0.328125 1.65039,-0.328125 0.98623,0 1.72787,0.286147 2.28321,0.861328 0.55573,0.57558 0.83789,1.34869 0.83789,2.367188 l 0,0.777344 c -0.42532,-0.141642 -0.8585,-0.276807 -1.35938,-0.365235 -0.62637,-0.110443 -1.24901,-0.166016 -1.86914,-0.166015 -0.71143,0 -1.37118,0.08448 -1.97265,0.257812 -0.59878,0.171734 -1.11965,0.413907 -1.55664,0.728516 -0.43613,0.313974 -0.78374,0.69059 -1.03321,1.126953 -0.25257,0.441768 -0.37695,0.936581 -0.37695,1.464843 0,0.521893 0.0997,1.015616 0.30078,1.472657 0.20017,0.455771 0.48564,0.853084 0.84961,1.185547 0.36081,0.330323 0.78017,0.593016 1.25195,0.783203 0.47794,0.192329 0.99349,0.287109 1.54102,0.287109 0.96878,0 1.87854,-0.185425 2.71875,-0.560547 0.66034,-0.29447 1.15597,-0.779985 1.63476,-1.28125 l 0,0.425781 a 0.250025,0.250025 0 0 0 0.002,0.02539 c 0.0341,0.318394 0.15585,0.608437 0.36328,0.841797 0.21869,0.246027 0.53434,0.376953 0.8789,0.376953 0.0732,1e-6 0.1472,-0.0066 0.22852,-0.01367 a 0.250025,0.250025 0 0 0 0.002,0 c 0.0839,-0.0081 0.16712,-0.018 0.25196,-0.03516 a 0.250025,0.250025 0 0 0 0.19922,-0.244141 l 0,-0.972656 a 0.250025,0.250025 0 0 0 -0.25,-0.25 c -0.11111,0 -0.14341,-0.02274 -0.16797,-0.05078 -0.0246,-0.02804 -0.0566,-0.09647 -0.0566,-0.240235 l 0,-5.488281 c 0,-1.429818 -0.40875,-2.591926 -1.23828,-3.429687 -0.82901,-0.836396 -1.97427,-1.25 -3.37696,-1.25 z m -116.29883,0.195312 a 0.250025,0.250025 0 0 0 -0.25,0.25 l 0,11.236328 a 0.250025,0.250025 0 0 0 0.25,0.25 l 1.08204,0 a 0.250025,0.250025 0 0 0 0.25,-0.25 l 0,-11.236328 a 0.250025,0.250025 0 0 0 -0.25,-0.25 l -1.08204,0 z m 29.99414,1.189453 c 0.55766,0 1.07705,0.106798 1.56446,0.316407 0.49038,0.210894 0.91998,0.502742 1.29492,0.876953 0.37391,0.374366 0.67999,0.819976 0.91992,1.341797 0.20134,0.437878 0.2964,0.939358 0.35742,1.460937 l -8.23242,0 c 0.0596,-0.513677 0.14825,-1.009271 0.33985,-1.455078 a 0.250025,0.250025 0 0 0 0,-0.002 c 0.22561,-0.528378 0.52332,-0.974504 0.89648,-1.347656 0.37361,-0.373604 0.80389,-0.663095 1.29492,-0.875 0.48741,-0.209611 1.00519,-0.316407 1.56445,-0.316407 z m 41.27149,0.08789 c 0.56934,0 1.0937,0.120776 1.58594,0.363281 0.49827,0.245848 0.93768,0.574374 1.32031,0.992188 0.3819,0.417014 0.68207,0.900092 0.90234,1.457031 0.21814,0.553408 0.32813,1.144182 0.32813,1.777344 0,0.649257 -0.11019,1.245933 -0.32813,1.798828 -0.21954,0.556968 -0.52175,1.045173 -0.90429,1.46875 -0.38194,0.423641 -0.82169,0.752807 -1.32422,0.990234 a 0.250025,0.250025 0 0 0 0,0.002 c -0.50015,0.236685 -1.03122,0.353516 -1.60157,0.353516 -0.57033,0 -1.10043,-0.116947 -1.59961,-0.353516 a 0.250025,0.250025 0 0 0 -0.002,0 c -0.50499,-0.238975 -0.93983,-0.561768 -1.31445,-0.970703 -0.37508,-0.408641 -0.67289,-0.889944 -0.89258,-1.447265 -0.21874,-0.553083 -0.32812,-1.143987 -0.32812,-1.777344 0,-0.633255 0.11192,-1.228294 0.33789,-1.796875 0.22705,-0.57319 0.53041,-1.069945 0.90625,-1.494141 0.37565,-0.423155 0.81181,-0.754644 1.3164,-1 0.49995,-0.243101 1.0283,-0.363281 1.59766,-0.363281 z m 32.88867,0 c 0.58389,0 1.12681,0.124973 1.64063,0.375 0.52047,0.252904 0.97341,0.589368 1.36328,1.013672 0.38968,0.424118 0.69392,0.912135 0.91406,1.46875 0.21906,0.553874 0.32812,1.135059 0.32812,1.753906 0,0.577287 -0.0957,1.143107 -0.28906,1.701172 -0.19322,0.55752 -0.46553,1.048392 -0.82031,1.478516 -0.35366,0.427894 -0.7815,0.768946 -1.28516,1.027343 -0.49691,0.255287 -1.04333,0.384766 -1.65625,0.384766 -0.41836,0 -0.82087,-0.07149 -1.20898,-0.212891 -0.39442,-0.142625 -0.76043,-0.342237 -1.10156,-0.601562 -0.34423,-0.261671 -0.65459,-0.563782 -0.92969,-0.908203 -0.26632,-0.332724 -0.48285,-0.693821 -0.6582,-1.078125 l 0,-3.605469 c 0.0379,-0.352603 0.17596,-0.687011 0.42578,-1.015625 0.25753,-0.339733 0.56902,-0.642626 0.93945,-0.910156 0.37147,-0.268293 0.76692,-0.480495 1.18555,-0.638672 0.41624,-0.157281 0.79885,-0.232422 1.15234,-0.232422 z m 12.05859,4.625 c 0.59195,0 1.1584,0.04887 1.70508,0.146484 0.49129,0.08761 0.95922,0.229534 1.41602,0.396485 l 0,1.798828 c 0,0.202969 -0.0864,0.438612 -0.29492,0.712891 a 0.250025,0.250025 0 0 0 -0.004,0.0059 c -0.34528,0.47841 -0.84498,0.869816 -1.51172,1.171875 -0.66521,0.301034 -1.39305,0.453125 -2.19726,0.453125 -0.37538,0 -0.72014,-0.06421 -1.04493,-0.189453 -0.32667,-0.126249 -0.60418,-0.295698 -0.83984,-0.511719 -0.23404,-0.214536 -0.4139,-0.468269 -0.54492,-0.769531 -0.12996,-0.299737 -0.19531,-0.61591 -0.19531,-0.958985 0,-0.33422 0.0783,-0.627788 0.23632,-0.90039 0.15918,-0.273954 0.38458,-0.507822 0.6875,-0.705078 0.30528,-0.198789 0.6772,-0.358162 1.11719,-0.47461 0.43678,-0.115595 0.92646,-0.175781 1.4707,-0.175781 z"
     id="path5"
     inkscape:connector-curvature="0" /></svg>