<?xml version="1.0" encoding="utf-8"?>
<!-- Generator: Adobe Illustrator 16.0.4, SVG Export Plug-In . SVG Version: 6.00 Build 0)  -->
<!DOCTYPE svg PUBLIC "-//W3C//DTD SVG 1.1//EN" "http://www.w3.org/Graphics/SVG/1.1/DTD/svg11.dtd">
<svg version="1.1" id="Ebene_1" xmlns="http://www.w3.org/2000/svg" xmlns:xlink="http://www.w3.org/1999/xlink" x="0px" y="0px"
	 width="288.698px" height="70.038px" viewBox="0 0 288.698 70.038" enable-background="new 0 0 288.698 70.038"
	 xml:space="preserve">
<g>
	<path fill="#00ABD0" d="M84.853,44.211h1.4l2.968,7.224l2.968-7.224h1.4l-3.5,8.372l4.172,9.688l7.616-18.2h1.567l-8.512,19.88
		h-1.315l-4.368-10.22l-4.396,10.22h-1.315l-8.484-19.88h1.54l7.644,18.2l4.116-9.688L84.853,44.211z"/>
	<path fill="#00ABD0" d="M106.021,46.088v-2.576h1.4v2.576H106.021z M106.021,63.952v-14.56h1.4v14.56H106.021z"/>
	<path fill="#00ABD0" d="M116.437,64.231c-1.12,0-2.193-0.187-3.22-0.56c-1.026-0.374-1.923-0.934-2.688-1.68l0.699-0.952
		c0.784,0.71,1.597,1.232,2.437,1.568c0.84,0.336,1.764,0.504,2.771,0.504c1.27,0,2.291-0.266,3.066-0.798
		c0.774-0.532,1.162-1.274,1.162-2.226c0-0.448-0.099-0.826-0.294-1.134c-0.196-0.308-0.49-0.569-0.882-0.784
		c-0.393-0.214-0.878-0.406-1.456-0.574c-0.579-0.168-1.251-0.345-2.017-0.532c-0.821-0.186-1.535-0.373-2.142-0.56
		c-0.607-0.186-1.106-0.41-1.498-0.672c-0.393-0.261-0.687-0.578-0.882-0.952c-0.196-0.374-0.294-0.85-0.294-1.428
		c0-0.728,0.14-1.362,0.42-1.904c0.279-0.542,0.667-0.989,1.162-1.344c0.494-0.354,1.063-0.62,1.708-0.798
		c0.644-0.177,1.33-0.266,2.058-0.266c1.139,0,2.146,0.191,3.024,0.574c0.877,0.383,1.558,0.873,2.044,1.47l-0.784,0.756
		c-0.485-0.56-1.116-0.98-1.891-1.26s-1.601-0.42-2.478-0.42c-0.542,0-1.05,0.056-1.526,0.168c-0.476,0.112-0.892,0.29-1.246,0.532
		c-0.354,0.243-0.635,0.556-0.84,0.938c-0.205,0.383-0.308,0.836-0.308,1.358c0,0.429,0.07,0.774,0.21,1.036
		c0.14,0.262,0.364,0.486,0.672,0.672s0.704,0.35,1.19,0.49c0.484,0.14,1.063,0.294,1.735,0.462
		c0.915,0.224,1.727,0.439,2.437,0.644c0.709,0.206,1.302,0.458,1.777,0.756c0.477,0.299,0.841,0.654,1.093,1.064
		s0.378,0.934,0.378,1.568c0,1.307-0.509,2.348-1.526,3.122S118.135,64.231,116.437,64.231z"/>
	<path fill="#00ABD0" d="M129.905,64.231c-1.12,0-2.193-0.187-3.22-0.56c-1.026-0.374-1.923-0.934-2.688-1.68l0.699-0.952
		c0.784,0.71,1.597,1.232,2.437,1.568c0.84,0.336,1.764,0.504,2.771,0.504c1.27,0,2.291-0.266,3.066-0.798
		c0.774-0.532,1.162-1.274,1.162-2.226c0-0.448-0.099-0.826-0.294-1.134c-0.196-0.308-0.49-0.569-0.882-0.784
		c-0.393-0.214-0.878-0.406-1.456-0.574c-0.579-0.168-1.251-0.345-2.017-0.532c-0.821-0.186-1.535-0.373-2.142-0.56
		c-0.607-0.186-1.106-0.41-1.498-0.672c-0.393-0.261-0.687-0.578-0.882-0.952c-0.196-0.374-0.294-0.85-0.294-1.428
		c0-0.728,0.14-1.362,0.42-1.904c0.279-0.542,0.667-0.989,1.162-1.344c0.494-0.354,1.063-0.62,1.708-0.798
		c0.644-0.177,1.33-0.266,2.058-0.266c1.139,0,2.146,0.191,3.024,0.574c0.877,0.383,1.558,0.873,2.044,1.47l-0.784,0.756
		c-0.485-0.56-1.116-0.98-1.891-1.26s-1.601-0.42-2.478-0.42c-0.542,0-1.05,0.056-1.526,0.168c-0.476,0.112-0.892,0.29-1.246,0.532
		c-0.354,0.243-0.635,0.556-0.84,0.938c-0.205,0.383-0.308,0.836-0.308,1.358c0,0.429,0.07,0.774,0.21,1.036
		c0.14,0.262,0.364,0.486,0.672,0.672s0.704,0.35,1.19,0.49c0.484,0.14,1.063,0.294,1.735,0.462
		c0.915,0.224,1.727,0.439,2.437,0.644c0.709,0.206,1.302,0.458,1.777,0.756c0.477,0.299,0.841,0.654,1.093,1.064
		s0.378,0.934,0.378,1.568c0,1.307-0.509,2.348-1.526,3.122S131.603,64.231,129.905,64.231z"/>
	<path fill="#00ABD0" d="M144.941,64.231c-1.027,0-1.979-0.201-2.856-0.602c-0.877-0.401-1.638-0.952-2.281-1.652
		c-0.645-0.7-1.148-1.507-1.513-2.422c-0.363-0.915-0.546-1.895-0.546-2.94c0-1.026,0.183-1.993,0.546-2.898
		c0.364-0.905,0.863-1.699,1.498-2.38c0.635-0.682,1.387-1.218,2.254-1.61c0.868-0.392,1.807-0.588,2.814-0.588
		c1.026,0,1.979,0.201,2.855,0.602c0.878,0.401,1.634,0.943,2.269,1.624c0.634,0.682,1.129,1.475,1.484,2.38
		c0.354,0.906,0.531,1.862,0.531,2.87c0,0.094,0,0.21,0,0.35c0,0.14-0.01,0.229-0.027,0.266h-12.769
		c0.057,0.84,0.252,1.62,0.588,2.338s0.761,1.339,1.274,1.862c0.513,0.523,1.105,0.934,1.778,1.232
		c0.672,0.299,1.39,0.448,2.155,0.448c0.504,0,0.999-0.07,1.484-0.21c0.485-0.14,0.938-0.332,1.357-0.574
		c0.421-0.242,0.794-0.536,1.12-0.882c0.327-0.345,0.584-0.723,0.771-1.134l1.231,0.336c-0.205,0.523-0.509,1.004-0.909,1.442
		c-0.402,0.438-0.868,0.816-1.4,1.134c-0.532,0.318-1.115,0.565-1.75,0.742S145.613,64.231,144.941,64.231z M150.653,56.112
		c-0.056-0.858-0.248-1.643-0.574-2.352s-0.746-1.32-1.26-1.834c-0.514-0.513-1.106-0.915-1.778-1.204
		c-0.672-0.289-1.391-0.434-2.155-0.434c-0.766,0-1.484,0.145-2.156,0.434c-0.672,0.29-1.265,0.691-1.778,1.204
		c-0.514,0.514-0.924,1.129-1.231,1.848c-0.309,0.719-0.49,1.498-0.547,2.338H150.653z"/>
	<path fill="#00ABD0" d="M166.977,63.952h-1.4v-8.12c0-1.885-0.266-3.257-0.798-4.116c-0.532-0.858-1.377-1.288-2.534-1.288
		c-0.615,0-1.228,0.112-1.834,0.336s-1.171,0.542-1.693,0.952c-0.523,0.411-0.98,0.892-1.372,1.442
		c-0.393,0.551-0.682,1.144-0.868,1.778v9.016h-1.4v-14.56h1.316v3.472c0.299-0.56,0.667-1.068,1.106-1.526
		c0.438-0.458,0.933-0.85,1.483-1.176c0.551-0.326,1.134-0.578,1.75-0.756c0.616-0.177,1.251-0.266,1.904-0.266
		c1.586,0,2.706,0.556,3.359,1.666c0.653,1.111,0.98,2.702,0.98,4.774V63.952z"/>
	<path fill="#00ABD0" d="M188.928,63.952l-5.684-7.784l-3.444,3.164v4.62h-1.4v-20.44h1.4v14.28l8.848-8.372h1.624l-6.075,5.908
		l6.271,8.624H188.928z"/>
	<path fill="#00ABD0" d="M198.364,64.231c-1.027,0-1.974-0.201-2.842-0.602c-0.868-0.401-1.62-0.947-2.254-1.638
		c-0.635-0.69-1.13-1.493-1.484-2.408c-0.354-0.914-0.532-1.876-0.532-2.884c0-1.026,0.183-1.997,0.546-2.912
		c0.364-0.915,0.863-1.717,1.498-2.408s1.387-1.237,2.254-1.638c0.868-0.401,1.807-0.602,2.814-0.602s1.941,0.201,2.8,0.602
		s1.61,0.948,2.254,1.638c0.645,0.69,1.148,1.493,1.512,2.408c0.364,0.915,0.547,1.886,0.547,2.912c0,1.008-0.183,1.97-0.547,2.884
		c-0.363,0.915-0.863,1.718-1.497,2.408c-0.636,0.691-1.387,1.237-2.255,1.638C200.31,64.031,199.372,64.231,198.364,64.231z
		 M192.652,56.756c0,0.858,0.149,1.666,0.448,2.422c0.298,0.756,0.704,1.414,1.218,1.974c0.513,0.56,1.115,1.003,1.806,1.33
		c0.69,0.327,1.428,0.49,2.212,0.49s1.521-0.163,2.212-0.49c0.69-0.326,1.298-0.779,1.82-1.358c0.522-0.578,0.934-1.246,1.232-2.002
		c0.298-0.756,0.447-1.572,0.447-2.45c0-0.858-0.149-1.666-0.447-2.422c-0.299-0.756-0.71-1.418-1.232-1.988
		s-1.125-1.022-1.806-1.358c-0.682-0.336-1.414-0.504-2.198-0.504s-1.521,0.168-2.212,0.504c-0.691,0.336-1.293,0.793-1.807,1.372
		c-0.513,0.579-0.924,1.255-1.231,2.03C192.806,55.081,192.652,55.897,192.652,56.756z"/>
	<path fill="#00ABD0" d="M230.228,63.952h-1.4v-8.12c0-1.848-0.284-3.21-0.854-4.088c-0.57-0.877-1.442-1.316-2.618-1.316
		c-0.598,0-1.167,0.112-1.708,0.336c-0.542,0.224-1.036,0.537-1.484,0.938c-0.447,0.402-0.835,0.877-1.162,1.428
		c-0.326,0.551-0.583,1.162-0.77,1.834v8.988h-1.4v-8.12c0-1.866-0.279-3.234-0.84-4.102c-0.56-0.868-1.428-1.302-2.604-1.302
		c-0.598,0-1.162,0.107-1.694,0.322c-0.532,0.215-1.022,0.523-1.47,0.924c-0.448,0.401-0.845,0.877-1.19,1.428
		c-0.346,0.551-0.611,1.162-0.798,1.834v9.016h-1.4v-14.56h1.316v3.472c0.598-1.176,1.381-2.09,2.352-2.744
		c0.971-0.653,2.045-0.98,3.221-0.98c1.231,0,2.23,0.364,2.996,1.092c0.765,0.728,1.222,1.68,1.372,2.856
		c1.381-2.632,3.285-3.948,5.712-3.948c1.586,0,2.72,0.565,3.401,1.694c0.682,1.13,1.022,2.712,1.022,4.746V63.952z"/>
	<path fill="#00ABD0" d="M241.568,64.231c-1.251,0-2.366-0.331-3.346-0.994c-0.98-0.663-1.769-1.47-2.366-2.422v9.1h-1.4V49.392
		h1.288v2.912c0.598-0.933,1.387-1.694,2.366-2.282c0.98-0.588,2.03-0.882,3.15-0.882c1.008,0,1.94,0.215,2.8,0.644
		c0.858,0.43,1.596,0.994,2.212,1.694c0.616,0.7,1.097,1.508,1.442,2.422c0.345,0.915,0.518,1.848,0.518,2.8
		c0,1.008-0.159,1.97-0.476,2.884c-0.318,0.915-0.771,1.718-1.358,2.408c-0.588,0.691-1.293,1.237-2.114,1.638
		C243.462,64.031,242.557,64.231,241.568,64.231z M241.232,62.972c0.84,0,1.605-0.177,2.296-0.532
		c0.69-0.354,1.278-0.826,1.764-1.414c0.485-0.588,0.858-1.26,1.12-2.016c0.262-0.756,0.393-1.526,0.393-2.31
		c0-0.84-0.149-1.638-0.448-2.394s-0.714-1.423-1.246-2.002s-1.152-1.041-1.862-1.386c-0.709-0.345-1.465-0.518-2.268-0.518
		c-0.504,0-1.041,0.107-1.61,0.322c-0.569,0.215-1.105,0.504-1.609,0.868c-0.504,0.364-0.934,0.779-1.288,1.246
		c-0.355,0.467-0.561,0.962-0.616,1.484v4.788c0.242,0.542,0.551,1.046,0.924,1.512c0.373,0.467,0.793,0.877,1.26,1.232
		c0.467,0.355,0.971,0.63,1.513,0.826C240.093,62.874,240.653,62.972,241.232,62.972z"/>
	<path fill="#00ABD0" d="M255.175,64.231c-0.672,0-1.297-0.117-1.876-0.35c-0.578-0.233-1.087-0.551-1.525-0.952
		c-0.439-0.401-0.78-0.877-1.022-1.428c-0.242-0.55-0.363-1.143-0.363-1.778c0-0.634,0.148-1.213,0.447-1.736
		s0.714-0.975,1.246-1.358s1.171-0.682,1.918-0.896c0.746-0.215,1.568-0.322,2.464-0.322c0.784,0,1.572,0.07,2.366,0.21
		c0.793,0.14,1.507,0.332,2.143,0.574v-1.428c0-1.381-0.393-2.478-1.177-3.29s-1.848-1.218-3.191-1.218
		c-0.71,0-1.461,0.149-2.254,0.448c-0.794,0.299-1.602,0.728-2.423,1.288l-0.531-0.952c1.866-1.269,3.64-1.904,5.319-1.904
		c1.755,0,3.137,0.509,4.145,1.526c1.008,1.018,1.512,2.422,1.512,4.214v7.112c0,0.467,0.205,0.7,0.616,0.7v1.26
		c-0.094,0.019-0.191,0.032-0.294,0.042c-0.103,0.009-0.191,0.014-0.267,0.014c-0.373,0-0.672-0.126-0.896-0.378
		c-0.224-0.252-0.354-0.555-0.392-0.91v-1.204c-0.673,0.877-1.531,1.55-2.576,2.016C257.518,63.998,256.389,64.231,255.175,64.231z
		 M255.456,63.112c1.083,0,2.076-0.206,2.982-0.616c0.905-0.41,1.601-0.952,2.086-1.624c0.298-0.392,0.448-0.765,0.448-1.12v-2.576
		c-0.673-0.261-1.372-0.458-2.101-0.588c-0.728-0.13-1.483-0.196-2.268-0.196c-0.729,0-1.391,0.08-1.988,0.238
		s-1.11,0.378-1.54,0.658c-0.43,0.28-0.761,0.621-0.994,1.022c-0.233,0.402-0.35,0.845-0.35,1.33c0,0.486,0.093,0.943,0.279,1.372
		c0.187,0.43,0.448,0.798,0.784,1.106s0.732,0.551,1.19,0.728C254.443,63.023,254.933,63.112,255.456,63.112z"/>
	<path fill="#00ABD0" d="M277.156,63.952l-5.684-7.784l-3.444,3.164v4.62h-1.4v-20.44h1.4v14.28l8.848-8.372h1.624l-6.075,5.908
		l6.271,8.624H277.156z"/>
	<path fill="#00ABD0" d="M287.739,63.251c-0.074,0.038-0.2,0.108-0.378,0.21c-0.178,0.103-0.401,0.201-0.672,0.294
		s-0.574,0.177-0.91,0.252c-0.336,0.074-0.7,0.112-1.092,0.112s-0.761-0.056-1.105-0.168c-0.346-0.112-0.649-0.28-0.91-0.504
		c-0.262-0.224-0.467-0.495-0.616-0.812s-0.224-0.69-0.224-1.12V50.54h-2.045v-1.148h2.045v-4.984h1.399v4.984h3.388v1.148h-3.388
		v10.64c0,0.542,0.187,0.948,0.561,1.218c0.373,0.271,0.793,0.406,1.26,0.406c0.578,0,1.078-0.098,1.498-0.294
		c0.42-0.196,0.676-0.322,0.77-0.378L287.739,63.251z"/>
</g>
<g>
	<path fill="#6F7B8A" d="M0.73,35.04V0.96h11.136c2.688,0,5.04,0.449,7.056,1.344c2.017,0.896,3.688,2.112,5.017,3.648
		c1.327,1.536,2.327,3.336,3,5.4c0.672,2.064,1.008,4.265,1.008,6.6c0,2.592-0.377,4.937-1.128,7.032
		c-0.753,2.096-1.824,3.888-3.216,5.376c-1.393,1.488-3.081,2.64-5.064,3.456c-1.984,0.816-4.208,1.224-6.672,1.224H0.73z
		 M26.266,17.952c0-2.24-0.312-4.304-0.936-6.192s-1.553-3.52-2.784-4.896c-1.232-1.375-2.744-2.448-4.536-3.216
		s-3.84-1.152-6.144-1.152H2.41v31.008h9.456c2.367,0,4.447-0.392,6.24-1.176c1.791-0.784,3.295-1.872,4.512-3.264
		c1.216-1.392,2.128-3.04,2.736-4.944C25.962,22.216,26.266,20.16,26.266,17.952z"/>
	<path fill="#6F7B8A" d="M34.186,4.032V0h1.632v4.032H34.186z M34.186,35.04V10.08h1.632v24.96H34.186z"/>
	<path fill="#6F7B8A" d="M53.818,35.472c-1.729,0-3.329-0.368-4.801-1.104s-2.735-1.704-3.792-2.904
		c-1.056-1.2-1.88-2.568-2.472-4.104c-0.593-1.536-0.888-3.104-0.888-4.704c0-1.696,0.279-3.32,0.84-4.872
		c0.56-1.552,1.352-2.928,2.376-4.128c1.023-1.2,2.248-2.16,3.672-2.88c1.424-0.72,3-1.08,4.728-1.08
		c1.088,0,2.112,0.161,3.072,0.48s1.855,0.752,2.688,1.296c0.831,0.544,1.6,1.184,2.304,1.92c0.703,0.736,1.344,1.52,1.92,2.352
		V10.08h1.536v25.728c0,1.696-0.312,3.16-0.937,4.392c-0.623,1.231-1.456,2.263-2.495,3.096c-1.041,0.832-2.249,1.448-3.624,1.848
		c-1.377,0.4-2.816,0.6-4.32,0.6c-1.473,0-2.776-0.144-3.912-0.432s-2.136-0.688-3-1.2c-0.864-0.512-1.624-1.128-2.28-1.848
		c-0.656-0.72-1.224-1.512-1.704-2.376l1.2-0.672c1.024,1.792,2.4,3.088,4.128,3.888c1.729,0.799,3.584,1.2,5.568,1.2
		c1.344,0,2.6-0.176,3.768-0.528c1.168-0.353,2.2-0.888,3.097-1.608c0.896-0.72,1.6-1.608,2.111-2.664
		c0.512-1.056,0.769-2.288,0.769-3.696v-5.856c-0.513,0.833-1.128,1.584-1.849,2.256c-0.72,0.672-1.496,1.248-2.327,1.728
		c-0.833,0.48-1.704,0.856-2.616,1.128S54.746,35.472,53.818,35.472z M54.058,33.984c1.12,0,2.216-0.216,3.288-0.648
		s2.04-0.991,2.904-1.68c0.864-0.688,1.575-1.456,2.136-2.304c0.56-0.848,0.888-1.704,0.984-2.568v-8.592
		c-0.384-0.991-0.921-1.92-1.608-2.784c-0.688-0.864-1.464-1.6-2.328-2.208c-0.863-0.607-1.792-1.088-2.783-1.44
		c-0.993-0.352-2.001-0.528-3.024-0.528c-1.601,0-3.024,0.336-4.272,1.008c-1.248,0.672-2.304,1.552-3.168,2.64
		c-0.863,1.088-1.52,2.312-1.968,3.672c-0.448,1.36-0.672,2.729-0.672,4.104c0,1.504,0.271,2.936,0.816,4.296
		c0.543,1.36,1.287,2.561,2.231,3.6c0.943,1.04,2.056,1.872,3.336,2.496C51.209,33.672,52.586,33.984,54.058,33.984z"/>
	<path fill="#6F7B8A" d="M72.777,4.032V0h1.632v4.032H72.777z M72.777,35.04V10.08h1.632v24.96H72.777z"/>
	<path fill="#6F7B8A" d="M92.602,33.888c-0.064,0.032-0.224,0.12-0.479,0.264c-0.257,0.144-0.601,0.305-1.032,0.48
		c-0.433,0.176-0.929,0.329-1.488,0.456c-0.561,0.127-1.176,0.192-1.848,0.192c-1.248,0-2.328-0.36-3.24-1.08
		c-0.912-0.72-1.368-1.736-1.368-3.048V11.52h-3.552v-1.44h3.552V1.488h1.632v8.592h5.904v1.44h-5.904v19.392
		c0.064,0.928,0.416,1.632,1.057,2.112c0.64,0.48,1.375,0.72,2.208,0.72c0.511,0,0.999-0.056,1.464-0.168
		c0.463-0.112,0.871-0.24,1.224-0.384c0.352-0.144,0.64-0.28,0.864-0.408c0.224-0.127,0.352-0.208,0.384-0.24L92.602,33.888z"/>
	<path fill="#6F7B8A" d="M103.017,35.52c-1.151,0-2.224-0.2-3.216-0.6c-0.992-0.399-1.856-0.943-2.592-1.632
		c-0.736-0.688-1.312-1.496-1.728-2.424c-0.417-0.928-0.624-1.936-0.624-3.024c0-1.056,0.256-2.023,0.768-2.904
		c0.512-0.88,1.224-1.64,2.136-2.28s2-1.136,3.265-1.488c1.264-0.352,2.647-0.528,4.151-0.528c1.408,0,2.824,0.112,4.248,0.336
		c1.424,0.224,2.712,0.56,3.864,1.008v-2.688c0-2.496-0.713-4.488-2.136-5.976c-1.425-1.488-3.336-2.232-5.736-2.232
		c-1.217,0-2.513,0.264-3.888,0.792c-1.377,0.528-2.753,1.289-4.128,2.28l-0.769-1.2c3.2-2.176,6.16-3.264,8.88-3.264
		c2.912,0,5.208,0.864,6.889,2.592c1.68,1.728,2.52,4.097,2.52,7.104v13.056c0,0.704,0.288,1.056,0.864,1.056v1.536
		c-0.096,0.032-0.185,0.048-0.264,0.048c-0.081,0-0.152,0-0.217,0c-0.544,0-1-0.199-1.367-0.6c-0.369-0.4-0.553-0.888-0.553-1.464
		v-2.208c-1.151,1.504-2.64,2.664-4.464,3.48S105.129,35.52,103.017,35.52z M103.209,34.128c1.184,0,2.376-0.16,3.576-0.48
		c1.2-0.319,2.28-0.76,3.24-1.32c0.96-0.56,1.743-1.208,2.352-1.944c0.607-0.736,0.912-1.52,0.912-2.352v-4.704
		c-2.496-0.96-5.152-1.44-7.968-1.44c-1.312,0-2.513,0.144-3.601,0.432c-1.088,0.288-2.023,0.688-2.808,1.2
		c-0.784,0.512-1.392,1.128-1.824,1.848c-0.432,0.72-0.647,1.528-0.647,2.424c0,0.896,0.175,1.728,0.527,2.496
		s0.832,1.44,1.44,2.016c0.607,0.576,1.32,1.024,2.136,1.344C101.361,33.968,102.249,34.128,103.209,34.128z"/>
	<path fill="#6F7B8A" d="M122.697,0h1.584v30.768c0,0.929,0.288,1.664,0.864,2.208c0.576,0.544,1.327,0.816,2.256,0.816
		c0.352,0,0.775-0.04,1.272-0.12c0.495-0.079,0.951-0.199,1.367-0.36l0.385,1.344c-0.48,0.16-1.08,0.304-1.801,0.432
		c-0.72,0.127-1.336,0.192-1.848,0.192c-1.217,0-2.2-0.376-2.952-1.128c-0.752-0.751-1.128-1.768-1.128-3.048V0z"/>
	<path fill="#6F7B8A" d="M132.776,22.8v-1.584h13.681V22.8H132.776z"/>
	<path fill="#6F7B8A" d="M167.864,35.28c-2.368,0-4.528-0.496-6.479-1.488c-1.952-0.991-3.632-2.288-5.04-3.888
		c-1.408-1.6-2.496-3.439-3.264-5.52c-0.769-2.08-1.152-4.208-1.152-6.384c0-2.271,0.408-4.447,1.224-6.528
		c0.816-2.08,1.937-3.919,3.36-5.52c1.424-1.6,3.104-2.872,5.04-3.816c1.936-0.944,4.039-1.416,6.312-1.416
		c2.368,0,4.528,0.504,6.48,1.512c1.951,1.008,3.624,2.328,5.016,3.96c1.393,1.632,2.473,3.48,3.24,5.544
		c0.769,2.064,1.152,4.152,1.152,6.264c0,2.304-0.408,4.496-1.225,6.576c-0.815,2.081-1.937,3.912-3.359,5.496
		c-1.425,1.584-3.104,2.848-5.04,3.792C172.192,34.808,170.104,35.28,167.864,35.28z M153.608,18c0,2.048,0.353,4.016,1.057,5.904
		c0.703,1.889,1.688,3.561,2.952,5.016c1.264,1.457,2.767,2.616,4.512,3.48c1.743,0.864,3.655,1.296,5.735,1.296
		c2.144,0,4.088-0.456,5.832-1.368s3.24-2.104,4.488-3.576c1.248-1.471,2.208-3.151,2.88-5.04c0.672-1.888,1.008-3.792,1.008-5.712
		c0-2.047-0.359-4.016-1.079-5.904c-0.721-1.888-1.713-3.56-2.977-5.016c-1.265-1.456-2.769-2.616-4.512-3.48
		c-1.745-0.864-3.624-1.296-5.641-1.296c-2.144,0-4.088,0.456-5.832,1.368c-1.744,0.912-3.239,2.104-4.487,3.576
		c-1.248,1.472-2.217,3.144-2.904,5.016C153.952,14.136,153.608,16.048,153.608,18z"/>
	<path fill="#6F7B8A" d="M189.224,22.8v-1.584h13.681V22.8H189.224z"/>
	<path fill="#6F7B8A" d="M242.216,35.04V4.224l-14.304,24.192h-1.152L212.456,4.224V35.04h-1.68V0.96h1.535l15.024,25.392
		L242.36,0.96h1.535v34.08H242.216z"/>
	<path fill="#6F7B8A" d="M258.2,35.52c-1.151,0-2.224-0.2-3.216-0.6c-0.992-0.399-1.856-0.943-2.592-1.632
		c-0.736-0.688-1.312-1.496-1.728-2.424c-0.417-0.928-0.624-1.936-0.624-3.024c0-1.056,0.256-2.023,0.768-2.904
		c0.512-0.88,1.224-1.64,2.136-2.28s2-1.136,3.265-1.488c1.264-0.352,2.647-0.528,4.151-0.528c1.408,0,2.824,0.112,4.248,0.336
		c1.424,0.224,2.712,0.56,3.864,1.008v-2.688c0-2.496-0.713-4.488-2.136-5.976c-1.425-1.488-3.336-2.232-5.736-2.232
		c-1.217,0-2.513,0.264-3.888,0.792c-1.377,0.528-2.753,1.289-4.128,2.28l-0.769-1.2c3.2-2.176,6.16-3.264,8.88-3.264
		c2.912,0,5.208,0.864,6.889,2.592c1.68,1.728,2.52,4.097,2.52,7.104v13.056c0,0.704,0.288,1.056,0.864,1.056v1.536
		c-0.096,0.032-0.185,0.048-0.264,0.048c-0.081,0-0.152,0-0.217,0c-0.544,0-1-0.199-1.367-0.6c-0.369-0.4-0.553-0.888-0.553-1.464
		v-2.208c-1.151,1.504-2.64,2.664-4.464,3.48S260.312,35.52,258.2,35.52z M258.393,34.128c1.184,0,2.376-0.16,3.576-0.48
		c1.2-0.319,2.28-0.76,3.24-1.32c0.96-0.56,1.743-1.208,2.352-1.944c0.607-0.736,0.912-1.52,0.912-2.352v-4.704
		c-2.496-0.96-5.152-1.44-7.968-1.44c-1.312,0-2.513,0.144-3.601,0.432c-1.088,0.288-2.023,0.688-2.808,1.2
		c-0.784,0.512-1.392,1.128-1.824,1.848c-0.432,0.72-0.647,1.528-0.647,2.424c0,0.896,0.175,1.728,0.527,2.496
		s0.832,1.44,1.44,2.016c0.607,0.576,1.32,1.024,2.136,1.344C256.545,33.968,257.433,34.128,258.393,34.128z"/>
	<path fill="#6F7B8A" d="M287.768,33.888c-0.064,0.032-0.224,0.12-0.479,0.264c-0.257,0.144-0.601,0.305-1.032,0.48
		c-0.433,0.176-0.929,0.329-1.488,0.456c-0.561,0.127-1.176,0.192-1.848,0.192c-1.248,0-2.328-0.36-3.24-1.08
		c-0.912-0.72-1.368-1.736-1.368-3.048V11.52h-3.552v-1.44h3.552V1.488h1.632v8.592h5.904v1.44h-5.904v19.392
		c0.064,0.928,0.416,1.632,1.057,2.112c0.64,0.48,1.375,0.72,2.208,0.72c0.511,0,0.999-0.056,1.464-0.168
		c0.463-0.112,0.871-0.24,1.224-0.384c0.352-0.144,0.64-0.28,0.864-0.408c0.224-0.127,0.352-0.208,0.384-0.24L287.768,33.888z"/>
</g>
<g>
	
		<line fill="none" stroke="#00ABD0" stroke-width="1.7715" stroke-linecap="round" stroke-miterlimit="10" x1="183.065" y1="1.481" x2="156.981" y2="35.521"/>
	
		<line fill="none" stroke="#00ABD0" stroke-width="1.7715" stroke-linecap="round" stroke-miterlimit="10" x1="156.848" y1="1.446" x2="182.843" y2="35.556"/>
</g>
</svg>
