<?xml version="1.0" encoding="UTF-8" standalone="no"?>
<!-- Created with Inkscape (http://www.inkscape.org/) -->

<svg
   xmlns:dc="http://purl.org/dc/elements/1.1/"
   xmlns:cc="http://creativecommons.org/ns#"
   xmlns:rdf="http://www.w3.org/1999/02/22-rdf-syntax-ns#"
   xmlns:svg="http://www.w3.org/2000/svg"
   xmlns="http://www.w3.org/2000/svg"
   xmlns:sodipodi="http://sodipodi.sourceforge.net/DTD/sodipodi-0.dtd"
   xmlns:inkscape="http://www.inkscape.org/namespaces/inkscape"
   width="156.13724mm"
   height="156.13724mm"
   viewBox="0 0 553.24218 553.24218"
   id="svg2"
   version="1.1"
   inkscape:version="0.91 r13725"
   sodipodi:docname="update.svg">
  <defs
     id="defs4" />
  <sodipodi:namedview
     id="base"
     pagecolor="#ffffff"
     bordercolor="#666666"
     borderopacity="1.0"
     inkscape:pageopacity="0.0"
     inkscape:pageshadow="2"
     inkscape:zoom="1"
     inkscape:cx="394.23828"
     inkscape:cy="72.988268"
     inkscape:document-units="px"
     inkscape:current-layer="layer1"
     showgrid="false"
     fit-margin-top="0"
     fit-margin-left="0"
     fit-margin-right="0"
     fit-margin-bottom="0"
     showguides="true"
     inkscape:guide-bbox="true"
     inkscape:window-width="1243"
     inkscape:window-height="755"
     inkscape:window-x="37"
     inkscape:window-y="1"
     inkscape:window-maximized="1">
    <sodipodi:guide
       position="-6.4993332,553.24265"
       orientation="0,1"
       id="guide4311" />
    <sodipodi:guide
       position="553.24279,554.42045"
       orientation="1,0"
       id="guide4313" />
  </sodipodi:namedview>
  <metadata
     id="metadata7">
    <rdf:RDF>
      <cc:Work
         rdf:about="">
        <dc:format>image/svg+xml</dc:format>
        <dc:type
           rdf:resource="http://purl.org/dc/dcmitype/StillImage" />
        <dc:title></dc:title>
      </cc:Work>
    </rdf:RDF>
  </metadata>
  <g
     inkscape:label="Ebene 1"
     inkscape:groupmode="layer"
     id="layer1"
     transform="translate(-113.68633,-57.936997)">
    <g
       id="g4323">
      <path
         id="rect4207"
         transform="translate(109.42461,57.940903)"
         d="M 4.2617188,-0.00390625 557.50391,553.23828 l 0,-175.00781 -378.23438,-378.23437625 -175.0078112,0 z"
         style="opacity:1;fill:#ffc000;fill-opacity:1;fill-rule:nonzero;stroke:none;stroke-width:6.4000001;stroke-linecap:round;stroke-linejoin:bevel;stroke-miterlimit:4;stroke-dasharray:none;stroke-dashoffset:0;stroke-opacity:1"
         inkscape:connector-curvature="0" />
      <path
         id="path4210"
         d="m 267.41333,67.275956 -4.1584,4.158396 5.0989,5.098903 4.1584,-4.158396 -5.0989,-5.098903 z m 30.82129,30.82129 -22.16062,22.160614 5.09753,5.09753 6.65122,-6.65123 -0.42675,12.8757 6.18166,6.18166 0.22649,-17.0341 15.11165,0.46957 -5.92478,-5.92478 -11.7225,-0.0138 12.06362,-12.06363 -5.09752,-5.097524 z m 19.4261,19.426104 -22.16061,22.16061 5.0989,5.09891 22.16062,-22.16062 -5.09891,-5.0989 z m 175.06555,175.06555 -4.15839,4.1584 5.0989,5.0989 4.1584,-4.15839 -5.09891,-5.09891 z m 110.60559,110.60559 -8.54605,8.54605 c 0.22788,-1.63311 0.13328,-3.09497 -0.28449,-4.38628 -0.39879,-1.29129 -1.14837,-2.48799 -2.24977,-3.58939 -1.96544,-1.96544 -4.36451,-2.79666 -7.19398,-2.49283 -2.81996,0.29434 -5.45849,1.67161 -7.91766,4.13078 -2.45916,2.45916 -3.84075,5.102 -4.14459,7.93147 -0.29434,2.81997 0.54258,5.21335 2.50802,7.17879 1.11089,1.1109 2.30621,1.87048 3.58802,2.27876 1.2818,0.40827 2.74367,0.49425 4.38627,0.25688 l -2.30638,2.30638 5.12652,5.12653 22.16061,-22.16062 -5.12652,-5.12652 z M 358.89251,159.77989 c -3.54158,-3.54158 -7.34089,-5.35458 -11.39519,-5.44004 -4.04481,-0.095 -7.76679,1.55751 -11.16594,4.95667 -3.38965,3.38965 -5.04072,7.11024 -4.95527,11.16454 0.095,4.04481 1.91364,7.83843 5.45522,11.38001 1.18685,1.18685 2.45813,2.19433 3.81588,3.02039 1.35777,0.82605 2.80099,1.48103 4.32965,1.96526 l 4.40147,-4.40147 c -1.70907,-0.32281 -3.21962,-0.81586 -4.52991,-1.4805 -1.31028,-0.66464 -2.51129,-1.54456 -3.6032,-2.63646 -1.95593,-1.95594 -2.86744,-4.12007 -2.73452,-6.49378 0.13293,-2.37371 1.29528,-4.65679 3.48858,-6.85009 2.20281,-2.20281 4.49158,-3.37085 6.86529,-3.50378 2.37372,-0.13292 4.53785,0.77858 6.49378,2.73452 1.09191,1.0919 1.97182,2.29292 2.63646,3.6032 0.66463,1.31029 1.15768,2.82084 1.48051,4.5299 l 4.40145,-4.40145 c -0.48422,-1.52867 -1.13919,-2.9719 -1.96525,-4.32965 -0.82605,-1.35777 -1.83216,-2.63042 -3.01901,-3.81727 z m 188.30999,189.08063 -12.74725,12.74725 c -3.00987,3.00987 -4.49469,6.00523 -4.45671,8.98661 0.038,2.98138 1.60013,6.01403 4.68596,9.09986 3.09532,3.09532 6.13229,4.66179 9.11367,4.69977 2.98138,0.038 5.97674,-1.44684 8.98661,-4.45671 l 12.74725,-12.74725 -5.48284,-5.48284 -12.74726,12.74725 c -1.75654,1.75654 -3.30299,2.72399 -4.64176,2.90439 -1.31978,0.18041 -2.63543,-0.38428 -3.94571,-1.69457 -1.3008,-1.30079 -1.86548,-2.61643 -1.69457,-3.94571 0.18989,-1.32928 1.16165,-2.87142 2.91819,-4.62796 l 12.74726,-12.74726 -5.48284,-5.48283 z m -45.66087,-44.09474 -4.52852,4.52852 -2.53427,-2.53426 -3.64601,3.64602 2.53426,2.53426 -6.76585,6.76585 c -2.01291,2.01291 -3.02333,3.86026 -3.03283,5.54085 0.009,1.68058 1.02131,3.52655 3.03421,5.53946 l 4.37246,4.37246 3.64602,-3.64602 -2.62127,-2.62127 c -0.87352,-0.87352 -1.32927,-1.58443 -1.36725,-2.13513 -0.0285,-0.56019 0.32697,-1.21085 1.06756,-1.95144 l 6.76585,-6.76586 5.25497,5.25497 3.64602,-3.64602 -5.25497,-5.25496 4.52853,-4.52853 -5.09891,-5.0989 z m 130.28857,130.28856 -4.52852,4.52853 -2.53565,-2.53564 -3.64602,3.64602 2.53565,2.53564 -6.76586,6.76585 c -2.0129,2.01291 -3.02332,3.86026 -3.03282,5.54085 0.009,1.68058 1.0213,3.52655 3.03421,5.53946 l 4.37246,4.37246 3.64602,-3.64602 -2.62127,-2.62127 c -0.87353,-0.87353 -1.32927,-1.58443 -1.36725,-2.13513 -0.0285,-0.56019 0.32696,-1.21085 1.06756,-1.95145 l 6.76585,-6.76585 5.25496,5.25497 3.64602,-3.64602 -5.25496,-5.25497 4.52852,-4.52852 -5.0989,-5.09891 z M 282.02641,93.539724 c -1.04444,-1.044433 -2.22249,-1.775366 -3.53277,-2.19314 -1.3008,-0.427265 -2.80133,-0.560536 -4.50091,-0.399122 l 2.33677,-2.336768 -5.0989,-5.098904 -15.95133,15.951332 5.0989,5.098908 7.84723,-7.847235 c 1.4527,-1.452701 2.89023,-2.282556 4.31446,-2.491447 1.43372,-0.218379 2.68341,0.20302 3.74683,1.266442 0.43676,0.436765 0.73059,0.922555 0.8825,1.454271 0.16142,0.522212 0.17712,1.048222 0.0442,1.579931 -0.0949,0.398787 -0.37721,0.887511 -0.84246,1.466702 -0.45574,0.588676 -1.37019,1.571826 -2.74694,2.948576 l -5.85435,5.85435 -1.57994,1.57994 5.12653,5.12652 9.71305,-9.71305 c 2.15533,-2.15532 3.31905,-4.27647 3.48996,-6.365338 0.1804,-2.079374 -0.65083,-4.039969 -2.49283,-5.881968 z m 89.9821,89.982106 c -2.75351,-2.75351 -5.64995,-4.16807 -8.6883,-4.24402 -3.02885,-0.0665 -5.85366,1.2105 -8.47424,3.83107 -2.62057,2.62058 -3.89753,5.44538 -3.83107,8.47424 0.0759,3.03835 1.49189,5.93341 4.2454,8.68692 2.744,2.744 5.62474,4.14562 8.6441,4.20258 3.02886,0.0665 5.85366,-1.21051 8.47423,-3.83108 2.62057,-2.62057 3.89755,-5.44538 3.83108,-8.47423 -0.057,-3.01936 -1.4572,-5.90148 -4.2012,-8.64548 z m 22.40368,22.40368 c -0.97797,-0.97797 -2.10303,-1.64727 -3.37533,-2.00807 -1.26282,-0.35131 -2.66011,-0.38999 -4.18878,-0.11463 l 2.33677,-2.33677 -5.12653,-5.12652 -15.95133,15.95133 5.12653,5.12652 7.84723,-7.84723 c 1.49068,-1.49069 2.90092,-2.36784 4.23021,-2.63369 1.33877,-0.27535 2.49817,0.0758 3.47614,1.05375 0.77858,0.77858 1.06239,1.57546 0.8535,2.39201 -0.19939,0.80706 -1.18253,2.09405 -2.94857,3.86009 l -8.3168,8.31679 5.12791,5.1279 7.83203,-7.83203 c 1.52863,-1.49073 2.95186,-2.37492 4.27164,-2.65027 1.32928,-0.26585 2.48006,0.0853 3.44853,1.05376 0.7406,0.74059 1.0201,1.53315 0.83969,2.37819 -0.1709,0.83555 -0.82156,1.8187 -1.95144,2.94858 -0.24687,0.24687 -0.44032,0.43183 -0.58279,0.55522 -0.13293,0.13293 -0.26613,0.25764 -0.39911,0.37152 l -8.31679,8.3168 5.12652,5.12652 9.71306,-9.71305 c 2.15532,-2.15533 3.31767,-4.27786 3.48858,-6.36672 0.17091,-2.08886 -0.65895,-4.04808 -2.49146,-5.88059 -1.06341,-1.06342 -2.30309,-1.78141 -3.71783,-2.1517 -1.39574,-0.37031 -2.9106,-0.38325 -4.54371,-0.0414 0.52222,-1.39575 0.62821,-2.78303 0.31489,-4.15978 -0.31334,-1.37676 -1.02131,-2.61506 -2.12271,-3.71645 z m 30.42079,30.42078 c -0.97798,-0.97797 -2.10304,-1.64727 -3.37534,-2.00807 -1.26282,-0.35131 -2.65872,-0.3886 -4.1874,-0.11325 l 2.33677,-2.33676 -5.1279,-5.12791 -15.95133,15.95133 5.1279,5.12791 7.84723,-7.84723 c 1.49069,-1.49069 2.89955,-2.36922 4.22883,-2.63508 1.33878,-0.27535 2.49818,0.0758 3.47615,1.05376 0.77857,0.77857 1.06377,1.57683 0.85487,2.39339 -0.19939,0.80706 -1.18253,2.09404 -2.94857,3.86008 l -8.3168,8.31679 5.12653,5.12652 7.83203,-7.83203 c 1.5287,-1.49066 2.95324,-2.37354 4.27303,-2.64889 1.32927,-0.26585 2.47867,0.0839 3.44714,1.05238 0.74061,0.7406 1.02148,1.53454 0.84107,2.37957 -0.1709,0.83556 -0.82156,1.8187 -1.95144,2.94858 -0.24687,0.24687 -0.44173,0.43042 -0.58421,0.5538 -0.13293,0.13293 -0.26612,0.25764 -0.3991,0.37153 l -8.31679,8.31679 5.12652,5.12653 9.71305,-9.71306 c 2.15533,-2.15532 3.31905,-4.27648 3.48996,-6.36534 0.1709,-2.08887 -0.66033,-4.04946 -2.49283,-5.88197 -1.06343,-1.06342 -2.30172,-1.78002 -3.71646,-2.15032 -1.39573,-0.37031 -2.91198,-0.38462 -4.54509,-0.0428 0.52222,-1.39573 0.62821,-2.78301 0.31488,-4.15977 -0.31333,-1.37675 -1.0213,-2.61505 -2.1227,-3.71645 z m 51.68508,51.68508 c -1.04443,-1.04442 -2.22248,-1.77536 -3.53277,-2.19313 -1.3008,-0.42727 -2.79995,-0.55916 -4.49952,-0.39774 l 2.33677,-2.33677 -5.09891,-5.0989 -15.95133,15.95133 5.09891,5.0989 7.84723,-7.84723 c 1.4527,-1.4527 2.89022,-2.28256 4.31445,-2.49145 1.43372,-0.21838 2.68341,0.20302 3.74683,1.26645 0.43676,0.43675 0.72921,0.92117 0.88112,1.45288 0.16142,0.52221 0.17713,1.04823 0.0442,1.57994 -0.0949,0.39879 -0.37582,0.88889 -0.84107,1.46808 -0.45575,0.58868 -1.37158,1.57044 -2.74833,2.94719 l -5.85435,5.85435 -1.57994,1.57994 5.12791,5.12791 9.71306,-9.71305 c 2.15532,-2.15533 3.31766,-4.27786 3.48857,-6.36673 0.18041,-2.07937 -0.65083,-4.03997 -2.49283,-5.88197 z m 99.61091,99.61091 c -1.1109,-1.11089 -2.3176,-1.87048 -3.6184,-2.27876 -1.2913,-0.41777 -2.75316,-0.51237 -4.38628,-0.2845 l 2.33677,-2.33677 -5.0989,-5.0989 -22.01975,22.01974 5.09891,5.09891 8.37479,-8.3748 c -0.22787,1.63312 -0.13759,3.09929 0.2707,4.40009 0.41777,1.2913 1.18305,2.49231 2.29394,3.60321 1.96544,1.96543 4.35744,2.80097 7.17742,2.50663 2.82946,-0.30384 5.47369,-1.68404 7.93285,-4.1432 2.45917,-2.45917 3.83505,-5.09908 4.1294,-7.91904 0.30382,-2.82947 -0.52602,-5.22717 -2.49145,-7.19261 z m 38.22658,38.22659 c -1.10141,-1.10141 -2.27514,-2.13185 -3.51896,-3.09084 -1.23433,-0.96847 -2.52995,-1.86565 -3.88772,-2.6917 l -3.8877,3.8877 c 1.24383,0.3703 2.44347,0.91634 3.60183,1.63795 1.15837,0.72161 2.2848,1.62742 3.37671,2.71933 1.34826,1.34826 2.15084,2.53201 2.4072,3.54796 0.26586,1.00646 -0.005,1.91365 -0.81207,2.72071 l -0.39775,0.39775 -3.0052,-3.00521 c -2.7535,-2.7535 -5.21422,-4.34001 -7.37905,-4.75779 -2.15532,-0.40827 -4.16754,0.32266 -6.03803,2.19314 -1.53816,1.53817 -2.27911,3.30525 -2.22213,5.29916 0.076,1.99392 0.94016,3.81555 2.59226,5.46765 1.22483,1.22484 2.48316,2.04743 3.77446,2.4652 1.30079,0.40828 2.77699,0.47129 4.42909,0.18645 l -2.36301,2.36301 5.14034,5.14033 9.09985,-9.09985 c 2.55411,-2.55412 3.75651,-5.0378 3.60459,-7.44949 -0.13293,-2.41168 -1.63778,-5.05453 -4.51471,-7.93146 z m 34.46592,34.46592 c -2.7535,-2.7535 -5.66427,-4.17376 -8.7311,-4.25921 -3.05734,-0.076 -5.88646,1.18806 -8.48805,3.78965 -2.64906,2.64906 -3.91171,5.50546 -3.78827,8.57228 0.14242,3.06685 1.65728,6.04356 4.54372,8.93 1.20584,1.20584 2.52872,2.2936 3.97195,3.26207 1.43371,0.97797 2.98294,1.84218 4.64453,2.59227 l 3.93052,-3.93052 c -1.83251,-0.54121 -3.47494,-1.21482 -4.92765,-2.02188 -1.43373,-0.80707 -2.68774,-1.74861 -3.76065,-2.82152 -1.32928,-1.32928 -2.06452,-2.66357 -2.20695,-4.00234 -0.14242,-1.33877 0.32334,-2.66736 1.39626,-3.98715 l 11.92,11.92 1.45288,-1.45288 c 2.52564,-2.52562 3.78827,-5.29604 3.78827,-8.31541 0.009,-3.00986 -1.23882,-5.76872 -3.74546,-8.27536 z M 261.20405,73.485238 245.25271,89.43657 l 5.09891,5.098902 15.95133,-15.951332 -5.0989,-5.098902 z m 183.55497,183.554972 -9.74205,9.74205 c -2.15533,2.15533 -3.31905,4.27648 -3.48996,6.36534 -0.16141,2.09837 0.67983,4.06898 2.52182,5.91098 1.03495,1.03494 2.19729,1.76155 3.48859,2.17932 1.31029,0.41777 2.81513,0.54673 4.51471,0.38532 l -2.30638,2.30638 5.0989,5.09891 15.95133,-15.95133 -5.0989,-5.09891 -7.87623,7.87623 c -1.45271,1.45271 -2.89161,2.28394 -4.31583,2.49283 -1.42423,0.20889 -2.66823,-0.21822 -3.73165,-1.28163 -0.43676,-0.43677 -0.73629,-0.91686 -0.8977,-1.43908 -0.15192,-0.51272 -0.16624,-1.04012 -0.0428,-1.58132 0.095,-0.41778 0.39015,-0.93947 0.88388,-1.56613 0.50322,-0.63616 1.39609,-1.59496 2.67789,-2.87676 0.43677,-0.43677 1.30953,-1.30104 2.61987,-2.59229 1.31976,-1.30081 2.41184,-2.38426 3.27587,-3.24829 l 1.59513,-1.59514 -5.12652,-5.12652 z m 41.75797,41.75797 -15.95133,15.95134 5.0989,5.0989 15.95134,-15.95133 -5.09891,-5.09891 z m 21.88993,21.88993 -9.45756,23.6715 -0.58419,0.2997 c -0.93048,0.49373 -1.73168,0.67861 -2.40581,0.55519 -0.66465,-0.11394 -1.42855,-0.60268 -2.29258,-1.4667 l -1.59513,-1.59514 -3.34771,3.34771 2.9472,2.9472 c 1.4717,1.47171 3.0109,2.29724 4.61553,2.47764 1.60462,0.19939 3.63117,-0.25066 6.08084,-1.35206 l 24.17007,-10.75438 -5.0989,-5.0989 -14.47083,7.17879 6.53797,-15.11164 -5.0989,-5.09891 z m 136.99641,143.00682 c 0.91151,0.91151 1.34862,1.94765 1.31063,3.10602 -0.019,1.15838 -0.51341,2.22042 -1.48187,3.18889 l -6.62223,-6.62223 c 1.19635,-0.8925 2.37734,-1.30527 3.5452,-1.23881 1.17736,0.057 2.26081,0.57867 3.24827,1.56613 z M 368.36249,187.16785 c 1.11089,1.11089 1.55233,2.36921 1.32445,3.77445 -0.21839,1.39573 -1.0926,2.8576 -2.62128,4.38627 -1.52867,1.52867 -2.99484,2.4072 -4.40007,2.63508 -1.39574,0.21838 -2.64838,-0.22874 -3.75927,-1.33963 -1.12989,-1.12989 -1.59133,-2.39685 -1.38245,-3.80209 0.22787,-1.40524 1.1064,-2.87141 2.63507,-4.40008 1.52867,-1.52867 2.99054,-2.40289 4.38628,-2.62127 1.41473,-0.21838 2.68738,0.23738 3.81727,1.36727 z m 202.16899,202.28227 c 1.09191,1.0919 1.52471,2.32157 1.29683,3.68882 -0.21838,1.37676 -1.08828,2.82567 -2.60746,4.34485 -1.51917,1.51918 -2.9667,2.38769 -4.34346,2.60607 -1.36725,0.22788 -2.59693,-0.20491 -3.68883,-1.29682 -1.09191,-1.09191 -1.53333,-2.33021 -1.32444,-3.71645 0.22787,-1.38626 1.09639,-2.83378 2.60607,-4.34346 1.50968,-1.50968 2.9529,-2.3739 4.32965,-2.59227 1.39574,-0.21838 2.63973,0.21735 3.73164,1.30926 z m 19.91086,19.91085 c 1.0919,1.09191 1.5247,2.32157 1.29682,3.68883 -0.21837,1.37676 -1.08828,2.82567 -2.60745,4.34484 -1.51918,1.51918 -2.96671,2.3877 -4.34346,2.60607 -1.36726,0.22788 -2.59693,-0.20491 -3.68884,-1.29682 -1.08241,-1.08241 -1.51519,-2.31207 -1.29682,-3.68883 0.22788,-1.36726 1.10209,-2.80909 2.62127,-4.32827 1.51917,-1.51917 2.96239,-2.39477 4.32965,-2.62265 1.37676,-0.21837 2.60641,0.21442 3.68883,1.29683 z m -67.26629,-62.93526 -4.14459,4.14458 8.9438,8.9438 4.14458,-4.14458 -8.94379,-8.9438 z m 82.37656,88.95596 2.65027,2.65027 -0.58419,0.58419 c -1.03495,1.03495 -2.22733,1.57097 -3.57559,1.60895 -1.33878,0.0285 -2.48679,-0.43728 -3.44577,-1.39626 -0.76908,-0.76908 -1.19186,-1.55301 -1.26782,-2.35058 -0.057,-0.79757 0.23686,-1.51848 0.8825,-2.16413 0.70263,-0.70262 1.50088,-0.96779 2.3934,-0.79687 0.902,0.18039 1.88377,0.80101 2.9472,1.86443 z m -293.98793,-290.65679 -5.51185,5.51184 5.12791,5.1279 5.51184,-5.51184 -5.1279,-5.1279 z m 156.29545,196.94305 c -1.15837,-1.15837 -2.45105,-2.23043 -3.87527,-3.21789 -1.41473,-0.99696 -2.94254,-1.90847 -4.58514,-2.73452 l -4.67078,4.67078 c 1.87998,0.43675 3.50671,0.9828 4.88345,1.63794 1.38625,0.64565 2.50699,1.39661 3.36152,2.25114 1.1109,1.1109 1.69423,2.3019 1.7512,3.57421 0.0665,1.28181 -0.39792,2.4198 -1.39488,3.41676 -0.64565,0.64565 -1.4339,1.1014 -2.36439,1.36725 -0.9305,0.26587 -2.05556,0.36754 -3.37533,0.30108 l -14.61307,-0.91289 -4.02996,4.02996 15.45276,15.45277 4.02996,-4.02996 -9.35673,-9.35673 8.53223,0.55519 c 3.59855,0.23737 6.19409,0.15571 7.78923,-0.24307 1.60462,-0.40828 2.98622,-1.19083 4.14458,-2.3492 2.00341,-2.00341 2.85899,-4.27216 2.56464,-6.80728 -0.28485,-2.52563 -1.6994,-5.06092 -4.24402,-7.60554 z m 20.86379,20.86379 c -2.80098,-2.80098 -5.92098,-4.00061 -9.35811,-3.60183 -3.42764,0.3893 -6.90742,2.34989 -10.4395,5.88197 -3.52259,3.52259 -5.48318,7.00236 -5.88196,10.43949 -0.38929,3.42763 0.81741,6.54057 3.61839,9.34155 2.79149,2.79149 5.90011,3.99387 9.32774,3.60458 3.43713,-0.39878 6.9169,-2.35937 10.43949,-5.88196 3.53208,-3.53208 5.49268,-7.01185 5.88197,-10.4395 0.39878,-3.43712 -0.79653,-6.55281 -3.58802,-9.3443 z m -52.0842,-52.02622 c -2.49714,-2.49714 -5.17866,-3.80277 -8.0461,-3.91671 -2.85795,-0.10445 -5.43192,0.98764 -7.72018,3.2759 -2.06987,2.06987 -3.07598,4.40595 -3.01901,7.00753 0.076,2.6016 1.20101,4.99067 3.37533,7.16499 0.85453,0.85453 1.76605,1.52815 2.73452,2.02188 0.96847,0.49374 2.01325,0.82485 3.13364,0.99575 -1.94644,1.62361 -3.83108,2.4362 -5.65409,2.4362 -1.81352,-0.009 -3.53761,-0.83071 -5.17073,-2.46382 -0.77857,-0.77858 -1.46651,-1.66711 -2.06469,-2.66408 -0.58868,-1.00645 -1.11607,-2.15015 -1.58132,-3.43196 l -3.93052,3.93052 c 0.57919,1.16787 1.25419,2.27859 2.02326,3.33252 0.75959,1.06342 1.63812,2.09388 2.63508,3.09083 3.09532,3.09532 6.53072,4.5299 10.30967,4.30203 3.78845,-0.23737 7.43879,-2.11338 10.95188,-5.62647 3.41814,-3.41814 5.30416,-6.82059 5.65547,-10.21024 0.3513,-3.38966 -0.85972,-6.47238 -3.63221,-9.24487 z m -38.31221,-37.59957 -11.96281,11.96281 c 1.45272,0.59818 2.72537,1.2459 3.81727,1.93901 1.1014,0.68364 2.04589,1.41888 2.83396,2.20695 1.32928,1.32928 2.05157,2.69654 2.16551,4.10178 0.12343,1.41473 -0.37531,2.68169 -1.4957,3.80208 -1.11089,1.11089 -2.37785,1.60963 -3.80207,1.49569 -1.40524,-0.11393 -2.77388,-0.83485 -4.10316,-2.16412 -0.921,-0.921 -1.73789,-2.07041 -2.45002,-3.44716 -0.70261,-1.36726 -1.30026,-2.96239 -1.794,-4.7854 l -4.31584,4.31584 c 0.69313,1.6426 1.51434,3.1661 2.46383,4.57133 0.94948,1.42424 2.02861,2.73849 3.23445,3.94434 2.79148,2.79148 5.61923,4.32067 8.48667,4.58652 2.87694,0.27535 5.46523,-0.73645 7.76298,-3.0342 2.31674,-2.31675 3.40019,-4.84203 3.24828,-7.57654 -0.14243,-2.74402 -1.51107,-5.41121 -4.10316,-8.00329 -0.45576,-0.45576 -0.93013,-0.86423 -1.42388,-1.22501 -0.47476,-0.36078 -0.9778,-0.69468 -1.50951,-0.99851 l 3.2897,-3.28971 9.25868,9.25868 4.02996,-4.02995 -13.63114,-13.63114 z m 108.36964,108.36963 -5.96622,-3.9167 -3.73164,3.73164 5.99522,3.94571 -13.74301,13.74301 -4.84203,-4.84202 -3.78826,3.78826 14.86858,14.86859 3.78827,-3.78827 -4.84203,-4.84203 17.47465,-17.47465 -5.21353,-5.21354 z m 13.99988,13.99989 -4.02995,4.02996 10.24062,10.24062 -25.08019,9.38574 5.34059,5.34058 26.46126,-9.88292 3.09083,-3.09083 -16.02316,-16.02315 z m -87.53208,-81.35043 c 0.95898,0.95898 1.36744,1.99237 1.22501,3.10327 -0.14242,1.11088 -0.83175,2.28463 -2.06608,3.51896 -1.24383,1.24382 -2.42049,1.93608 -3.53139,2.0785 -1.10139,0.13293 -2.13047,-0.27983 -3.08945,-1.23881 -0.95898,-0.95898 -1.37312,-1.98943 -1.2402,-3.09084 0.14242,-1.1109 0.83469,-2.28756 2.07851,-3.53138 1.23433,-1.23433 2.40806,-1.92367 3.51896,-2.06608 1.1109,-0.14243 2.14566,0.2674 3.10464,1.22638 z m 51.81214,52.35353 c 1.17736,1.17736 1.46687,2.55894 0.8687,4.14458 -0.57919,1.58564 -2.19728,3.70817 -4.85584,6.36673 -2.68704,2.68703 -4.83252,4.32808 -6.43716,4.92626 -1.60463,0.59818 -2.99191,0.31437 -4.15978,-0.85349 -1.17736,-1.17736 -1.46548,-2.56896 -0.8673,-4.17359 0.59818,-1.60463 2.24061,-3.74874 4.92764,-6.43578 2.65856,-2.65856 4.77971,-4.27803 6.36535,-4.85721 1.59514,-0.58868 2.98103,-0.29486 4.15839,0.8825 z M 339.7357,224.16942 c -2.7535,-2.7535 -5.64994,-4.16806 -8.6883,-4.24402 -3.02885,-0.0665 -5.85365,1.21051 -8.47422,3.83108 -2.62058,2.62058 -3.89755,5.44538 -3.83109,8.47423 0.076,3.03836 1.4919,5.93342 4.2454,8.68692 2.74401,2.74402 5.62474,4.14562 8.64411,4.20259 3.02886,0.0665 5.85366,-1.21051 8.47423,-3.83108 2.62057,-2.62057 3.89755,-5.44538 3.83108,-8.47423 -0.057,-3.01937 -1.45719,-5.90148 -4.20121,-8.64549 z m 22.40231,22.4023 c -0.97798,-0.97797 -2.10303,-1.64727 -3.37534,-2.00807 -1.26281,-0.35131 -2.65872,-0.38859 -4.18739,-0.11324 l 2.33677,-2.33677 -5.12653,-5.12652 -15.95133,15.95133 5.12653,5.12652 7.84723,-7.84723 c 1.49068,-1.49068 2.90092,-2.36784 4.2302,-2.63369 1.33878,-0.27535 2.49679,0.0744 3.47476,1.05237 0.77859,0.77858 1.06378,1.57683 0.85489,2.39339 -0.19939,0.80707 -1.18254,2.09404 -2.94858,3.86008 l -8.31679,8.3168 5.1279,5.1279 7.83204,-7.83204 c 1.5287,-1.49065 2.95186,-2.37491 4.27164,-2.65026 1.32928,-0.26586 2.48006,0.0853 3.44853,1.05375 0.7406,0.7406 1.0201,1.53316 0.83969,2.3782 -0.1709,0.83555 -0.82156,1.81869 -1.95145,2.94858 -0.24686,0.24686 -0.44031,0.43183 -0.58279,0.55521 -0.13293,0.13293 -0.26754,0.25623 -0.40052,0.37012 l -8.31679,8.31679 5.12791,5.12791 9.71305,-9.71305 c 2.15533,-2.15533 3.31767,-4.27787 3.48858,-6.36673 0.1709,-2.08886 -0.66033,-4.04946 -2.49283,-5.88196 -1.06342,-1.06343 -2.30172,-1.78003 -3.71645,-2.15033 -1.39574,-0.3703 -2.9106,-0.38324 -4.54372,-0.0414 0.52222,-1.39574 0.62821,-2.78302 0.31488,-4.15978 -0.31333,-1.37675 -1.02268,-2.61643 -2.12408,-3.71783 z m -51.41302,-50.64513 -9.68543,22.21723 5.59747,5.59747 22.23243,-9.67024 -5.11272,-5.11271 -14.98319,7.06416 7.05034,-14.99702 -5.0989,-5.09889 z m 25.36469,31.88885 c 1.1109,1.1109 1.55233,2.36922 1.32445,3.77446 -0.21838,1.39574 -1.09259,2.8576 -2.62127,4.38627 -1.52867,1.52868 -2.99484,2.4072 -4.40008,2.63508 -1.39574,0.21838 -2.64837,-0.22874 -3.75927,-1.33964 -1.12989,-1.12988 -1.59133,-2.39685 -1.38244,-3.80207 0.22788,-1.40524 1.1064,-2.87142 2.63507,-4.40009 1.52868,-1.52867 2.99054,-2.40289 4.38628,-2.62126 1.41473,-0.21839 2.68738,0.23736 3.81726,1.36725 z m 66.65448,81.0093 -5.51184,5.51184 5.12653,5.12652 5.51184,-5.51184 -5.12653,-5.12652 z m 31.33229,31.33229 -5.51184,5.51184 5.12791,5.1279 5.51184,-5.51184 -5.12791,-5.1279 z"
         style="font-style:normal;font-variant:normal;font-weight:bold;font-stretch:normal;font-size:41.25px;line-height:125%;font-family:sans-serif;-inkscape-font-specification:'sans-serif Bold';text-align:center;letter-spacing:0px;word-spacing:0px;text-anchor:middle;fill:#ffffff;fill-opacity:1;stroke:none;stroke-width:1px;stroke-linecap:butt;stroke-linejoin:miter;stroke-opacity:1"
         inkscape:connector-curvature="0" />
    </g>
  </g>
</svg>
