<?xml version="1.0" encoding="utf-8"?>
<!-- Generator: Adobe Illustrator 16.0.4, SVG Export Plug-In . SVG Version: 6.00 Build 0)  -->
<!DOCTYPE svg PUBLIC "-//W3C//DTD SVG 1.1//EN" "http://www.w3.org/Graphics/SVG/1.1/DTD/svg11.dtd">
<svg version="1.1" id="Ebene_1" xmlns="http://www.w3.org/2000/svg" xmlns:xlink="http://www.w3.org/1999/xlink" x="0px" y="0px"
	 width="431px" height="456px" viewBox="0 0 431 456" enable-background="new 0 0 431 456" xml:space="preserve">
<g>
	<circle opacity="0.3" fill="#88C84B" cx="296.829" cy="345.006" r="110.702"/>
	<path opacity="0.3" fill="#00ABD0" d="M247.735,259.495c0,68.41-55.455,123.867-123.866,123.867
		C55.456,383.362,0,327.905,0,259.495c0-68.412,55.456-123.871,123.869-123.871C192.28,135.624,247.735,191.083,247.735,259.495z"/>
	<path opacity="0.4" fill="#A3C0DD" d="M430.609,155.376c0,85.812-69.562,155.375-155.375,155.375s-155.377-69.563-155.377-155.375
		C119.857,69.562,189.421,0,275.234,0S430.609,69.562,430.609,155.376z"/>
	<circle fill="#00ABD0" cx="236.74" cy="258.655" r="75.92"/>
	<g>
		<path fill="#8891AE" d="M219.237,120.187l0.813-23.625l1.525-0.269l-0.797,23.622L219.237,120.187z"/>
		<path fill="#8891AE" d="M237.399,116.984l0.42-11.188c0.05-0.994,0.017-1.822-0.101-2.487c-0.146-0.831-0.487-1.44-1.021-1.828
			s-1.273-0.498-2.219-0.332c-1.163,0.205-2.194,0.747-3.095,1.622c-0.9,0.877-1.59,2.002-2.07,3.376
			c-0.48,1.376-0.756,2.958-0.826,4.747l-0.278,7.711l-1.526,0.27l0.613-17.566l1.277-0.226l0.03,3.544l0.094-0.016
			c1.267-2.772,3.209-4.39,5.825-4.851c1.351-0.238,2.421-0.084,3.213,0.461c0.793,0.546,1.299,1.441,1.519,2.688
			c0.128,0.728,0.17,1.695,0.126,2.901l-0.454,10.905L237.399,116.984z"/>
		<path fill="#8891AE" d="M242.614,123.966c-0.499,0.088-1.046,0.083-1.642-0.016l-0.247-1.402c0.579,0.07,1.113,0.061,1.602-0.025
			c0.913-0.161,1.561-0.559,1.941-1.193c0.38-0.635,0.6-1.67,0.657-3.104l0.63-18.837l-3.193,0.563l0.033-1.082l3.155-0.781
			l0.106-2.59c0.056-1.808,0.437-3.181,1.144-4.12c0.707-0.938,1.819-1.541,3.335-1.809c0.758-0.134,1.648-0.124,2.671,0.027
			l-0.169,1.314c-0.953-0.12-1.741-0.127-2.364-0.017c-0.997,0.176-1.744,0.595-2.244,1.254c-0.499,0.661-0.774,1.666-0.826,3.013
			l-0.095,2.652l3.863-0.682l-0.027,1.306l-3.862,0.682l-0.657,19.227c-0.048,1.732-0.373,3.047-0.976,3.939
			S243.901,123.739,242.614,123.966z"/>
		<path fill="#8891AE" d="M259.372,95.314c1.869-0.329,3.414-0.022,4.636,0.925s2.007,2.411,2.357,4.396
			c0.36,2.045,0.326,4.023-0.102,5.936c-0.429,1.912-1.205,3.448-2.327,4.61c-1.123,1.161-2.525,1.891-4.207,2.188
			c-1.912,0.337-3.463,0.024-4.655-0.938c-1.192-0.962-1.976-2.502-2.349-4.62c-0.35-1.983-0.298-3.91,0.154-5.777
			c0.451-1.867,1.239-3.383,2.362-4.545C256.365,96.326,257.741,95.602,259.372,95.314z M259.483,96.675
			c-1.287,0.228-2.373,0.84-3.258,1.837c-0.885,0.996-1.499,2.308-1.844,3.938c-0.344,1.63-0.366,3.296-0.065,4.999
			c0.626,3.552,2.403,5.068,5.332,4.553c1.318-0.232,2.419-0.842,3.3-1.826c0.88-0.985,1.487-2.313,1.818-3.983
			c0.332-1.67,0.334-3.438,0.004-5.31c-0.281-1.598-0.878-2.762-1.788-3.489C262.072,96.664,260.906,96.425,259.483,96.675z"/>
		<path fill="#8891AE" d="M277.882,92.083c0.717-0.127,1.368-0.166,1.955-0.12l-0.072,1.506c-0.516-0.069-1.116-0.044-1.801,0.077
			c-0.977,0.172-1.848,0.669-2.613,1.488c-0.765,0.82-1.384,1.957-1.855,3.41c-0.473,1.454-0.737,2.984-0.797,4.591l-0.236,7.767
			l-1.526,0.27l0.612-17.566l1.246-0.22l0.108,3.257l0.094-0.016c0.586-1.11,1.101-1.928,1.544-2.449
			c0.443-0.522,0.938-0.955,1.481-1.298C276.566,92.438,277.187,92.205,277.882,92.083z"/>
		<path fill="#8891AE" d="M292.602,107.251l0.439-10.903c0.03-1.344,0.013-2.207-0.056-2.592c-0.333-1.89-1.3-2.694-2.899-2.412
			c-1.101,0.194-2.077,0.728-2.93,1.6c-0.853,0.874-1.505,1.999-1.959,3.374s-0.709,2.958-0.77,4.745l-0.253,7.674l-1.526,0.27
			l0.613-17.566l1.246-0.22l0.062,3.361l0.094-0.017c0.623-1.319,1.41-2.368,2.36-3.146c0.949-0.778,2-1.269,3.152-1.472
			c1.101-0.194,2.009,0.005,2.724,0.596c0.714,0.592,1.204,1.55,1.47,2.874l0.094-0.017c0.563-1.481,1.324-2.661,2.282-3.543
			c0.958-0.881,2.05-1.43,3.275-1.646c1.215-0.214,2.219-0.062,3.012,0.457c0.792,0.519,1.294,1.375,1.505,2.57
			c0.053,0.301,0.092,0.596,0.116,0.887c0.024,0.289,0.032,0.928,0.024,1.915l-0.472,11.165l-1.559,0.275l0.454-11.002
			c0.039-1.291,0.008-2.229-0.095-2.811c-0.141-0.799-0.474-1.38-0.998-1.742s-1.181-0.476-1.97-0.336
			c-1.631,0.287-2.945,1.256-3.945,2.903c-0.999,1.649-1.543,3.686-1.629,6.109l-0.275,8.369L292.602,107.251z"/>
		<path fill="#8891AE" d="M311.512,103.916l-1.526,0.27l0.612-17.566l1.495-0.264L311.512,103.916z M310.501,82.155
			c-0.101-0.571-0.066-1.049,0.102-1.432s0.449-0.609,0.844-0.68c0.592-0.104,0.954,0.219,1.086,0.966
			c0.104,0.592,0.072,1.08-0.096,1.463c-0.168,0.382-0.434,0.605-0.797,0.669c-0.303,0.054-0.551-0.006-0.747-0.18
			C310.695,82.787,310.565,82.519,310.501,82.155z"/>
		<path fill="#8891AE" d="M323.56,102.113c-1.796,0.316-3.299-0.005-4.506-0.965c-1.208-0.959-1.991-2.456-2.35-4.492
			c-0.332-1.88-0.281-3.746,0.152-5.601c0.434-1.854,1.207-3.402,2.32-4.648s2.448-2.006,4.006-2.281
			c1.185-0.209,2.186-0.058,3.003,0.45c0.817,0.51,1.323,1.31,1.516,2.399c0.331,1.88-0.266,3.462-1.789,4.748
			c-1.523,1.287-3.958,2.225-7.301,2.813l-0.515,0.091c0.019,0.469,0.076,0.982,0.176,1.543c0.302,1.714,0.916,2.951,1.844,3.714
			c0.926,0.763,2.111,1.018,3.555,0.763c1.371-0.242,2.737-0.873,4.099-1.895l0.258,1.464
			C326.7,101.188,325.212,101.821,323.56,102.113z M323.232,85.499c-1.36,0.24-2.519,1.063-3.476,2.469
			c-0.956,1.405-1.518,3.155-1.684,5.251l0.764-0.135c5.368-0.946,7.805-2.821,7.311-5.626c-0.123-0.695-0.449-1.229-0.98-1.602
			S323.99,85.365,323.232,85.499z"/>
		<path fill="#8891AE" d="M338.723,81.354c0.717-0.126,1.368-0.165,1.955-0.119l-0.072,1.506c-0.516-0.069-1.116-0.044-1.801,0.076
			c-0.978,0.173-1.847,0.669-2.612,1.489s-1.385,1.957-1.856,3.41c-0.473,1.454-0.737,2.983-0.797,4.59l-0.236,7.768l-1.526,0.269
			l0.612-17.566l1.246-0.219l0.108,3.257l0.094-0.017c0.586-1.11,1.1-1.927,1.544-2.449c0.442-0.521,0.937-0.954,1.481-1.297
			C337.406,81.71,338.027,81.478,338.723,81.354z"/>
		<path fill="#8891AE" d="M349.728,97.499c-1.796,0.316-3.299-0.005-4.506-0.965c-1.208-0.959-1.991-2.456-2.35-4.492
			c-0.332-1.88-0.281-3.746,0.152-5.601c0.434-1.854,1.207-3.402,2.32-4.648s2.449-2.006,4.007-2.281
			c1.184-0.208,2.185-0.058,3.002,0.45c0.818,0.51,1.323,1.31,1.516,2.399c0.331,1.88-0.266,3.462-1.789,4.748
			c-1.523,1.287-3.958,2.225-7.301,2.813l-0.515,0.091c0.019,0.469,0.076,0.982,0.176,1.543c0.302,1.714,0.916,2.951,1.844,3.714
			c0.926,0.763,2.111,1.018,3.555,0.763c1.371-0.241,2.737-0.873,4.099-1.895l0.258,1.464
			C352.868,96.574,351.38,97.208,349.728,97.499z M349.4,80.885c-1.36,0.24-2.519,1.063-3.476,2.469
			c-0.956,1.405-1.518,3.155-1.684,5.251l0.764-0.135c5.368-0.946,7.806-2.821,7.311-5.626c-0.122-0.695-0.449-1.229-0.98-1.601
			C350.804,80.87,350.158,80.751,349.4,80.885z"/>
		<path fill="#8891AE" d="M267.788,126.786c2.389-0.421,4.038,0.461,4.948,2.645l0.062-0.011c0.004-0.706,0.132-4.321,0.385-10.844
			l1.542-0.272l-0.866,25.145l-1.277,0.225l-0.053-4.393l-0.093,0.017c-1.259,3.371-3.19,5.285-5.797,5.745
			c-2.918,0.515-4.72-1.171-5.404-5.054c-0.354-2.005-0.32-3.991,0.098-5.96c0.419-1.969,1.188-3.596,2.312-4.881
			S266.147,127.075,267.788,126.786z M266.75,143.576c0.924-0.163,1.794-0.65,2.608-1.464s1.492-1.832,2.031-3.056
			c0.539-1.225,0.88-2.521,1.024-3.891c0.144-1.369,0.139-2.49-0.015-3.362c-0.231-1.309-0.734-2.299-1.512-2.97
			s-1.721-0.909-2.832-0.714c-1.287,0.228-2.375,0.863-3.262,1.908c-0.886,1.046-1.516,2.455-1.888,4.229
			c-0.373,1.773-0.405,3.531-0.098,5.275C263.349,142.597,264.663,143.944,266.75,143.576z"/>
		<path fill="#8891AE" d="M280.977,142.192l-1.526,0.27l0.613-17.566l1.495-0.264L280.977,142.192z M279.966,120.432
			c-0.101-0.571-0.066-1.048,0.102-1.432c0.168-0.383,0.449-0.609,0.844-0.679c0.592-0.104,0.954,0.218,1.086,0.965
			c0.104,0.592,0.072,1.08-0.096,1.463c-0.168,0.382-0.434,0.606-0.798,0.67c-0.301,0.054-0.55-0.008-0.746-0.181
			C280.16,121.063,280.03,120.795,279.966,120.432z"/>
		<path fill="#8891AE" d="M293.149,140.367c-1.807,0.318-3.333-0.004-4.579-0.968c-1.246-0.963-2.048-2.463-2.407-4.498
			c-0.354-2.004-0.303-3.947,0.152-5.833c0.455-1.884,1.25-3.4,2.386-4.548c1.136-1.148,2.561-1.873,4.274-2.176
			c1.391-0.245,2.682-0.241,3.872,0.009l-0.189,1.479c-1.197-0.292-2.372-0.337-3.524-0.134c-1.34,0.236-2.477,0.85-3.41,1.838
			c-0.934,0.99-1.574,2.291-1.922,3.905c-0.347,1.614-0.36,3.328-0.04,5.146c0.289,1.641,0.894,2.837,1.813,3.59
			c0.921,0.755,2.081,1.007,3.482,0.76c0.737-0.13,1.409-0.317,2.014-0.563c0.604-0.245,1.244-0.605,1.921-1.078l0.253,1.434
			C296.146,139.533,294.779,140.08,293.149,140.367z"/>
		<path fill="#8891AE" d="M311.382,136.831l0.419-11.188c0.05-0.993,0.017-1.822-0.101-2.487c-0.146-0.831-0.486-1.439-1.021-1.828
			c-0.534-0.388-1.274-0.498-2.219-0.331c-1.163,0.205-2.195,0.746-3.095,1.622c-0.9,0.877-1.59,2.004-2.069,3.384
			s-0.755,2.96-0.827,4.739l-0.278,7.711l-1.526,0.269l0.897-25.149l1.495-0.264l-0.211,6.638c-0.091,2.159-0.178,3.668-0.262,4.528
			l0.094-0.017c0.604-1.316,1.41-2.397,2.424-3.245c1.012-0.849,2.146-1.384,3.402-1.605c1.287-0.227,2.344-0.064,3.169,0.485
			c0.825,0.552,1.347,1.439,1.562,2.664c0.128,0.728,0.17,1.694,0.126,2.901l-0.455,10.905L311.382,136.831z"/>
		<path fill="#8891AE" d="M318.374,134.683c-0.103-0.582-0.054-1.064,0.146-1.448c0.2-0.382,0.529-0.614,0.986-0.695
			c0.686-0.121,1.094,0.192,1.225,0.94c0.098,0.551,0.048,1.028-0.148,1.432c-0.196,0.404-0.518,0.646-0.964,0.725
			C318.923,135.759,318.508,135.44,318.374,134.683z M320.112,129.236l-0.966,0.17l0.183-17.458l1.853-0.326L320.112,129.236z"/>
	</g>
	<g>
		<path fill="#00ABD0" d="M63.274,244.925l6.323-1.115l-0.463,11.035c-2.058,1.145-4.094,1.894-6.108,2.249
			c-2.669,0.471-4.863,0.076-6.584-1.184c-1.722-1.26-2.834-3.318-3.337-6.173c-0.485-2.753-0.384-5.358,0.307-7.82
			c0.69-2.461,1.855-4.463,3.494-6.004c1.64-1.542,3.586-2.512,5.84-2.908c1.174-0.207,2.245-0.295,3.214-0.262
			c0.97,0.032,1.979,0.17,3.028,0.413l-0.334,1.569c-1.227-0.277-2.267-0.426-3.122-0.445c-0.854-0.021-1.739,0.049-2.652,0.21
			c-1.911,0.337-3.572,1.206-4.986,2.604c-1.412,1.401-2.403,3.19-2.972,5.368c-0.569,2.178-0.635,4.507-0.197,6.989
			c0.419,2.377,1.337,4.101,2.75,5.168c1.414,1.067,3.223,1.407,5.424,1.02c1.609-0.284,3.171-0.812,4.685-1.581l0.377-8.515
			l-4.719,0.832L63.274,244.925z"/>
		<path fill="#00ABD0" d="M80.721,253.974c-1.796,0.317-3.299-0.004-4.506-0.964c-1.208-0.96-1.991-2.457-2.35-4.493
			c-0.332-1.879-0.281-3.745,0.152-5.599s1.207-3.404,2.32-4.649c1.113-1.246,2.449-2.006,4.007-2.28
			c1.184-0.209,2.184-0.058,3.002,0.45c0.818,0.51,1.323,1.309,1.516,2.399c0.331,1.879-0.266,3.461-1.789,4.748
			c-1.523,1.285-3.958,2.223-7.301,2.812l-0.515,0.091c0.019,0.468,0.076,0.982,0.176,1.543c0.302,1.714,0.916,2.951,1.844,3.714
			c0.926,0.763,2.111,1.017,3.555,0.763c1.371-0.242,2.737-0.874,4.099-1.896l0.258,1.464
			C83.861,253.051,82.372,253.683,80.721,253.974z M80.394,237.36c-1.36,0.239-2.519,1.062-3.476,2.469
			c-0.956,1.404-1.518,3.156-1.685,5.25l0.764-0.134c5.369-0.947,7.807-2.821,7.312-5.625c-0.122-0.695-0.449-1.23-0.981-1.602
			C81.796,237.347,81.151,237.227,80.394,237.36z"/>
		<path fill="#00ABD0" d="M99.716,250.304l0.42-11.188c0.051-0.994,0.017-1.823-0.101-2.487c-0.146-0.83-0.487-1.44-1.021-1.828
			c-0.535-0.387-1.274-0.498-2.219-0.332c-1.164,0.205-2.195,0.746-3.096,1.622c-0.899,0.877-1.59,2.005-2.068,3.385
			c-0.479,1.381-0.755,2.96-0.827,4.738l-0.278,7.711L89,252.193l0.897-25.148l1.495-0.264l-0.211,6.638
			c-0.091,2.157-0.178,3.666-0.262,4.526l0.094-0.017c0.604-1.315,1.41-2.396,2.423-3.245s2.146-1.383,3.403-1.604
			c1.287-0.227,2.344-0.065,3.169,0.486c0.825,0.55,1.346,1.438,1.562,2.663c0.128,0.727,0.17,1.694,0.125,2.901l-0.454,10.904
			L99.716,250.304z"/>
		<path fill="#00ABD0" d="M45.153,292.816l-2.819-10.521c-0.555-2.3-0.871-3.669-0.948-4.105l-0.094,0.017
			c-0.185,1.019-0.667,2.655-1.446,4.913l-3.728,11.289l-1.822,0.321l-3.297-16.876l1.434-0.253l2.457,12.752l0.385,2.455
			l0.094-0.017c0.388-1.504,0.895-3.184,1.521-5.039l3.939-11.632l1.199-0.212l2.868,10.432c0.414,1.502,0.759,3.03,1.033,4.589
			l0.094-0.017l0.206-1.016l0.925-3.954l3.114-11.486l1.495-0.264l-4.928,18.326L45.153,292.816z"/>
		<path fill="#00ABD0" d="M60.968,272.297c2.41-0.425,4.059,0.458,4.948,2.645l0.093-0.017l0.365-3.309l1.246-0.219l-0.582,17.561
			l-1.277,0.225l-0.052-4.392l-0.093,0.017c-0.612,1.629-1.384,2.932-2.314,3.91c-0.931,0.977-2.092,1.589-3.483,1.834
			c-2.917,0.515-4.719-1.17-5.403-5.054c-0.36-2.046-0.315-4.066,0.135-6.062c0.451-1.996,1.239-3.615,2.364-4.858
			C58.038,273.336,59.39,272.575,60.968,272.297z M59.93,289.086c0.925-0.163,1.79-0.646,2.595-1.453
			c0.806-0.805,1.479-1.812,2.021-3.021c0.542-1.209,0.89-2.502,1.044-3.878c0.152-1.376,0.149-2.516-0.01-3.42
			c-0.145-0.82-0.409-1.53-0.793-2.132c-0.385-0.603-0.875-1.044-1.472-1.331c-0.597-0.285-1.289-0.359-2.079-0.221
			c-1.287,0.228-2.375,0.859-3.264,1.893c-0.888,1.036-1.516,2.461-1.88,4.275c-0.365,1.815-0.399,3.563-0.104,5.246
			c0.278,1.579,0.743,2.693,1.394,3.344S58.881,289.271,59.93,289.086z M57.694,268.666c-0.09-0.509-0.055-0.932,0.105-1.271
			c0.159-0.339,0.427-0.542,0.8-0.607c0.562-0.1,0.9,0.185,1.018,0.849c0.088,0.499,0.049,0.919-0.116,1.258
			s-0.424,0.54-0.777,0.603C58.152,269.598,57.81,269.32,57.694,268.666z M63.053,267.722c-0.09-0.509-0.055-0.932,0.105-1.271
			c0.159-0.338,0.427-0.541,0.8-0.607c0.561-0.099,0.899,0.185,1.017,0.849c0.088,0.499,0.05,0.919-0.115,1.258
			c-0.165,0.34-0.424,0.54-0.777,0.603C63.511,268.652,63.168,268.376,63.053,267.722z"/>
		<path fill="#00ABD0" d="M83.347,286.082l0.42-11.188c0.05-0.994,0.017-1.822-0.101-2.486c-0.146-0.831-0.487-1.441-1.021-1.829
			c-0.535-0.387-1.274-0.498-2.22-0.332c-1.163,0.205-2.194,0.747-3.095,1.622c-0.9,0.877-1.59,2.006-2.069,3.385
			c-0.479,1.381-0.754,2.96-0.827,4.738l-0.277,7.711l-1.527,0.27l0.897-25.148l1.496-0.264l-0.211,6.638
			c-0.091,2.157-0.178,3.666-0.262,4.527l0.094-0.017c0.603-1.316,1.41-2.397,2.423-3.246c1.013-0.847,2.146-1.382,3.402-1.604
			c1.288-0.228,2.344-0.066,3.17,0.485c0.825,0.55,1.346,1.438,1.562,2.663c0.128,0.727,0.171,1.694,0.126,2.901l-0.454,10.904
			L83.347,286.082z"/>
		<path fill="#00ABD0" d="M91.898,284.574l-1.464,0.258l0.929-25.153l1.464-0.258L91.898,284.574z"/>
		<path fill="#00ABD0" d="M104.009,282.76c-1.796,0.316-3.299-0.004-4.506-0.965c-1.208-0.959-1.991-2.456-2.35-4.492
			c-0.332-1.879-0.281-3.745,0.152-5.599c0.434-1.854,1.207-3.404,2.32-4.648c1.113-1.247,2.449-2.007,4.006-2.281
			c1.184-0.209,2.185-0.059,3.003,0.45c0.817,0.509,1.323,1.308,1.516,2.399c0.331,1.879-0.266,3.461-1.789,4.747
			s-3.958,2.225-7.302,2.814l-0.514,0.091c0.018,0.467,0.076,0.98,0.176,1.541c0.302,1.715,0.916,2.952,1.844,3.715
			c0.926,0.763,2.111,1.017,3.555,0.762c1.371-0.241,2.737-0.873,4.099-1.895l0.258,1.464
			C107.149,281.837,105.66,282.469,104.009,282.76z M103.682,266.146c-1.361,0.24-2.519,1.063-3.476,2.469s-1.518,3.156-1.685,5.251
			l0.764-0.135c5.369-0.946,7.806-2.821,7.312-5.624c-0.123-0.695-0.449-1.23-0.981-1.602
			C105.084,266.132,104.439,266.013,103.682,266.146z"/>
		<path fill="#00ABD0" d="M123.004,279.089l0.42-11.188c0.05-0.993,0.017-1.822-0.101-2.486c-0.146-0.831-0.487-1.44-1.021-1.828
			s-1.273-0.499-2.219-0.332c-1.163,0.205-2.194,0.746-3.095,1.622c-0.899,0.877-1.59,2.002-2.07,3.377
			c-0.48,1.374-0.755,2.957-0.825,4.746l-0.279,7.711l-1.525,0.269l0.612-17.565l1.277-0.226l0.03,3.544l0.094-0.017
			c1.267-2.771,3.209-4.388,5.826-4.85c1.35-0.237,2.421-0.084,3.213,0.462c0.792,0.545,1.298,1.44,1.518,2.688
			c0.128,0.727,0.17,1.693,0.126,2.901l-0.454,10.904L123.004,279.089z"/>
		<path fill="#00ABD0" d="M129.997,276.94c-0.103-0.582-0.054-1.064,0.146-1.447s0.528-0.614,0.985-0.695
			c0.686-0.121,1.095,0.193,1.226,0.939c0.098,0.551,0.048,1.028-0.148,1.433c-0.197,0.404-0.519,0.646-0.965,0.724
			C130.546,278.017,130.131,277.698,129.997,276.94z M131.735,271.495l-0.966,0.17l0.182-17.458l1.854-0.326L131.735,271.495z"/>
	</g>
	<g>
		<path fill="#88B04B" d="M274.601,370.89l7.966-21.593l2.336-0.412l-0.673,23.6l-1.573,0.277l0.501-14.56
			c0.144-3.976,0.254-6.389,0.329-7.237l-0.094,0.017l-8.446,23.141l-0.795,0.14l-7.161-20.388l-0.093,0.016
			c0.074,1.637,0.06,3.92-0.045,6.851l-0.521,14.9l-1.495,0.264l0.797-23.622l2.228-0.393l6.646,19.017L274.601,370.89z"/>
		<path fill="#88B04B" d="M296.306,352.623c2.409-0.425,4.059,0.458,4.947,2.646l0.094-0.017l0.364-3.308l1.247-0.22l-0.582,17.561
			l-1.277,0.226l-0.052-4.393l-0.094,0.017c-0.612,1.629-1.384,2.933-2.313,3.909c-0.931,0.979-2.092,1.59-3.483,1.835
			c-2.918,0.515-4.719-1.17-5.403-5.053c-0.361-2.046-0.316-4.067,0.135-6.063s1.239-3.616,2.363-4.858
			C293.376,353.663,294.728,352.901,296.306,352.623z M295.268,369.414c0.924-0.163,1.789-0.647,2.595-1.454
			c0.806-0.805,1.479-1.812,2.02-3.021c0.543-1.209,0.89-2.502,1.044-3.878c0.152-1.376,0.15-2.516-0.009-3.419
			c-0.145-0.82-0.409-1.532-0.794-2.133c-0.385-0.602-0.875-1.045-1.471-1.332c-0.597-0.285-1.29-0.358-2.079-0.219
			c-1.287,0.227-2.376,0.857-3.264,1.893c-0.889,1.034-1.516,2.459-1.881,4.274s-0.399,3.563-0.103,5.245
			c0.278,1.579,0.743,2.693,1.393,3.344C293.369,369.366,294.219,369.599,295.268,369.414z"/>
		<path fill="#88B04B" d="M314.269,367.509c-1.807,0.319-3.333-0.004-4.579-0.967c-1.246-0.964-2.048-2.464-2.407-4.499
			c-0.354-2.004-0.303-3.947,0.152-5.833c0.454-1.883,1.249-3.4,2.386-4.548c1.136-1.147,2.561-1.873,4.274-2.175
			c1.391-0.246,2.682-0.242,3.872,0.009l-0.189,1.478c-1.197-0.292-2.372-0.337-3.524-0.133c-1.34,0.235-2.477,0.849-3.41,1.838
			c-0.934,0.99-1.574,2.29-1.922,3.904c-0.347,1.614-0.36,3.328-0.04,5.146c0.289,1.641,0.894,2.838,1.813,3.591
			c0.921,0.754,2.081,1.006,3.483,0.759c0.736-0.13,1.407-0.317,2.013-0.563c0.604-0.245,1.244-0.604,1.921-1.077l0.253,1.434
			C317.264,366.675,315.898,367.222,314.269,367.509z"/>
		<path fill="#88B04B" d="M332.501,363.974l0.419-11.188c0.051-0.994,0.017-1.823-0.101-2.487c-0.146-0.832-0.487-1.44-1.021-1.828
			c-0.534-0.389-1.274-0.498-2.219-0.332c-1.163,0.205-2.195,0.746-3.096,1.622c-0.899,0.877-1.589,2.004-2.068,3.384
			c-0.479,1.381-0.755,2.961-0.827,4.739l-0.278,7.711l-1.526,0.269l0.897-25.148l1.495-0.264l-0.211,6.638
			c-0.091,2.158-0.178,3.667-0.262,4.527l0.094-0.017c0.604-1.316,1.41-2.397,2.424-3.245c1.012-0.849,2.146-1.384,3.402-1.604
			c1.287-0.228,2.344-0.065,3.169,0.484c0.825,0.552,1.346,1.439,1.562,2.664c0.128,0.728,0.17,1.695,0.126,2.901l-0.454,10.905
			L332.501,363.974z"/>
		<path fill="#88B04B" d="M291.429,404.107l0.438-10.901c0.03-1.345,0.012-2.209-0.056-2.594c-0.334-1.89-1.3-2.693-2.899-2.412
			c-1.101,0.194-2.077,0.729-2.929,1.602c-0.854,0.872-1.506,1.997-1.96,3.372c-0.453,1.376-0.709,2.959-0.769,4.747l-0.254,7.673
			l-1.525,0.269l0.612-17.565l1.246-0.22l0.062,3.361l0.094-0.018c0.624-1.318,1.41-2.368,2.359-3.146
			c0.95-0.777,2.001-1.269,3.153-1.472c1.102-0.194,2.009,0.005,2.724,0.596c0.715,0.592,1.204,1.55,1.47,2.873l0.094-0.016
			c0.563-1.481,1.324-2.662,2.282-3.544c0.958-0.881,2.05-1.43,3.275-1.646c1.216-0.214,2.219-0.062,3.012,0.457
			s1.295,1.375,1.505,2.57c0.054,0.301,0.092,0.596,0.116,0.887c0.024,0.289,0.032,0.928,0.024,1.914l-0.473,11.166l-1.557,0.274
			l0.453-11.001c0.039-1.292,0.009-2.229-0.094-2.811c-0.142-0.799-0.475-1.38-0.998-1.742c-0.525-0.363-1.182-0.476-1.971-0.337
			c-1.631,0.288-2.945,1.257-3.945,2.904c-0.999,1.649-1.542,3.686-1.629,6.109l-0.275,8.368L291.429,404.107z"/>
		<path fill="#88B04B" d="M310.338,400.773l-1.526,0.269l0.612-17.565l1.495-0.264L310.338,400.773z M309.327,379.013
			c-0.101-0.571-0.066-1.049,0.102-1.432s0.449-0.609,0.844-0.679c0.592-0.104,0.954,0.218,1.086,0.965
			c0.104,0.592,0.072,1.08-0.096,1.463c-0.168,0.382-0.434,0.606-0.797,0.67c-0.302,0.054-0.551-0.008-0.748-0.182
			C309.521,379.645,309.392,379.376,309.327,379.013z"/>
		<path fill="#88B04B" d="M322.851,381.108l-0.058,1.312l-4.408,0.777l-0.358,10.262c-0.048,1.068-0.012,1.94,0.107,2.615
			c0.254,1.443,1.036,2.05,2.344,1.818c0.706-0.124,1.472-0.398,2.297-0.821l0.236,1.339c-0.998,0.476-1.854,0.776-2.571,0.903
			c-1.028,0.182-1.872,0.038-2.533-0.43c-0.66-0.467-1.086-1.24-1.276-2.32c-0.134-0.758-0.172-1.854-0.114-3.287l0.343-9.81
			l-2.835,0.5l0.034-1.083l2.819-0.77l0.815-4.208l0.857-0.151l-0.154,4.14L322.851,381.108z"/>
		<path fill="#88B04B" d="M325.711,397.147c-0.103-0.582-0.054-1.064,0.146-1.448c0.2-0.382,0.528-0.615,0.985-0.696
			c0.686-0.12,1.094,0.194,1.226,0.941c0.097,0.551,0.047,1.027-0.149,1.431c-0.196,0.405-0.518,0.646-0.964,0.725
			C326.259,398.223,325.845,397.905,325.711,397.147z M327.448,391.7l-0.965,0.171l0.182-17.458l1.854-0.327L327.448,391.7z"/>
	</g>
	<g>
		<path fill="#FFFFFF" d="M195.771,276.25l-3.706,0.652l0.554-14.068c0.016-1.609,0.146-3.367,0.388-5.273
			c-0.491,0.676-1.1,1.33-1.823,1.961l-2.591,2.336l-2.118-2.357l7.042-6.334l3.084-0.543L195.771,276.25z"/>
		<path fill="#FFFFFF" d="M218.858,267.088l-3.132,0.553l-0.188,5.123l-3.566,0.629l0.204-5.127l-9.688,1.709l0.035-3.17
			l9.893-17.035l3.957-0.697l-0.517,15.381l3.131-0.553L218.858,267.088z M212.272,265.086l0.211-5.002
			c0.072-1.469,0.247-3.516,0.522-6.146l-0.125,0.023c-0.372,0.986-0.902,2.074-1.592,3.268l-5.2,8.947L212.272,265.086z"/>
		<path fill="#FFFFFF" d="M221.246,270.25c-0.152-0.863-0.029-1.594,0.368-2.193c0.397-0.602,1.032-0.979,1.904-1.133
			c0.581-0.102,1.075-0.02,1.48,0.246c0.406,0.266,0.664,0.715,0.775,1.348c0.144,0.811,0.016,1.527-0.384,2.148
			c-0.398,0.623-0.998,1.004-1.797,1.145c-0.686,0.121-1.225,0.025-1.617-0.285C221.585,271.215,221.341,270.789,221.246,270.25z"/>
		<path fill="#FFFFFF" d="M245.545,267.473l-5.126-18.594l-0.094,0.018c0.123,1.242,0.148,3.057,0.078,5.447l-0.466,14.117
			l-3.411,0.602l0.798-23.621l5.031-0.887l4.854,17.598l0.093-0.016l6.284-19.562l5.358-0.943l-0.736,23.609l-3.535,0.623
			l0.439-14.082c0.064-2.002,0.198-3.857,0.4-5.562l-0.093,0.016l-6.683,20.676L245.545,267.473z"/>
		<path fill="#FFFFFF" d="M269.104,263.641c-1.464,0.258-2.715-0.064-3.752-0.969s-1.725-2.311-2.062-4.221
			c-0.37-2.098-0.355-4.125,0.044-6.08c0.399-1.953,1.139-3.574,2.219-4.863c1.079-1.289,2.376-2.064,3.893-2.332
			c1.007-0.178,1.916-0.094,2.727,0.248c0.81,0.346,1.497,0.934,2.062,1.766l0.155-0.027l0.532-2.631l2.804-0.494l-0.639,17.875
			l-2.834,0.5l-0.156-2.799l-0.094,0.016C272.721,261.955,271.088,263.291,269.104,263.641z M269.923,260.445
			c0.852-0.15,1.616-0.699,2.295-1.65c0.678-0.949,1.163-2.146,1.455-3.588c0.291-1.443,0.297-2.965,0.015-4.564
			c-0.161-0.914-0.536-1.605-1.121-2.076c-0.587-0.467-1.274-0.633-2.063-0.494c-0.883,0.156-1.643,0.701-2.28,1.639
			s-1.069,2.135-1.294,3.594c-0.225,1.457-0.207,2.924,0.053,4.398c0.187,1.059,0.537,1.814,1.05,2.266
			C268.545,260.418,269.175,260.576,269.923,260.445z"/>
		<path fill="#FFFFFF" d="M285.716,260.391l-3.676,0.648l0.639-17.875l3.66-0.646L285.716,260.391z M282.664,238.798
			c-0.124-0.707-0.023-1.314,0.305-1.821c0.328-0.508,0.86-0.826,1.599-0.957c0.55-0.097,1.021-0.037,1.412,0.177
			c0.391,0.215,0.637,0.603,0.735,1.164c0.13,0.737,0.024,1.354-0.315,1.854c-0.341,0.499-0.849,0.809-1.523,0.928
			c-0.551,0.097-1.031,0.042-1.442-0.164C283.022,239.773,282.767,239.378,282.664,238.798z"/>
	</g>
</g>
</svg>
