<?xml version="1.0" encoding="UTF-8" standalone="no"?><!DOCTYPE svg PUBLIC "-//W3C//DTD SVG 1.1//EN" "http://www.w3.org/Graphics/SVG/1.1/DTD/svg11.dtd"><svg width="100%" height="100%" viewBox="0 0 900 165" version="1.1" xmlns="http://www.w3.org/2000/svg" xmlns:xlink="http://www.w3.org/1999/xlink" xml:space="preserve" xmlns:serif="http://www.serif.com/" style="fill-rule:evenodd;clip-rule:evenodd;stroke-linejoin:round;stroke-miterlimit:1.41421;"><g id="outlines"><path d="M129.372,77.402c11.005,0.148 22.025,5.58 27.223,15.149c2.929,5.392 4.099,11.617 4.142,17.799l0,0.223l0,52.427c0,0 -0.453,4.753 -3.155,7.29c-1.528,1.435 -3.514,2.369 -5.592,2.631c-0.554,0.07 -0.695,0.061 -1.253,0.079l-19.008,0c-2.051,-0.064 -2.611,-0.279 -3.681,-0.702c-3.308,-1.31 -5.79,-4.482 -6.24,-8.045c-0.07,-0.554 -0.061,-0.695 -0.079,-1.253c0,-15.977 0.143,-31.955 -0.002,-47.931c-0.009,-0.641 -0.085,-1.554 -0.085,-1.554c-0.579,1.619 -0.644,3.399 -0.649,5.146l0,44.339c-0.061,1.93 -0.216,2.25 -0.489,3.09c-1.165,3.583 -4.496,6.356 -8.258,6.831c-0.554,0.07 -0.695,0.061 -1.253,0.079l-19.008,0c-1.93,-0.061 -2.25,-0.216 -3.09,-0.489c-3.583,-1.165 -6.356,-4.496 -6.831,-8.258c-0.07,-0.554 -0.061,-0.695 -0.079,-1.253c0,-15.977 0.143,-31.955 -0.002,-47.932c-0.005,-0.365 -0.031,-0.889 -0.031,-0.889c-0.575,1.724 -0.686,3.591 -0.702,5.434l-0.001,43.387c0,0 -0.453,4.753 -3.155,7.29c-1.528,1.435 -3.514,2.369 -5.592,2.631c-0.554,0.07 -0.695,0.061 -1.253,0.079l-19.152,0c-2.051,-0.064 -2.611,-0.279 -3.681,-0.702c-3.308,-1.31 -5.79,-4.482 -6.24,-8.045c-0.07,-0.554 -0.061,-0.695 -0.079,-1.253c0,-19.624 0.04,-39.247 -0.001,-58.871c-0.031,-4.907 -0.33,-9.805 -0.692,-14.695c0,0 -0.055,-2.442 0.588,-4.191c1.262,-3.429 4.505,-6.024 8.17,-6.473c0.538,-0.066 0.674,-0.058 1.215,-0.074l18.144,0c2.058,0.064 3.8,0.47 5.81,1.861c0.287,0.198 0.353,0.041 0.665,-0.111c10.658,-5.078 24.166,-3.961 33.254,3.361c5.535,-4.29 12.479,-6.329 19.447,-6.406c0.338,-0.001 0.338,-0.001 0.675,0.001Z" style="fill:#072838;fill-rule:nonzero;"/><path d="M200.602,77.401c15.347,0.13 30.324,7.463 37.639,22.389c5.626,11.48 6.603,24.839 4.561,37.445c-1.947,12.022 -8.016,23.872 -18.269,30.561c-20.025,13.064 -50.911,7.249 -62.162,-15.568c-5.664,-11.486 -6.651,-24.843 -4.681,-37.425c1.922,-12.276 8.172,-24.306 18.506,-30.923c7.178,-4.597 15.951,-6.503 24.406,-6.479Z" style="fill:#072838;fill-rule:nonzero;"/><path d="M269.759,45.021c2.002,0.198 2.322,0.388 3.173,0.74c3.225,1.336 5.628,4.445 6.087,7.934c0.076,0.577 0.067,0.724 0.086,1.305l0,23.667c6.378,-1.852 25.377,-2.346 36.142,12.137c8.252,11.102 10.211,25.666 9.528,39.091c-0.748,14.695 -5.387,30.263 -17.511,38.571c-9.643,6.608 -23.04,7.705 -33.432,2.402c0,0 -2.487,1.735 -4.865,2.047c-0.576,0.075 -0.722,0.066 -1.302,0.085l-18.288,0c-2.009,-0.066 -2.341,-0.234 -3.212,-0.53c-3.714,-1.259 -6.503,-4.866 -6.766,-8.803c-0.162,-2.429 0.119,-3.168 0.208,-4.618c0.187,-3.149 0.34,-6.3 0.346,-9.451l0,-94.598c0.066,-2.01 0.235,-2.343 0.531,-3.214c1.191,-3.51 4.456,-6.212 8.164,-6.7c0.577,-0.076 0.724,-0.067 1.305,-0.086l19.152,0c0.218,0.007 0.436,0.014 0.654,0.021Z" style="fill:#072838;fill-rule:nonzero;"/><path d="M340.929,46.585c10.949,0.199 20.941,10.014 20.214,21.249c-0.299,4.609 -2.257,9.062 -5.453,12.426c0,0 4.485,3.785 4.631,8.436l0,74.304c-0.061,1.93 -0.216,2.25 -0.489,3.09c-1.165,3.583 -4.496,6.356 -8.258,6.831c-0.554,0.07 -0.695,0.061 -1.253,0.079l-19.152,0c-2.051,-0.064 -2.611,-0.279 -3.681,-0.702c-3.308,-1.31 -5.79,-4.482 -6.24,-8.045c-0.07,-0.554 -0.061,-0.695 -0.079,-1.253l0,-74.304c0.106,-3.372 1.733,-6.466 4.544,-8.377c-5.575,-5.725 -7.161,-15.116 -3.517,-22.444c3.338,-6.712 10.603,-11.151 18.221,-11.29c0.256,-0.001 0.256,-0.001 0.512,0Z" style="fill:#072838;fill-rule:nonzero;"/><path d="M389.279,45.021c2.002,0.198 2.322,0.388 3.173,0.74c3.225,1.336 5.628,4.445 6.087,7.934c0.076,0.577 0.067,0.724 0.086,1.305l0,108c-0.066,2.01 -0.235,2.343 -0.531,3.214c-1.191,3.51 -4.456,6.212 -8.164,6.7c-0.577,0.076 -0.724,0.067 -1.305,0.086l-19.152,0c-2.01,-0.066 -2.343,-0.235 -3.214,-0.531c-3.51,-1.191 -6.212,-4.456 -6.7,-8.164c-0.076,-0.577 -0.067,-0.724 -0.086,-1.305l0,-108c0.066,-2.01 0.235,-2.343 0.531,-3.214c1.191,-3.51 4.456,-6.212 8.164,-6.7c0.577,-0.076 0.724,-0.067 1.305,-0.086l19.152,0c0.218,0.007 0.436,0.014 0.654,0.021Z" style="fill:#072838;fill-rule:nonzero;"/><path d="M439.822,104.335c5.033,0.276 9.439,4.449 9.628,9.628c0.005,0.121 0.005,0.243 0.007,0.365l0,15.12c-0.094,5.168 -4.343,9.8 -9.635,9.993c-0.121,0.005 -0.243,0.005 -0.365,0.007l-34.128,0c-5.168,-0.094 -9.8,-4.344 -9.993,-9.635c-0.005,-0.121 -0.005,-0.243 -0.007,-0.365l0,-15.12c0.094,-5.168 4.344,-9.8 9.635,-9.993c0.121,-0.005 0.243,-0.005 0.365,-0.007l34.128,0c0.122,0.002 0.243,0.004 0.365,0.007Z" style="fill:#072838;fill-rule:nonzero;"/><path d="M599.086,104.335c5.033,0.276 9.439,4.449 9.628,9.628c0.005,0.121 0.005,0.243 0.007,0.365l0,15.12c-0.094,5.154 -4.344,9.8 -9.635,9.993c-0.121,0.005 -0.243,0.005 -0.365,0.007l-34.128,0c-5.154,-0.094 -9.8,-4.344 -9.993,-9.635c-0.005,-0.121 -0.005,-0.243 -0.007,-0.365l0,-15.12c0.094,-5.154 4.343,-9.8 9.635,-9.993c0.121,-0.005 0.243,-0.005 0.365,-0.007l34.128,0c0.122,0.002 0.243,0.004 0.365,0.007Z" style="fill:#072838;fill-rule:nonzero;"/><path d="M692.844,77.402c11.171,0.15 22.321,5.815 27.418,15.513c2.79,5.31 3.904,11.398 3.947,17.435l0,0.224l0,52.426c0,0 -0.453,4.753 -3.155,7.29c-1.528,1.435 -3.514,2.369 -5.592,2.631c-0.554,0.07 -0.695,0.061 -1.253,0.079l-19.008,0c-1.93,-0.061 -2.25,-0.216 -3.09,-0.489c-3.583,-1.165 -6.356,-4.496 -6.831,-8.258c-0.07,-0.554 -0.061,-0.695 -0.079,-1.253c0,-15.977 0.14,-31.955 -0.002,-47.931c-0.009,-0.641 -0.085,-1.554 -0.085,-1.554c-0.58,1.618 -0.644,3.399 -0.649,5.147l0,44.338c-0.064,2.051 -0.279,2.611 -0.702,3.681c-1.31,3.308 -4.482,5.79 -8.045,6.24c-0.554,0.07 -0.695,0.061 -1.253,0.079l-19.008,0c-2.051,-0.064 -2.611,-0.279 -3.681,-0.702c-3.308,-1.31 -5.79,-4.482 -6.24,-8.045c-0.07,-0.554 -0.061,-0.695 -0.079,-1.253c0,-15.977 0.14,-31.955 -0.002,-47.931c-0.005,-0.365 -0.031,-0.891 -0.031,-0.891c-0.575,1.725 -0.686,3.592 -0.702,5.435c0,0 -0.001,43.387 -0.001,43.387c0,0 -0.453,4.753 -3.155,7.29c-1.528,1.435 -3.514,2.369 -5.592,2.631c-0.554,0.07 -0.695,0.061 -1.253,0.079l-19.152,0c-2.051,-0.064 -2.611,-0.279 -3.681,-0.702c-3.308,-1.31 -5.79,-4.482 -6.24,-8.045c-0.07,-0.554 -0.061,-0.695 -0.079,-1.253c0,-19.623 0.04,-39.247 -0.001,-58.87c-0.031,-4.908 -0.33,-9.806 -0.692,-14.696c0,0 0.126,-4.997 2.856,-7.763c1.572,-1.592 3.687,-2.63 5.902,-2.901c0.538,-0.066 0.674,-0.058 1.215,-0.074l18.144,0c2.058,0.064 3.799,0.47 5.81,1.861c0.285,0.197 0.353,0.042 0.665,-0.111c10.667,-5.082 24.165,-3.963 33.254,3.361c5.451,-4.226 12.479,-6.329 19.447,-6.406c0.338,-0.001 0.338,-0.001 0.675,0.001Z" style="fill:#072838;fill-rule:nonzero;"/><path d="M762.358,77.401c12.568,0.088 26.282,4.024 33.338,15.563c3.704,6.058 5.066,13.327 5.12,20.47c0.04,16.187 -1.203,32.56 0.653,48.402c0,0 0.156,2.17 -0.279,3.777c-1.044,3.855 -4.575,6.892 -8.566,7.328c-0.482,0.052 -0.604,0.046 -1.087,0.059l-16.992,0c-2.333,-0.064 -4.467,-0.733 -6.405,-2.325c-14.414,7.601 -35.613,3.266 -43.927,-11.714c-7.709,-13.89 -4.559,-33.456 8.009,-43.183c0,0 0.16,-0.17 0.16,-0.17c0,0 -3.339,-3.595 -3.67,-7.088l-1.008,-14.976c-0.068,-1.697 0.033,-1.986 0.194,-2.746c1.409,-6.642 9.898,-9.542 17.788,-11.471c5.447,-1.333 11.079,-1.939 16.672,-1.926Z" style="fill:#072838;fill-rule:nonzero;"/><path d="M835.236,57.559c1.899,0.209 2.202,0.386 3.011,0.718c3.256,1.337 5.684,4.486 6.125,8.011c0.068,0.549 0.06,0.688 0.077,1.24l0,11.168l4.832,0c0,0 4.552,0.41 7.071,2.929c1.569,1.568 2.589,3.669 2.856,5.866c0.065,0.533 0.057,0.669 0.073,1.205l0,13.824c-0.06,1.972 -0.257,2.511 -0.65,3.546c-1.283,3.383 -4.51,5.94 -8.145,6.381c-0.533,0.065 -0.669,0.057 -1.205,0.073l-4.832,0l0,27.56c0.088,-0.027 0.175,-0.057 0.261,-0.092c3.46,-1.441 10.975,-0.871 13.588,4.576c0.578,1.205 0.865,1.873 0.981,4.114l0.288,13.68c-0.017,1.841 -0.152,2.149 -0.383,2.959c-1.861,6.506 -10.368,8.248 -18.448,8.918c-9.754,0.809 -20.185,-0.957 -27.171,-7.848c-5.643,-5.566 -8.089,-13.762 -8.124,-21.797l0,-32.07l-2.384,0c0,0 -4.552,-0.41 -7.071,-2.929c-1.569,-1.568 -2.589,-3.669 -2.856,-5.866c-0.065,-0.533 -0.057,-0.669 -0.073,-1.205l0,-13.824c0.06,-1.972 0.257,-2.511 0.65,-3.546c1.283,-3.383 4.51,-5.94 8.145,-6.381c0.533,-0.065 0.669,-0.057 1.205,-0.073l2.384,0l0,-5.408c0,0 0.134,-3.643 2.154,-6.199c1.254,-1.589 3.006,-2.719 4.946,-3.371l19.008,-5.76c2.186,-0.589 1.163,-0.519 3.687,-0.399Z" style="fill:#072838;fill-rule:nonzero;"/></g><g id="text"><path d="M150.737,163l0,-52.416c0,-16.128 -9.36,-23.184 -21.744,-23.184c-9.504,0 -15.696,4.464 -20.16,11.952c-4.176,-8.784 -10.944,-11.952 -18.864,-11.952c-11.376,0 -16.992,6.912 -19.728,13.104l-0.288,0c0,-2.16 -0.288,-10.224 -0.432,-11.808l-18.144,0c0.288,3.888 0.72,9.648 0.72,15.984l0,58.32l19.152,0l0,-43.2c0,-10.512 3.888,-16.704 11.52,-16.704c6.048,0 9.216,3.888 9.216,12.24l0,47.664l19.008,0l0,-44.352c0,-9.36 3.168,-15.552 11.376,-15.552c6.192,0 9.36,3.888 9.36,12.24l0,47.664l19.008,0Z" style="fill:#fff;fill-rule:nonzero;"/><path d="M233.681,125.848c0,-21.6 -10.08,-38.448 -33.408,-38.448c-23.472,0 -33.408,16.848 -33.408,38.448c0,21.744 9.936,38.592 33.408,38.592c23.328,0 33.408,-16.848 33.408,-38.592Zm-19.872,0c0,14.688 -3.456,24.768 -13.536,24.768c-10.224,0 -13.536,-10.08 -13.536,-24.768c0,-14.544 3.312,-24.768 13.536,-24.768c10.08,0 13.536,10.224 13.536,24.768Z" style="fill:#fff;fill-rule:nonzero;"/><path d="M314.897,124.984c0,-21.456 -9.216,-37.584 -26.064,-37.584c-9.216,0 -14.688,3.6 -19.728,11.808l-0.288,0c0.144,-1.584 0.288,-11.952 0.288,-14.832l0,-29.376l-19.152,0l0,94.608c0,4.464 -0.288,8.928 -0.576,13.392l18.288,0c0.144,-2.016 0.576,-9.36 0.576,-11.52l0.288,0c4.32,8.064 10.368,12.672 19.584,12.672c17.424,0 26.784,-15.12 26.784,-39.168Zm-19.584,0.576c0,15.408 -3.744,24.48 -13.104,24.48c-8.784,0 -13.104,-9.072 -13.104,-24.48c0,-15.408 4.32,-24.48 13.104,-24.48c9.36,0 13.104,9.072 13.104,24.48Z" style="fill:#fff;fill-rule:nonzero;"/><path d="M351.185,66.52c0,-5.472 -4.752,-9.936 -10.512,-9.936c-5.76,0 -10.512,4.464 -10.512,9.936c0,5.76 4.752,10.08 10.512,10.08c5.76,0 10.512,-4.32 10.512,-10.08Zm-0.864,96.48l0,-74.304l-19.152,0l0,74.304l19.152,0Z" style="fill:#fff;fill-rule:nonzero;"/><rect x="369.473" y="55" width="19.152" height="108" style="fill:#fff;fill-rule:nonzero;"/><rect x="405.329" y="114.328" width="34.128" height="15.12" style="fill:#fff;fill-rule:nonzero;"/><rect x="564.593" y="114.328" width="34.128" height="15.12" style="fill:#fff;fill-rule:nonzero;"/><path d="M714.209,163l0,-52.416c0,-16.128 -9.36,-23.184 -21.744,-23.184c-9.504,0 -15.696,4.464 -20.16,11.952c-4.176,-8.784 -10.944,-11.952 -18.864,-11.952c-11.376,0 -16.992,6.912 -19.728,13.104l-0.288,0c0,-2.16 -0.288,-10.224 -0.432,-11.808l-18.144,0c0.288,3.888 0.72,9.648 0.72,15.984l0,58.32l19.152,0l0,-43.2c0,-10.512 3.888,-16.704 11.52,-16.704c6.048,0 9.216,3.888 9.216,12.24l0,47.664l19.008,0l0,-44.352c0,-9.36 3.168,-15.552 11.376,-15.552c6.192,0 9.36,3.888 9.36,12.24l0,47.664l19.008,0Z" style="fill:#fff;fill-rule:nonzero;"/><path d="M791.537,163c-0.432,-3.6 -0.72,-8.784 -0.72,-13.968l0,-35.28c0,-11.376 -3.6,-26.352 -28.8,-26.352c-9.792,0 -18.288,2.304 -24.336,5.472l1.008,14.976c4.896,-4.032 12.528,-7.344 20.304,-7.344c11.376,0 14.544,6.336 14.544,13.248l0,2.88l-6.912,0c-25.632,0 -36.576,9.648 -36.576,25.2c0,14.256 9.216,22.608 22.032,22.608c9.936,0 15.984,-4.608 21.456,-11.52l0.144,0c0,1.728 0.72,8.352 0.864,10.08l16.992,0Zm-18,-30.384c0,8.64 -4.032,18.864 -15.264,18.864c-6.768,0 -10.656,-3.744 -10.656,-10.944c0,-8.64 7.2,-13.824 20.16,-13.824c1.584,0 4.896,0 5.76,0.144l0,5.76Z" style="fill:#fff;fill-rule:nonzero;"/><path d="M849.569,162.568l-0.288,-13.68c-1.728,0.864 -4.032,1.44 -6.768,1.44c-5.04,0 -8.064,-2.88 -8.064,-10.224l0,-37.584l14.832,0l0,-13.824l-14.832,0l0,-21.168l-19.008,5.76l0,15.408l-12.384,0l0,13.824l12.384,0l0,42.048c0,13.536 7.776,19.872 20.448,19.872c5.472,0 10.656,-1.008 13.68,-1.872Z" style="fill:#fff;fill-rule:nonzero;"/></g><g id="oh"><circle cx="503.5" cy="143.5" r="88.5" style="fill:#072838;"/><circle cx="503" cy="144" r="78" style="fill:#23d7ff;"/><circle cx="504" cy="144" r="52.5" style="fill:#ffa835;"/><circle cx="504.663" cy="145.663" r="31.5" style="fill:#072838;"/></g></svg>