<?xml version="1.0" encoding="UTF-8" standalone="no"?><!DOCTYPE svg PUBLIC "-//W3C//DTD SVG 1.1//EN" "http://www.w3.org/Graphics/SVG/1.1/DTD/svg11.dtd"><svg width="100%" height="100%" viewBox="0 0 123 123" version="1.1" xmlns="http://www.w3.org/2000/svg" xmlns:xlink="http://www.w3.org/1999/xlink" xml:space="preserve" xmlns:serif="http://www.serif.com/" style="fill-rule:evenodd;clip-rule:evenodd;stroke-linejoin:round;stroke-miterlimit:1.41421;"><g id="oh"><clipPath id="_clip1"><rect x="0" y="22.32" width="122.88" height="78.24"/></clipPath><g clip-path="url(#_clip1)"><circle cx="61.44" cy="83.76" r="61.44" style="fill:#072838;"/><circle cx="61.093" cy="84.107" r="54.151" style="fill:#23d7ff;"/><circle cx="61.787" cy="84.107" r="36.447" style="fill:#ffa835;"/><circle cx="62.248" cy="85.262" r="21.868" style="fill:#072838;"/></g></g><path d="M78.491,97.621l0,-17.138c0,-5.273 -3.06,-7.58 -7.109,-7.58c-3.108,0 -5.132,1.46 -6.592,3.908c-1.365,-2.872 -3.578,-3.908 -6.168,-3.908c-3.719,0 -5.555,2.26 -6.45,4.284l-0.094,0c0,-0.706 -0.094,-3.342 -0.141,-3.86l-5.932,0c0.094,1.271 0.235,3.154 0.235,5.226l0,19.068l6.262,0l0,-14.125c0,-3.437 1.271,-5.461 3.766,-5.461c1.978,0 3.014,1.271 3.014,4.002l0,15.584l6.214,0l0,-14.501c0,-3.061 1.036,-5.085 3.72,-5.085c2.024,0 3.06,1.271 3.06,4.002l0,15.584l6.215,0Z" style="fill:#fff;fill-rule:nonzero;"/></svg>